<svg xmlns="http://www.w3.org/2000/svg" width="57.25" height="52.25" viewBox="0 0 57.25 52.25">
  <defs>
    <style>
      .cls-1 {
        fill: none;
        stroke-linecap: round;
        stroke-linejoin: round;
      }

      .cls-1, .cls-2 {
        stroke: #394553;
        stroke-width: 2.25px;
      }

      .cls-2 {
        fill: #394553;
        stroke-miterlimit: 10;
      }
    </style>
  </defs>
  <title>icon_2</title>
  <g id="Слой_2" data-name="Слой 2">
    <g id="Calque_2" data-name="Calque 2">
      <g>
        <path class="cls-1" d="M32.81,42.06c13.13-.5,14.06-11.51,14.06-11.51s.07-2.45-1-3.69"/>
        <path class="cls-1" d="M12.22,31.47s2.61,19.66,16.21,19.66S45.37,31.47,45.37,31.47a31.51,31.51,0,0,0-.76-11.81s-7.17-2.07-11.43-6.45c-1.8-1.85-1.87-1.64-2.56.16C25.67,26.1,13,23.37,13,23.37"/>
        <g>
          <path class="cls-2" d="M22.42,28.85a.7.7,0,1,1-.7-.7A.7.7,0,0,1,22.42,28.85Z"/>
          <path class="cls-2" d="M36.87,28.85a.7.7,0,1,1-.7-.7A.7.7,0,0,1,36.87,28.85Z"/>
        </g>
        <rect class="cls-1" x="25.16" y="39.67" width="7.55" height="4.62" rx="1.89" ry="1.89"/>
        <path class="cls-1" d="M47.1,44.61c6.22,3.49,9-.89,9-.89-4.38-3.82-3.95-6.18-4.08-9.1s.15-3.74,1.05-8.09C55.91,3.85,34,1.12,28.62,1.12S1.32,3.74,4.16,26.53c.89,4.35,1.19,5,1,8.09s.29,5.28-4.09,9.1c0,0,2.81,4.38,9,.89"/>
      </g>
    </g>
  </g>
</svg>
