<svg xmlns="http://www.w3.org/2000/svg" width="51.19" height="55.53" viewBox="0 0 51.19 55.53">
  <defs>
    <style>
      .cls-1, .cls-2, .cls-3 {
        fill: none;
      }

      .cls-1, .cls-2, .cls-3, .cls-4 {
        stroke: #394553;
        stroke-width: 2.19px;
      }

      .cls-1 {
        stroke-linejoin: round;
      }

      .cls-2, .cls-3, .cls-4 {
        stroke-miterlimit: 10;
      }

      .cls-3 {
        stroke-linecap: round;
      }

      .cls-4 {
        fill: #394553;
      }
    </style>
  </defs>
  <title>icon_1</title>
  <g id="Слой_2" data-name="Слой 2">
    <g id="Calque_2" data-name="Calque 2">
      <g>
        <path class="cls-1" d="M25.38,53.27H3.72A2.64,2.64,0,0,1,1.1,50.64V11.06A2.64,2.64,0,0,1,3.72,8.43H7"/>
        <path class="cls-1" d="M32.8,8.43h3.35a2.64,2.64,0,0,1,2.62,2.63V25.82"/>
        <path class="cls-2" d="M50.1,42.32A12.13,12.13,0,1,1,38,30.2,12.13,12.13,0,0,1,50.1,42.32Z"/>
        <polyline class="cls-2" points="32.43 41.85 37.36 45.85 43.68 37.69"/>
        <path class="cls-3" d="M28.65,5.39H24.26a4.37,4.37,0,0,0-8.74,0H11.13v6.69H28.65Z"/>
        <g>
          <rect class="cls-4" x="8.96" y="21.67" width="0.75" height="0.75"/>
          <line class="cls-2" x1="14.59" y1="22.05" x2="32.39" y2="22.05"/>
        </g>
        <g>
          <rect class="cls-4" x="8.96" y="28.73" width="0.75" height="0.75"/>
          <line class="cls-2" x1="14.59" y1="29.11" x2="28.01" y2="29.11"/>
        </g>
        <g>
          <rect class="cls-4" x="8.96" y="35.79" width="0.75" height="0.75"/>
          <line class="cls-2" x1="14.59" y1="36.16" x2="22.66" y2="36.16"/>
        </g>
        <g>
          <rect class="cls-4" x="8.96" y="42.85" width="0.75" height="0.75"/>
          <line class="cls-2" x1="14.59" y1="43.22" x2="21.45" y2="43.22"/>
        </g>
      </g>
    </g>
  </g>
</svg>
