<?xml version="1.0" standalone="no"?>
<!DOCTYPE svg PUBLIC "-//W3C//DTD SVG 20010904//EN"
 "http://www.w3.org/TR/2001/REC-SVG-20010904/DTD/svg10.dtd">
<svg version="1.0" xmlns="http://www.w3.org/2000/svg"
 width="512.000000pt" height="512.000000pt" viewBox="0 0 512.000000 512.000000"
 preserveAspectRatio="xMidYMid meet">
<metadata>
Created by potrace 1.11, written by Peter Selinger 2001-2013
</metadata>
<g transform="translate(0.000000,512.000000) scale(0.100000,-0.100000)"
fill="#000000" stroke="none">
<path d="M2558 5028 c-9 -7 -18 -24 -20 -38 -2 -19 -26 -40 -100 -88 l-97 -64
33 -92 33 -92 -31 -19 c-181 -106 -314 -177 -335 -180 -14 -2 -39 -6 -56 -9
-16 -2 -52 -8 -80 -11 -47 -7 -119 -40 -156 -72 -9 -8 -28 -12 -42 -9 -34 6
-59 -14 -59 -48 0 -34 12 -48 47 -49 37 -3 308 -284 310 -323 0 -14 10 -33 22
-42 17 -14 22 -32 27 -97 4 -44 9 -100 11 -125 3 -25 7 -61 9 -82 l3 -36 -97
-42 c-75 -32 -102 -40 -116 -32 -25 13 -61 -1 -69 -27 -8 -25 9 -58 34 -66 16
-5 41 -67 41 -104 0 -5 -27 -30 -59 -55 -41 -32 -69 -46 -90 -46 -60 0 -66
-71 -7 -95 17 -7 62 -47 100 -89 l68 -75 86 -3 87 -3 1 -55 c1 -64 15 -567 18
-652 2 -32 -1 -58 -6 -58 -18 0 -30 -47 -19 -69 10 -18 -3 -63 -85 -296 -89
-253 -99 -275 -120 -275 -13 0 -27 7 -32 16 -23 41 -101 4 -86 -41 12 -35 8
-78 -16 -153 -17 -57 -28 -75 -46 -82 -23 -9 -29 -24 -26 -63 2 -14 -110 -154
-147 -187 -4 -3 -30 -33 -60 -68 -37 -44 -60 -62 -77 -62 -42 0 -58 -56 -24
-87 18 -17 47 -120 65 -230 5 -35 4 -43 -14 -52 -11 -6 -27 -8 -36 -5 -36 14
-72 -55 -43 -84 19 -19 22 -211 4 -247 -13 -25 -13 -33 -2 -50 17 -26 59 -31
80 -10 14 14 36 16 161 11 113 -4 149 -8 161 -20 19 -19 38 -20 67 -4 16 9
226 12 827 14 443 0 828 4 855 7 28 4 79 9 115 13 106 10 123 12 175 24 92 20
95 26 95 143 0 129 -11 168 -57 206 l-36 29 21 34 c31 50 55 145 49 194 -8 78
-44 131 -177 263 -190 190 -221 243 -213 377 5 79 5 81 -22 102 -17 14 -42 22
-65 22 -35 0 -39 3 -55 43 -45 111 -110 338 -129 452 -3 17 -10 54 -16 84 -5
30 -13 79 -16 110 -3 31 -7 58 -9 61 -2 3 -6 46 -10 95 -4 50 -9 104 -11 120
-4 30 -17 327 -16 375 0 76 -10 70 110 70 134 0 171 10 215 59 58 64 60 146 8
220 -28 40 -79 61 -150 64 -34 1 -61 5 -61 8 0 3 11 16 25 29 87 81 29 230
-89 230 l-39 0 7 95 c7 102 26 204 49 271 52 146 111 222 264 342 28 23 54 51
58 63 10 32 -13 66 -55 83 -37 15 -168 40 -263 50 -30 4 -79 22 -130 50 -45
24 -109 54 -142 67 -33 12 -70 25 -81 30 l-22 8 24 48 c31 60 30 134 -1 202
-25 53 -86 109 -127 118 -17 3 -35 18 -47 39 -21 36 -46 43 -73 22z m47 -98
c4 -6 -7 -10 -25 -10 -30 0 -30 0 -15 -24 16 -24 16 -25 -15 -28 -29 -3 -30
-4 -16 -23 l16 -20 16 20 15 20 15 -20 c14 -19 13 -20 -41 -23 -39 -2 -55 -7
-55 -17 0 -23 22 -29 37 -10 13 18 13 18 28 -1 15 -18 15 -18 29 0 16 19 36
14 36 -10 0 -11 -14 -14 -60 -14 l-61 0 21 -22 c12 -13 16 -24 10 -26 -5 -2
-10 -11 -10 -20 0 -15 2 -15 10 -2 9 13 12 12 26 -5 14 -18 13 -20 -5 -23 -12
-2 -21 -8 -21 -13 0 -10 -34 -12 -77 -3 -27 5 -33 14 -58 85 -15 44 -26 81
-24 83 2 2 42 29 89 60 81 54 122 68 135 46z m19 -36 c9 -23 8 -24 -14 -24
-11 0 -20 2 -20 4 0 12 13 36 20 36 4 0 11 -7 14 -16z m-26 -154 c11 -18 10
-20 -13 -20 -27 0 -28 1 -19 24 8 21 17 20 32 -4z m-48 -159 c0 -56 -23 -92
-61 -98 -13 -2 -32 -13 -41 -24 -17 -20 -25 -21 -110 -16 -51 4 -120 6 -153 7
-36 0 -55 4 -50 9 6 5 73 46 150 90 134 77 143 81 203 81 l62 0 0 -49z m-245
-156 c28 -2 61 -4 75 -5 31 -2 -181 -49 -231 -51 -39 -1 -233 31 -226 38 2 2
17 5 33 8 92 13 119 18 122 20 3 3 113 -2 227 -10z m186 -58 c13 -2 46 -17 73
-35 54 -35 82 -42 168 -45 31 -1 60 -5 63 -9 9 -9 -103 -41 -147 -41 -55 0
-122 22 -159 52 l-33 28 -138 -35 c-156 -39 -168 -37 -168 29 0 22 3 39 8 39
18 0 256 51 260 55 3 3 15 -4 27 -15 12 -12 33 -22 46 -23z m-526 8 c22 -3 68
-10 103 -16 61 -11 62 -12 62 -43 0 -40 -27 -67 -61 -61 -13 3 -40 8 -59 11
-140 24 -256 47 -263 53 -4 4 20 23 54 43 51 31 65 35 92 28 18 -5 50 -11 72
-15z m1035 -45 c43 -43 100 -62 186 -63 46 -1 81 -4 78 -8 -10 -16 -109 -41
-163 -41 -59 0 -135 28 -165 61 -14 15 -14 22 1 69 l17 53 14 -26 c7 -15 22
-35 32 -45z m-1138 -65 c57 -8 121 -17 143 -19 67 -7 94 -17 100 -36 9 -29
-45 -219 -64 -222 -8 -2 -36 17 -61 42 -172 174 -243 250 -233 250 7 0 59 -7
115 -15z m285 -81 c-3 -3 21 -28 54 -55 32 -28 59 -52 59 -55 0 -3 -25 16 -55
41 -59 51 -61 50 -45 -7 9 -31 34 -56 142 -145 73 -59 139 -113 147 -120 9 -7
11 -13 6 -13 -6 0 -24 12 -41 28 -16 15 -46 39 -66 54 -20 15 -42 33 -50 40
-28 27 -116 98 -121 98 -3 0 -1 -16 5 -36 11 -41 25 -54 247 -231 2 -2 2 -6
-2 -9 -6 -6 -130 89 -195 150 l-33 31 5 -29 c8 -44 30 -70 115 -139 44 -36 77
-67 74 -71 -4 -3 8 -6 26 -6 28 0 31 2 21 19 -14 28 -13 31 15 31 22 0 24 -3
15 -19 -5 -11 -10 -22 -10 -25 0 -3 41 -6 90 -6 89 0 90 0 80 -21 -13 -24 -10
-29 19 -32 15 -1 20 -6 15 -17 -3 -8 -8 -20 -11 -27 -3 -8 3 -11 16 -8 26 5
37 -11 20 -31 -11 -14 -15 -13 -30 7 l-17 22 -11 -22 c-10 -18 -15 -20 -27
-10 -8 6 -14 17 -14 23 0 6 -9 22 -20 36 -20 24 -21 25 -35 6 -21 -28 -19 -34
10 -31 31 4 37 -5 19 -29 -13 -18 -14 -18 -32 4 l-19 24 -13 -24 -12 -23 -18
23 -17 23 -16 -24 c-9 -12 -18 -21 -20 -18 -2 2 -13 20 -25 40 -18 30 -59 69
-134 128 -16 12 -18 11 -18 -5 0 -9 20 -36 45 -60 25 -23 45 -46 45 -51 0 -6
10 -10 22 -9 25 1 32 -13 18 -34 -9 -13 -13 -12 -28 6 -9 11 -32 31 -50 43
l-33 23 6 -29 c5 -22 0 -18 -25 22 -94 150 -157 266 -149 271 14 8 11 52 -4
66 -12 10 -10 27 10 103 32 118 31 115 44 115 7 0 10 -3 6 -6z m959 -92 c-47
-84 -129 -326 -142 -421 -6 -50 -7 -51 -40 -51 -22 0 -34 5 -34 14 0 31 53
217 85 301 43 110 68 153 98 164 23 9 40 5 33 -7z m-651 -177 c33 -31 34 -32
5 -9 -76 60 -190 156 -190 161 0 5 130 -101 185 -152z m85 -60 c0 -5 -5 -17
-10 -25 -9 -13 -12 -12 -25 4 -8 10 -13 22 -10 25 6 11 45 7 45 -4z m-440 -17
c5 -13 21 -41 35 -63 13 -22 34 -57 45 -77 11 -21 34 -59 50 -85 17 -26 30
-49 30 -52 0 -8 -135 -5 -147 2 -9 6 -15 52 -29 235 -5 65 0 78 16 40z m408
-32 c3 -3 -1 -12 -8 -21 -10 -12 -16 -13 -26 -4 -22 18 -17 38 7 34 12 -3 24
-7 27 -9z m60 -16 c-7 -11 -15 -20 -18 -20 -3 0 -11 9 -18 20 -11 18 -10 20
18 20 28 0 29 -2 18 -20z m-28 -34 c0 -13 -13 -36 -21 -36 -4 0 -13 9 -19 20
-9 18 -8 20 15 20 14 0 25 -2 25 -4z m60 -16 c-6 -11 -14 -20 -18 -20 -4 0
-13 9 -20 20 -11 18 -10 20 18 20 28 0 30 -2 20 -20z m-330 -213 c0 -2 -23
-21 -52 -42 l-52 -40 -118 -2 c-65 -1 -118 2 -118 6 0 4 37 23 83 42 71 31 94
36 170 37 48 1 87 1 87 -1z m80 -1 c0 -12 -104 -78 -125 -81 -30 -3 -30 -2 38
46 44 33 87 50 87 35z m80 -1 c0 -10 -112 -86 -122 -83 -13 5 91 88 110 88 6
0 12 -2 12 -5z m70 -15 c-56 -44 -101 -73 -106 -67 -8 7 98 87 116 87 10 0 7
-7 -10 -20z m100 15 c0 -9 -111 -88 -116 -82 -3 3 19 23 48 46 49 38 68 48 68
36z m90 1 c0 -3 -13 -14 -30 -26 -16 -12 -30 -18 -30 -13 0 5 12 16 28 25 30
19 32 20 32 14z m-86 -71 c-10 -8 -23 -14 -29 -14 -5 -1 1 8 15 19 14 10 27
17 29 14 3 -2 -4 -11 -15 -19z m551 13 c14 -13 -69 -21 -174 -15 -150 9 -150
9 -111 16 47 8 277 8 285 -1z m-1023 -57 c10 -1 43 -109 36 -116 -7 -7 -258
-9 -264 -2 -10 10 -31 96 -25 106 8 12 174 20 253 12z m48 -158 c-1 -19 -106
-83 -136 -83 -18 0 -34 -5 -36 -10 -2 -7 -46 -10 -121 -8 l-118 3 67 53 66 52
139 0 c76 0 139 -3 139 -7z m60 -23 c-73 -63 -128 -94 -140 -78 -9 11 124 108
150 108 24 0 24 -1 -10 -30z m115 21 c-40 -39 -132 -101 -149 -101 -19 1 -19
2 -5 13 9 7 31 24 50 39 64 51 74 57 94 58 12 0 15 -3 10 -9z m95 5 c0 -12
-132 -107 -145 -104 -10 2 10 22 52 55 59 46 93 63 93 49z m88 -9 c-36 -36
-122 -97 -135 -97 -8 0 12 21 46 46 33 25 63 50 66 55 4 5 13 9 21 9 13 0 13
-2 2 -13z m96 -5 c-36 -33 -117 -92 -126 -92 -12 0 124 109 136 110 6 0 1 -8
-10 -18z m99 -5 c-55 -45 -118 -90 -103 -74 24 25 114 96 123 97 5 0 -4 -10
-20 -23z m565 -51 c15 -16 -23 -21 -166 -22 -165 -1 -232 4 -232 15 0 4 44 8
97 10 54 1 99 4 100 5 5 5 195 -3 201 -8z m-1294 -79 c-3 -20 -90 -156 -100
-157 -7 0 -27 19 -47 43 -19 23 -49 57 -66 76 -17 19 -28 37 -26 41 7 11 240
7 239 -3z m53 -28 c-11 -17 -27 -26 -27 -15 0 2 -2 10 -5 18 -3 8 3 13 19 14
22 2 23 0 13 -17z m33 -48 c-14 -28 -13 -31 15 -31 28 0 29 -3 14 -32 -11 -20
-11 -20 -29 8 l-19 28 -12 -28 -13 -27 -18 23 -19 23 -16 -23 c-15 -21 -16
-21 -29 -5 -21 29 -17 32 46 35 59 3 61 4 45 23 -14 19 -16 19 -29 3 -17 -23
-23 -23 -36 2 -10 19 -8 20 50 20 57 0 60 -1 50 -19z m220 -121 c0 -5 4 -10 9
-10 4 0 41 -18 82 -41 41 -23 108 -59 149 -81 77 -42 112 -65 75 -52 -11 5
-54 27 -95 49 -171 95 -208 115 -214 115 -3 0 -6 -11 -6 -24 0 -25 27 -43 255
-166 67 -36 88 -51 81 -58 -3 -2 -20 5 -38 16 -18 11 -62 36 -98 55 -36 19
-90 48 -122 66 -67 37 -74 38 -74 8 0 -20 23 -36 154 -108 166 -90 190 -105
182 -112 -3 -3 -43 16 -90 42 -265 147 -240 135 -240 109 0 -17 10 -29 33 -41
42 -21 178 -95 250 -136 52 -30 72 -51 48 -51 -5 0 -79 38 -165 85 -85 47
-157 85 -160 85 -3 0 -6 -9 -6 -19 0 -14 39 -41 156 -105 86 -47 161 -86 165
-86 5 0 13 -9 19 -20 13 -24 -5 -27 -35 -7 -11 8 -54 32 -95 54 -107 58 -152
85 -172 105 -9 9 -25 15 -35 13 -14 -3 -39 28 -108 131 -49 74 -98 148 -107
164 l-17 28 110 1 c68 1 109 -3 109 -9z m135 -8 c-3 -3 -11 0 -18 7 -9 10 -8
11 6 5 10 -3 15 -9 12 -12z m55 -28 c0 -2 -9 0 -20 6 -11 6 -20 13 -20 16 0 2
9 0 20 -6 11 -6 20 -13 20 -16z m-308 -142 c82 -122 91 -141 93 -186 2 -43 -4
-64 -40 -131 -23 -44 -62 -117 -85 -162 -24 -46 -47 -83 -51 -83 -3 0 -6 12
-6 28 0 32 -14 553 -17 629 -1 29 1 50 6 47 5 -3 50 -67 100 -142z m360 118
c18 -11 29 -20 23 -20 -5 0 -23 9 -40 20 -39 26 -25 26 17 0z m359 -52 c2 -84
16 -311 24 -378 2 -19 6 -62 10 -95 8 -84 24 -200 37 -264 5 -30 11 -64 13
-75 10 -73 61 -267 102 -384 14 -40 23 -76 20 -79 -9 -9 -104 -11 -117 -3 -13
8 -63 239 -75 345 -3 32 -8 62 -10 65 -1 3 -6 32 -10 65 -32 284 -33 290 -50
658 -6 118 -5 141 9 162 26 40 46 32 47 -17z m-502 -297 c9 -6 10 -10 2 -16
-9 -5 -9 -10 0 -21 8 -10 15 -11 24 -4 17 14 86 -15 79 -34 -8 -20 14 -30 31
-16 9 7 15 8 15 2 0 -5 13 -12 29 -15 23 -5 28 -10 24 -25 -7 -26 12 -36 31
-16 16 16 21 8 10 -19 -3 -9 -13 -13 -26 -9 -18 4 -20 2 -16 -21 3 -16 0 -31
-8 -38 -10 -8 -14 -8 -14 0 0 16 -27 13 -33 -4 -7 -16 8 -29 23 -20 7 4 9
-112 8 -342 l-3 -348 -2 338 c-2 185 -7 337 -12 337 -27 0 -34 -68 -35 -337
-1 -249 1 -279 17 -299 9 -12 17 -30 17 -39 0 -9 4 -14 8 -11 16 9 35 -12 28
-30 -7 -18 -9 -17 -25 5 l-18 24 -18 -24 c-9 -13 -19 -19 -21 -13 -3 6 -11 20
-19 30 -12 16 -14 17 -15 3 0 -9 -6 -22 -14 -28 -12 -10 -17 -8 -26 8 -7 14
-7 21 0 22 25 3 29 4 35 11 3 3 -5 24 -19 47 -14 22 -26 43 -26 46 0 3 14 5
30 5 30 0 30 0 14 -25 -17 -26 -16 -27 16 -27 30 0 32 1 25 13 -9 13 -6 534 2
556 4 11 2 14 -8 11 -8 -3 -14 -13 -14 -24 -1 -32 -15 -47 -30 -34 -8 7 -19 9
-24 6 -14 -9 -2 -36 15 -36 12 0 14 -37 14 -206 0 -127 -4 -203 -10 -199 -10
6 -73 -86 -85 -125 -7 -21 -5 -22 19 -16 29 7 33 -1 13 -28 -13 -18 -15 -17
-34 10 -38 55 -44 71 -25 71 40 0 43 2 32 22 -14 28 -13 31 15 31 28 0 32 12
10 30 -13 11 -18 10 -30 -6 -13 -19 -14 -19 -29 1 -14 19 -13 20 42 25 l57 5
1 183 c0 171 -5 216 -20 157 -4 -14 -10 -24 -14 -24 -20 3 -32 -3 -32 -16 0
-18 16 -20 23 -2 3 6 6 -54 6 -135 1 -81 -3 -149 -8 -152 -12 -8 -37 24 -25
32 5 4 8 37 7 75 0 37 -2 85 -2 108 -1 22 -5 38 -10 34 -5 -3 -13 -1 -16 5 -5
8 -11 7 -22 -1 -13 -12 -13 -14 1 -25 12 -8 18 -32 20 -80 2 -38 7 -80 11 -94
6 -24 6 -24 -9 -6 -9 11 -16 25 -17 30 0 6 -2 24 -3 40 -1 15 -8 33 -17 40 -8
6 -13 18 -11 28 2 9 -2 19 -7 23 -7 4 -11 -4 -11 -19 0 -40 -22 -23 -95 73
-59 76 -67 93 -70 136 -2 37 3 60 20 90 12 22 53 99 91 170 59 113 69 127 75
105 6 -24 7 -24 14 -5 14 34 44 45 74 26z m246 -380 c3 -5 2 -12 -3 -15 -5 -3
-9 1 -9 9 0 17 3 19 12 6z m5 -61 c0 -5 -5 -10 -11 -10 -5 0 -7 5 -4 10 3 6 8
10 11 10 2 0 4 -4 4 -10z m-474 -87 c57 -73 68 -93 69 -128 l2 -41 -155 -119
c-85 -66 -161 -126 -168 -134 -8 -7 -17 -12 -19 -10 -4 5 165 487 178 507 5 6
12 12 17 12 4 0 39 -39 76 -87z m467 -48 c4 -8 3 -16 -1 -19 -4 -3 -9 4 -9 15
-2 23 3 25 10 4z m2 -44 c3 -5 2 -12 -3 -15 -5 -3 -9 1 -9 9 0 17 3 19 12 6z
m-323 -89 c-7 -2 -12 -10 -12 -18 0 -19 -16 -18 -24 2 -7 18 -26 10 -26 -11 0
-10 16 -15 50 -17 49 -3 50 -4 36 -23 -15 -20 -15 -20 -29 0 -13 16 -17 17
-31 6 -23 -19 -20 -31 9 -31 27 0 30 -6 15 -30 -7 -12 -3 -16 21 -20 28 -5 29
-6 15 -25 -16 -20 -16 -20 -33 2 l-18 23 -29 -52 c-27 -47 -30 -50 -42 -33
-17 23 -18 36 -1 30 6 -3 19 -1 27 5 12 7 12 12 2 22 -19 19 -14 28 13 28 28
0 29 3 14 32 -11 20 -11 20 -28 -6 -10 -14 -21 -23 -26 -19 -4 5 -5 2 -1 -5 4
-6 -1 -24 -12 -40 -10 -15 -24 -41 -31 -59 -16 -39 -30 -43 -170 -43 l-113 0
183 143 c154 120 189 143 218 143 19 0 29 -2 23 -4z m323 -151 c3 -5 2 -12 -3
-15 -5 -3 -9 1 -9 9 0 17 3 19 12 6z m-325 -56 c0 -5 -5 -17 -10 -25 -8 -13
-11 -12 -24 5 -8 11 -12 23 -10 27 7 11 44 5 44 -7z m128 6 c1 -1 -2 -11 -9
-22 -10 -19 -13 -20 -26 -6 -25 24 -6 39 35 28z m202 -11 c0 -5 -5 -10 -11
-10 -5 0 -7 5 -4 10 3 6 8 10 11 10 2 0 4 -4 4 -10z m-431 -61 c-8 -16 -13
-18 -25 -8 -19 15 -18 27 4 32 26 6 33 -2 21 -24z m66 21 c4 -6 1 -18 -6 -26
-12 -14 -14 -14 -26 2 -10 14 -10 19 0 26 16 10 25 10 32 -2z m57 -24 c-1 -14
2 -26 8 -26 7 0 7 -6 1 -17 -5 -10 -27 -67 -48 -126 -21 -60 -45 -113 -54
-118 -12 -6 -3 29 32 127 39 107 47 139 39 155 -12 22 -4 42 13 36 7 -2 11
-16 9 -31z m-125 -38 c-2 -7 -32 -89 -67 -183 -34 -93 -69 -176 -76 -184 -24
-26 -28 -2 -10 52 49 140 109 292 117 295 5 2 9 10 9 18 0 8 7 14 16 14 9 0
14 -6 11 -12z m59 -25 c-80 -221 -119 -304 -133 -289 -2 1 13 47 33 102 20 54
46 127 57 162 15 44 26 62 39 62 16 0 16 -3 4 -37z m128 -29 c-39 -105 -56
-140 -61 -128 -2 7 6 38 17 70 12 33 27 74 33 92 6 17 16 32 23 32 10 0 6 -18
-12 -66z m70 9 c-9 -26 -23 -55 -31 -63 -7 -8 -2 14 12 50 14 35 25 66 25 69
0 2 3 2 6 -2 3 -3 -2 -27 -12 -54z m91 26 c-9 -17 -19 -29 -21 -26 -8 7 15 57
26 57 6 0 4 -13 -5 -31z m-443 10 c21 -12 23 -40 5 -77 -8 -15 -33 -83 -57
-152 -24 -69 -45 -127 -47 -129 -7 -9 -34 27 -114 159 -99 163 -112 187 -105
199 8 13 295 12 318 0z m1204 -24 c-24 -18 -106 -28 -226 -28 -131 0 -251 6
-255 13 -2 3 38 6 88 7 124 2 331 13 336 19 2 2 20 4 40 4 33 -1 35 -2 17 -15z
m-1442 -169 c58 -95 106 -175 106 -178 0 -9 -255 91 -258 101 -1 4 -9 16 -16
26 -11 15 -9 32 15 107 33 106 37 118 43 118 2 0 52 -78 110 -174z m1362 -65
c7 -1 27 -25 45 -53 41 -64 108 -146 179 -217 29 -29 48 -57 44 -61 -5 -5 -29
-11 -54 -14 -178 -20 -165 -20 -189 5 -55 59 -181 277 -181 314 0 18 66 34
125 28 11 -1 25 -2 31 -2z m-1339 -106 c39 -15 74 -33 77 -41 7 -18 -174 -234
-193 -231 -13 2 -42 88 -54 157 -3 14 -12 53 -21 88 -9 35 -14 72 -11 82 7 21
-5 24 202 -55z m-222 23 c3 -13 21 -85 40 -162 38 -154 36 -167 -26 -161 -19
2 -81 6 -139 10 -141 10 -144 10 -158 19 -14 9 -8 22 33 68 17 18 72 81 124
141 51 59 100 107 107 107 7 0 16 -10 19 -22z m1184 -38 c-7 -5 -17 -6 -21 -4
-5 3 -12 -5 -16 -17 -7 -19 -10 -20 -15 -6 -9 25 -41 22 -34 -3 3 -11 1 -20
-4 -20 -5 0 -10 -10 -10 -22 -1 -17 -2 -19 -6 -5 -2 9 -10 17 -18 17 -7 0 -16
-8 -20 -17 -6 -17 -7 -17 -16 0 -8 14 -14 15 -24 7 -8 -6 -12 -17 -9 -25 7
-18 -55 -48 -72 -34 -22 18 -26 -8 -24 -172 0 -110 -2 -159 -10 -154 -6 4 -10
58 -10 141 0 124 -2 135 -17 132 -16 -3 -18 -18 -21 -126 -1 -70 -7 -122 -12
-122 -12 0 -12 2 -15 115 -1 50 3 96 8 103 7 9 6 17 -2 25 -9 9 -14 9 -20 -2
-5 -8 -7 -20 -4 -28 3 -7 0 -13 -6 -13 -7 0 -11 -30 -11 -86 0 -64 -3 -85 -12
-82 -8 3 -14 28 -16 68 -3 65 -20 97 -47 86 -19 -7 -19 -25 -1 -32 9 -4 14
-21 14 -50 0 -37 -3 -45 -16 -42 -9 2 -17 13 -18 25 -2 42 -12 55 -33 43 -11
-5 -22 -6 -25 -1 -11 17 -51 6 -61 -16 -5 -13 -14 -22 -20 -22 -5 1 -23 1 -38
0 -23 -1 -27 -5 -22 -20 4 -13 0 -20 -15 -24 -21 -5 -28 7 -10 18 15 9 12 28
-3 22 -8 -3 -20 -1 -28 5 -10 7 -5 8 19 5 17 -2 32 0 32 5 0 8 -12 11 -45 11
-34 0 -36 -4 -16 -36 21 -35 20 -50 -5 -40 -8 3 -17 -2 -20 -11 -3 -9 -10 -16
-15 -16 -4 0 1 16 12 35 19 32 19 35 4 41 -23 9 -42 -11 -26 -29 9 -12 8 -16
-5 -21 -24 -9 -40 9 -25 28 13 16 -1 32 -20 21 -6 -4 -13 2 -16 14 -6 24 -23
28 -23 6 0 -8 4 -15 9 -15 13 0 22 -43 12 -53 -16 -16 -32 2 -21 24 9 15 7 21
-5 25 -32 13 -39 -12 -15 -53 13 -21 25 -40 27 -42 2 -3 11 6 20 18 14 21 17
22 25 6 13 -23 6 -27 -46 -28 -34 -1 -46 -6 -50 -19 -5 -23 -24 -23 -22 0 1
11 -5 16 -16 14 -20 -3 -24 18 -7 35 8 8 5 13 -10 18 -32 10 -45 -4 -25 -26
15 -17 15 -19 1 -19 -21 0 -26 30 -9 57 15 25 7 47 -14 39 -16 -6 -18 3 -5 23
9 14 31 7 31 -10 0 -6 11 -25 25 -42 13 -18 28 -43 33 -56 l8 -23 17 26 c10
14 13 27 7 27 -5 1 -15 2 -22 3 -17 2 -21 22 -5 37 22 23 28 49 12 49 -8 0
-15 -6 -15 -14 0 -14 -29 -31 -37 -22 -3 2 -2 14 2 25 8 27 65 37 118 21 32
-9 49 -9 85 1 35 10 54 10 93 0 44 -12 99 -7 85 6 -3 4 -1 12 5 19 9 11 7 15
-5 20 -9 4 -20 4 -23 0 -11 -11 -31 14 -26 34 4 13 -1 19 -18 22 -12 2 -27 12
-33 23 -17 30 -17 30 -24 19 -4 -5 -30 -15 -58 -22 -39 -10 -57 -10 -80 -1
-16 6 -41 11 -57 11 -25 -1 -26 1 -11 15 13 14 21 14 48 5 42 -16 79 -15 119
1 18 8 37 14 42 15 6 0 11 8 13 16 4 20 -22 21 -38 1 -6 -7 -30 -17 -53 -20
-49 -7 -106 10 -90 26 7 7 17 8 29 1 28 -14 101 -1 90 17 -4 5 0 11 6 14 10 3
10 7 1 17 -13 14 -33 5 -33 -16 0 -15 -37 -19 -59 -5 -17 11 3 25 24 17 8 -3
27 6 41 19 18 17 34 23 49 19 13 -3 26 -1 30 6 5 8 10 8 21 -1 11 -9 17 -9 28
0 10 8 16 9 21 1 4 -7 12 -7 25 0 10 5 26 7 34 4 9 -4 23 -1 30 5 11 9 15 9
19 -1 3 -10 9 -11 25 -1 13 8 23 9 27 3 4 -6 13 -7 23 -2 9 5 38 7 65 6 26 -2
47 1 47 7 0 5 9 4 20 -3 17 -11 22 -10 30 1 7 12 11 12 23 2 10 -8 17 -8 21
-2 4 6 20 8 36 4 22 -4 30 -2 30 8 0 11 2 11 10 -1 7 -12 13 -13 28 -3 11 6
24 8 33 3 8 -5 19 -4 26 2 9 7 17 7 27 -1 10 -8 16 -9 21 -1 3 5 17 7 30 4 13
-3 26 0 31 7 6 11 9 10 12 0 2 -7 -2 -17 -9 -21z m-165 -300 c-1 -110 -4 -203
-8 -207 -3 -3 -6 87 -6 200 0 114 3 207 8 207 4 0 7 -90 6 -200z m63 163 c-3
-10 -5 -4 -5 12 0 17 2 24 5 18 2 -7 2 -21 0 -30z m-124 -126 c-3 -221 -4
-233 -12 -212 -5 15 -7 318 -2 333 1 1 4 2 9 2 4 0 6 -55 5 -123z m-646 52
c16 -6 29 -10 30 -9 60 27 111 30 141 7 23 -18 12 -25 -23 -14 -26 7 -45 7
-75 -2 -32 -9 -53 -10 -95 0 -40 9 -61 9 -86 0 -34 -12 -45 -9 -35 8 17 27 87
32 143 10z m770 -41 c-3 -7 -5 -2 -5 12 0 14 2 19 5 13 2 -7 2 -19 0 -25z
m-783 -2 c34 -12 46 -11 82 1 39 13 49 13 98 -1 55 -16 83 -36 50 -36 -9 0
-34 5 -55 12 -30 8 -51 8 -92 -1 -42 -10 -60 -10 -97 2 -38 11 -50 11 -79 0
-36 -15 -78 -14 -73 2 1 6 14 11 27 12 14 1 33 6 42 12 24 14 51 13 97 -3z
m783 -38 c-3 -8 -6 -5 -6 6 -1 11 2 17 5 13 3 -3 4 -12 1 -19z m-1167 -3 c161
-9 174 -19 206 -148 9 -40 -12 -76 -50 -81 -17 -3 -67 -10 -111 -17 -44 -6
-87 -13 -96 -14 -8 -2 -40 -6 -71 -9 l-55 -6 -21 103 c-12 56 -24 112 -27 125
-7 39 23 64 70 58 22 -3 92 -8 155 -11z m2079 -4 c2 -1 -2 -7 -8 -15 -13 -15
-76 -32 -151 -40 -74 -8 -377 -10 -369 -2 2 2 40 7 84 11 44 3 87 8 95 10 8 2
44 7 80 10 35 4 96 13 135 20 57 11 106 13 134 6z m-1339 -26 c0 -8 -4 -15
-10 -15 -5 0 -10 7 -10 15 0 8 5 15 10 15 6 0 10 -7 10 -15z m427 -7 c-3 -8
-6 -5 -6 6 -1 11 2 17 5 13 3 -3 4 -12 1 -19z m0 -80 c-3 -7 -5 -2 -5 12 0 14
2 19 5 13 2 -7 2 -19 0 -25z m-550 7 c9 -24 -1 -27 -15 -5 -8 13 -8 20 -2 20
6 0 13 -7 17 -15z m-49 -30 c14 -30 15 -35 5 -35 -5 0 -16 14 -25 30 -13 22
-14 30 -4 30 7 0 18 -11 24 -25z m-50 -35 c24 -43 26 -50 14 -50 -8 0 -52 71
-52 84 0 17 17 2 38 -34z m649 18 c-3 -8 -6 -5 -6 6 -1 11 2 17 5 13 3 -3 4
-12 1 -19z m-899 -33 c-11 -11 -37 7 -31 22 5 13 8 13 21 -1 9 -9 13 -18 10
-21z m232 -77 c0 -17 -11 -6 -44 44 -19 28 -32 56 -29 61 5 9 72 -88 73 -105z
m667 77 c0 -8 -4 -12 -9 -9 -5 3 -6 10 -3 15 9 13 12 11 12 -6z m-752 -47 c39
-68 39 -68 26 -68 -7 0 -16 10 -21 23 -6 12 -21 39 -35 60 -16 23 -21 37 -13
37 7 0 27 -24 43 -52z m-53 -28 c20 -33 32 -60 25 -60 -7 0 -29 27 -49 60 -20
33 -32 60 -25 60 7 0 29 -27 49 -60z m805 28 c-3 -8 -6 -5 -6 6 -1 11 2 17 5
13 3 -3 4 -12 1 -19z m-835 -67 l33 -21 -55 0 c-30 -1 -163 -4 -295 -7 -239
-5 -240 -5 -222 15 17 19 41 25 142 37 22 3 65 10 95 15 104 19 167 23 174 11
8 -12 67 -15 65 -3 -4 23 4 24 16 1 8 -15 29 -36 47 -48z m474 -94 c133 -143
145 -158 142 -168 -3 -10 -192 185 -211 217 -19 34 15 9 69 -49z m129 -28 c99
-111 93 -121 -9 -14 -47 50 -85 93 -86 97 -1 17 30 -9 95 -83z m81 24 c34 -38
60 -70 58 -72 -2 -2 -18 11 -35 30 -18 19 -48 51 -67 72 -20 20 -32 37 -28 37
5 0 37 -30 72 -67z m74 32 c19 -19 32 -35 29 -35 -3 0 -20 16 -39 35 -19 19
-32 35 -29 35 3 0 20 -16 39 -35z m1040 26 c0 -14 -52 -31 -124 -40 -74 -8
-334 -15 -326 -8 3 2 41 7 85 11 129 10 186 17 260 29 94 16 105 17 105 8z
m-1710 -16 c0 -7 -58 -68 -129 -135 -154 -147 -164 -150 -251 -86 -30 23 -57
43 -60 46 -4 4 -181 144 -199 157 -13 10 27 13 225 19 120 3 220 7 221 7 1 1
44 2 97 3 70 1 96 -2 96 -11z m149 -4 c9 -10 62 -68 119 -128 105 -114 142
-157 142 -167 0 -14 -30 -5 -42 13 -11 16 -192 213 -250 273 -22 22 -22 28 -2
28 9 0 24 -8 33 -19z m156 -58 c39 -42 91 -99 117 -127 46 -49 56 -66 41 -66
-13 0 -26 12 -118 115 -50 54 -100 109 -112 121 -26 24 -29 34 -10 34 7 0 44
-34 82 -77z m-163 -45 c46 -50 104 -114 130 -142 44 -47 46 -51 26 -54 -12 -2
-27 3 -33 11 -6 8 -58 65 -115 127 -130 139 -134 145 -110 147 12 1 50 -32
102 -89z m-647 -39 c144 -113 165 -131 165 -140 0 -3 -65 -4 -145 -2 -190 6
-191 7 -198 146 -4 83 -2 99 12 107 10 5 21 4 31 -4 8 -7 69 -55 135 -107z
m547 34 c29 -31 81 -86 115 -122 55 -59 59 -66 40 -70 -30 -4 -241 217 -225
237 6 6 12 12 14 12 2 0 27 -25 56 -57z m24 -135 c24 -26 44 -49 44 -53 0 -10
-47 0 -64 14 -9 8 -44 45 -77 83 -53 59 -59 70 -48 84 11 14 18 10 57 -33 25
-26 64 -69 88 -95z m-68 -40 c11 -14 9 -15 -20 -13 -24 2 -44 16 -80 54 -54
58 -53 56 -35 76 10 12 21 5 67 -43 30 -32 61 -65 68 -74z m-133 35 l34 -38
-31 -3 c-42 -5 -88 38 -68 62 19 23 28 20 65 -21z m-75 -28 c10 -13 9 -15 -9
-15 -12 0 -21 6 -21 15 0 8 4 15 9 15 5 0 14 -7 21 -15z"/>
<path d="M2224 3820 c4 -23 18 -43 44 -64 20 -16 53 -46 72 -65 24 -24 42 -35
57 -33 34 5 17 29 -79 108 -46 38 -87 73 -91 79 -5 5 -6 -6 -3 -25z"/>
<path d="M2426 3666 c-33 -56 -33 -60 -1 -62 15 0 24 4 21 10 -19 48 -19 49
-4 44 8 -4 21 -3 28 2 10 6 10 12 -2 29 -15 22 -16 21 -42 -23z"/>
<path d="M2487 3661 c-33 -50 -33 -57 -2 -57 28 0 30 7 14 38 -10 19 -9 20 15
16 23 -5 27 -2 24 15 -5 34 -24 30 -51 -12z"/>
<path d="M2562 3680 c-11 -18 -10 -20 10 -21 13 -1 27 -1 31 0 4 1 3 -8 -3
-19 -13 -25 -6 -39 18 -35 20 3 18 18 -10 63 -23 37 -29 39 -46 12z"/>
<path d="M2357 2485 c-7 -15 1 -25 20 -25 7 0 13 6 13 14 0 19 -27 28 -33 11z"/>
<path d="M2320 2430 c0 -19 3 -21 12 -12 9 9 9 15 0 24 -9 9 -12 7 -12 -12z"/>
<path d="M2360 2435 c-6 -8 -9 -19 -6 -24 9 -14 36 -2 36 14 0 21 -16 26 -30
10z"/>
<path d="M2407 2433 c-8 -7 11 -33 24 -33 5 0 9 9 9 20 0 19 -20 27 -33 13z"/>
<path d="M2456 2431 c-3 -5 1 -15 10 -22 13 -10 17 -10 24 1 5 8 6 18 4 22 -7
11 -31 10 -38 -1z"/>
<path d="M2316 2374 c-4 -10 -1 -14 6 -12 15 5 23 28 10 28 -5 0 -13 -7 -16
-16z"/>
<path d="M2350 2376 c0 -15 24 -28 34 -19 13 14 5 33 -14 33 -11 0 -20 -6 -20
-14z"/>
<path d="M2404 2379 c-10 -17 13 -36 27 -22 12 12 4 33 -11 33 -5 0 -12 -5
-16 -11z"/>
<path d="M2461 2381 c-16 -10 -6 -31 14 -31 14 0 27 24 18 34 -8 8 -15 7 -32
-3z"/>
<path d="M2516 2383 c-11 -12 -6 -33 8 -33 19 0 28 27 11 33 -7 3 -16 3 -19 0z"/>
<path d="M2560 2366 c0 -8 4 -17 9 -20 11 -7 33 18 24 27 -12 12 -33 7 -33 -7z"/>
<path d="M2315 2329 c-10 -15 3 -25 16 -12 7 7 7 13 1 17 -6 3 -14 1 -17 -5z"/>
<path d="M2350 2326 c0 -21 21 -31 30 -15 5 7 6 17 4 21 -9 14 -34 9 -34 -6z"/>
<path d="M2407 2334 c-14 -14 -7 -35 11 -32 9 2 17 10 17 17 0 16 -18 25 -28
15z"/>
<path d="M2455 2330 c-4 -6 -3 -14 0 -20 9 -15 35 -12 35 4 0 17 -27 29 -35
16z"/>
<path d="M2511 2326 c-12 -14 -5 -26 16 -26 15 0 18 26 4 34 -5 3 -14 0 -20
-8z"/>
<path d="M2556 2321 c-3 -5 0 -14 8 -20 10 -8 16 -8 25 2 6 8 8 17 4 20 -9 10
-31 9 -37 -2z"/>
<path d="M2313 2269 c-2 -17 1 -18 12 -9 8 7 12 16 9 21 -9 16 -20 10 -21 -12z"/>
<path d="M2350 2270 c0 -11 6 -20 13 -20 19 0 27 10 20 26 -8 21 -33 17 -33
-6z"/>
<path d="M2413 2283 c-18 -6 -16 -33 1 -33 8 0 17 4 20 8 7 12 -7 30 -21 25z"/>
<path d="M2463 2283 c-21 -7 -15 -33 7 -33 11 0 20 6 20 14 0 18 -11 25 -27
19z"/>
<path d="M2509 2274 c-10 -13 -10 -17 1 -24 17 -10 30 -4 30 15 0 22 -16 26
-31 9z"/>
<path d="M2310 2221 c0 -12 5 -21 10 -21 6 0 10 6 10 14 0 8 -4 18 -10 21 -5
3 -10 -3 -10 -14z"/>
<path d="M2353 2233 c-7 -2 -9 -11 -6 -19 6 -16 29 -19 37 -5 8 12 -16 30 -31
24z"/>
<path d="M2404 2226 c-4 -10 -2 -22 4 -28 8 -8 13 -7 18 6 4 10 2 22 -4 28 -8
8 -13 7 -18 -6z"/>
<path d="M2450 2216 c0 -21 21 -31 30 -15 5 7 6 17 4 21 -9 14 -34 9 -34 -6z"/>
<path d="M2502 2213 c4 -21 33 -25 33 -3 0 8 -8 16 -18 18 -14 3 -18 -1 -15
-15z"/>
<path d="M2310 2171 c0 -12 5 -21 10 -21 6 0 10 6 10 14 0 8 -4 18 -10 21 -5
3 -10 -3 -10 -14z"/>
<path d="M2352 2178 c-14 -14 -4 -38 14 -31 15 6 19 29 6 37 -5 3 -14 0 -20
-6z"/>
<path d="M2394 2169 c-7 -12 15 -31 28 -23 4 3 8 12 8 20 0 17 -26 19 -36 3z"/>
<path d="M2450 2166 c0 -21 21 -31 30 -15 5 7 6 17 4 21 -9 14 -34 9 -34 -6z"/>
<path d="M2310 2116 c0 -9 5 -16 10 -16 6 0 10 4 10 9 0 6 -4 13 -10 16 -5 3
-10 -1 -10 -9z"/>
<path d="M2344 2119 c-3 -6 -2 -15 4 -21 13 -13 32 -2 32 18 0 16 -26 19 -36
3z"/>
<path d="M2397 2115 c-7 -16 8 -29 23 -20 15 9 12 35 -4 35 -8 0 -16 -7 -19
-15z"/>
<path d="M2307 2060 c3 -11 9 -17 14 -15 10 7 1 35 -11 35 -5 0 -6 -9 -3 -20z"/>
<path d="M2342 2063 c4 -21 33 -25 33 -3 0 8 -8 16 -18 18 -14 3 -18 -1 -15
-15z"/>
<path d="M2394 2069 c-10 -17 13 -36 27 -22 12 12 4 33 -11 33 -5 0 -12 -5
-16 -11z"/>
<path d="M2303 2010 c1 -11 5 -20 9 -20 11 0 10 28 -1 35 -6 3 -9 -4 -8 -15z"/>
<path d="M2340 2015 c-10 -12 -9 -16 5 -21 17 -7 38 13 29 28 -8 12 -20 10
-34 -7z"/>
<path d="M2300 1955 c0 -8 5 -15 10 -15 6 0 10 7 10 15 0 8 -4 15 -10 15 -5 0
-10 -7 -10 -15z"/>
<path d="M2517 1577 c-17 -26 -14 -34 13 -33 19 1 22 10 12 37 -8 21 -8 21
-25 -4z"/>
<path d="M2250 1710 c0 -5 5 -10 10 -10 6 0 10 5 10 10 0 6 -4 10 -10 10 -5 0
-10 -4 -10 -10z"/>
<path d="M2687 1065 c-7 -15 1 -25 20 -25 7 0 13 6 13 14 0 19 -27 28 -33 11z"/>
<path d="M2737 1074 c-9 -10 4 -34 19 -34 8 0 14 9 14 20 0 19 -19 27 -33 14z"/>
<path d="M2481 1057 c-9 -11 -8 -17 4 -27 12 -10 16 -9 21 5 9 23 -10 40 -25
22z"/>
<path d="M2530 1050 c0 -11 6 -20 14 -20 20 0 28 27 10 34 -23 9 -24 8 -24
-14z"/>
<path d="M2582 1053 c2 -10 10 -18 18 -18 22 0 18 29 -3 33 -14 3 -18 -1 -15
-15z"/>
<path d="M2635 1060 c-3 -5 -4 -14 0 -20 8 -13 35 -1 35 16 0 16 -26 19 -35 4z"/>
<path d="M2271 1046 c-9 -10 -8 -16 3 -25 10 -9 16 -8 25 3 9 10 8 16 -3 25
-10 9 -16 8 -25 -3z"/>
<path d="M2326 1053 c-13 -14 -5 -33 14 -33 11 0 20 6 20 14 0 15 -24 28 -34
19z"/>
<path d="M2374 1049 c-10 -17 13 -36 27 -22 12 12 4 33 -11 33 -5 0 -12 -5
-16 -11z"/>
<path d="M2420 1047 c0 -19 10 -27 26 -20 21 8 17 33 -6 33 -11 0 -20 -6 -20
-13z"/>
<path d="M2123 1043 c-21 -7 -15 -33 7 -33 11 0 20 6 20 14 0 18 -11 25 -27
19z"/>
<path d="M2168 1044 c-11 -10 3 -34 19 -34 8 0 13 7 11 17 -3 18 -20 27 -30
17z"/>
<path d="M2216 1042 c-8 -13 11 -35 23 -28 16 10 14 36 -3 36 -8 0 -17 -4 -20
-8z"/>
<path d="M2543 1013 c-7 -3 -13 -11 -13 -18 0 -20 27 -26 35 -8 7 19 -5 32
-22 26z"/>
<path d="M2585 1011 c-8 -15 3 -31 21 -31 9 0 14 7 12 17 -4 20 -24 28 -33 14z"/>
<path d="M2636 1012 c-8 -13 11 -35 23 -28 16 10 14 36 -3 36 -8 0 -17 -4 -20
-8z"/>
<path d="M2381 996 c-12 -14 -5 -26 16 -26 15 0 18 26 4 34 -5 3 -14 0 -20 -8z"/>
<path d="M2430 990 c0 -11 6 -20 13 -20 19 0 27 10 20 26 -8 21 -33 17 -33 -6z"/>
<path d="M2480 996 c0 -8 4 -17 9 -20 11 -7 33 18 24 27 -12 12 -33 7 -33 -7z"/>
<path d="M2170 985 c-10 -12 -9 -16 5 -21 23 -9 40 10 22 25 -11 9 -17 8 -27
-4z"/>
<path d="M2220 986 c0 -18 16 -29 30 -21 13 8 1 35 -16 35 -8 0 -14 -6 -14
-14z"/>
<path d="M2272 983 c2 -10 10 -18 18 -18 22 0 18 29 -3 33 -14 3 -18 -1 -15
-15z"/>
<path d="M2320 985 c0 -8 9 -15 20 -15 11 0 20 7 20 15 0 8 -9 15 -20 15 -11
0 -20 -7 -20 -15z"/>
<path d="M2387 953 c-4 -3 -7 -12 -7 -20 0 -15 26 -18 34 -4 7 11 -18 33 -27
24z"/>
<path d="M2437 954 c-14 -14 -7 -35 11 -32 9 2 17 10 17 17 0 16 -18 25 -28
15z"/>
<path d="M2484 949 c-10 -17 13 -36 27 -22 12 12 4 33 -11 33 -5 0 -12 -5 -16
-11z"/>
<path d="M2533 948 c5 -29 37 -31 37 -2 0 8 -9 14 -20 14 -11 0 -19 -6 -17
-12z"/>
<path d="M2183 943 c-15 -5 -17 -29 -4 -37 12 -8 31 17 23 30 -4 6 -13 9 -19
7z"/>
<path d="M2227 944 c-14 -14 -7 -35 11 -32 9 2 17 10 17 17 0 16 -18 25 -28
15z"/>
<path d="M2274 939 c-10 -17 13 -36 27 -22 12 12 4 33 -11 33 -5 0 -12 -5 -16
-11z"/>
<path d="M2326 941 c-3 -5 0 -14 8 -20 10 -8 16 -8 25 2 6 8 8 17 4 20 -9 10
-31 9 -37 -2z"/>
<path d="M2443 903 c-21 -7 -15 -33 7 -33 11 0 20 6 20 14 0 18 -11 25 -27 19z"/>
<path d="M2276 885 c-6 -17 17 -31 34 -20 8 5 8 11 -1 21 -15 18 -25 18 -33
-1z"/>
<path d="M2330 880 c0 -23 25 -27 33 -6 7 16 -1 26 -20 26 -7 0 -13 -9 -13
-20z"/>
<path d="M2380 886 c0 -21 21 -31 30 -15 5 7 6 17 4 21 -9 14 -34 9 -34 -6z"/>
<path d="M2227 884 c-9 -10 2 -24 19 -24 8 0 14 7 14 15 0 15 -21 21 -33 9z"/>
<path d="M2287 843 c-14 -13 -6 -33 13 -33 11 0 20 4 20 9 0 13 -26 32 -33 24z"/>
<path d="M2334 839 c-10 -17 13 -36 27 -22 12 12 4 33 -11 33 -5 0 -12 -5 -16
-11z"/>
<path d="M2030 761 c0 -6 5 -13 10 -16 6 -3 10 1 10 9 0 9 -4 16 -10 16 -5 0
-10 -4 -10 -9z"/>
</g>
</svg>
