<?xml version="1.0" standalone="no"?>
<!DOCTYPE svg PUBLIC "-//W3C//DTD SVG 1.1//EN" "http://www.w3.org/Graphics/SVG/1.1/DTD/svg11.dtd" >
<svg xmlns="http://www.w3.org/2000/svg">
<metadata>Generated by IcoMoon</metadata>
<defs>
<font id="icomoon" horiz-adv-x="1024">
<font-face units-per-em="1024" ascent="960" descent="-64" />
<missing-glyph horiz-adv-x="1024" />
<glyph unicode="&#x20;" horiz-adv-x="512" d="" />
<glyph unicode="&#xe900;" glyph-name="down" horiz-adv-x="1796" d="M929.102-51.157l854.66 854.544c7.893 7.888 12.775 18.788 12.775 30.829s-4.882 22.94-12.775 30.828l-82.229 82.171c-7.888 7.893-18.788 12.775-30.829 12.775s-22.94-4.882-30.828-12.775l-741.632-741.632-741.631 741.631c-7.888 7.893-18.788 12.775-30.829 12.775s-22.94-4.882-30.828-12.775l-82.171-82.171c-7.893-7.888-12.775-18.788-12.775-30.829s4.882-22.94 12.775-30.828l854.66-854.544c7.888-7.893 18.788-12.775 30.829-12.775s22.94 4.882 30.828 12.775v0z" />
<glyph unicode="&#xe901;" glyph-name="card" horiz-adv-x="1218" d="M995.45 113.011h-437.77c-118.007 0-186.528 68.52-211.271 207.465 0 1.903-3.807 15.227-3.807 15.227l-119.911 576.714h-197.948c-13.323 0-24.743 11.42-24.743 22.84s11.42 24.743 24.743 24.743h216.981c11.42 0 20.937-7.613 22.84-19.033l123.717-595.747c0 0 3.807-13.323 3.807-15.227 26.647-150.364 102.781-169.398 165.591-169.398h437.77c13.323 0 24.743-11.42 24.743-24.743s-11.42-22.84-24.743-22.84zM1001.16-64c-62.81 0-112.297 51.39-112.297 112.297s51.39 112.297 112.297 112.297 112.297-51.39 112.297-112.297-49.487-112.297-112.297-112.297zM1001.16 114.914c-36.164 0-64.714-28.55-64.714-64.714s28.55-64.714 64.714-64.714c36.164 0 64.714 28.55 64.714 64.714 0 34.26-28.55 64.714-64.714 64.714zM1075.39 322.379v0h-700.431v47.584h683.301l104.684 319.762-877.442 59.004 3.807 47.584 907.896-60.907c7.613 0 13.323-3.807 19.033-9.517 3.807-5.71 5.71-13.323 3.807-20.937l-118.007-365.442c-7.613-9.517-15.227-17.13-26.647-17.13zM498.677-64c-62.81 0-112.297 51.39-112.297 112.297s51.39 112.297 112.297 112.297 112.297-51.39 112.297-112.297-49.487-112.297-112.297-112.297zM498.677 114.914c-36.164 0-64.714-28.55-64.714-64.714s28.55-64.714 64.714-64.714 64.714 28.55 64.714 64.714c0 34.26-28.55 64.714-64.714 64.714zM1147.717 531.747h-818.439c-13.323 0-24.743 11.42-24.743 24.743s11.42 24.743 24.743 24.743h818.439c13.323 0 24.743-11.42 24.743-24.743s-13.323-24.743-24.743-24.743zM704.238 737.309h47.584v-399.703h-47.584v399.703zM880.369 348.233l53.319 371.135 47.098-6.766-53.319-371.135-47.098 6.766zM456.415 747.21l47.113 6.681 58.256-410.822-47.113-6.681-58.256 410.822z" />
<glyph unicode="&#xe902;" glyph-name="compare" horiz-adv-x="766" d="M614.4-64h-545.058c-37.090 0-67.729 30.639-67.729 69.342v786.948c-1.613 38.702 29.027 69.342 67.729 69.342v-40.315c-16.126 0-27.414-12.901-27.414-27.414v-788.561c0-16.126 12.901-29.027 27.414-29.027h545.058c16.126 0 27.414 12.901 27.414 29.027h40.315c0-38.702-30.639-69.342-67.729-69.342zM698.255 32.756h-548.283c-37.090 0-69.342 30.639-69.342 67.729v790.173c0 38.702 30.639 69.342 69.342 69.342h548.283c37.090 0 69.342-30.639 69.342-67.729v-790.173c-1.613-38.702-32.252-69.342-69.342-69.342zM149.972 919.685c-16.126 0-29.027-12.901-29.027-27.414v-790.173c0-16.126 12.901-27.414 29.027-27.414h548.283c16.126 0 29.027 12.901 29.027 27.414v790.173c0 16.126-12.901 27.414-29.027 27.414h-548.283z" />
<glyph unicode="&#xe903;" glyph-name="delivery" horiz-adv-x="1610" d="M340 664h50v-100h-50v100zM416 50h-130c-14 0-26 12-26 26v220c0 14 12 26 26 26h910v-50h-886v-172h106v-50zM716 100h440v-50h-440v50zM1552 50c-2 0-2 0-2 0h-94v50h96c0 0 2 0 2 0s2 0 4 2c2 2 4 6 4 16v200c0 0 0 2 0 2 0 10-4 18-12 22l-90 30c-8 2-14 10-16 18 0 2-32 118-100 202h-174v-426h-50v448c0 14 12 26 26 26h210c8 0 14-4 18-8 68-76 104-180 114-218l78-26c0 0 2 0 2 0 28-12 44-40 42-70v-200c0-28-12-44-20-52-14-14-30-16-38-16zM1356 350h-90c-14 0-26 12-26 26s12 26 26 26h56c-12 34-26 68-44 100-6 12-2 28 10 34s28 2 34-10c24-44 44-92 58-142 2-8 0-16-4-22-6-8-12-12-20-12zM1348-64c-70 0-128 58-128 128s58 128 128 128 128-58 128-128-58-128-128-128zM1348 140c-42 0-78-34-78-78s34-78 78-78 78 34 78 78-34 78-78 78zM516-64c-70 0-128 58-128 128s58 128 128 128c70 0 128-58 128-128s-58-128-128-128zM516 140c-42 0-78-34-78-78s34-78 78-78 78 34 78 78-36 78-78 78zM486 470h-300c-14 0-26 12-26 26s12 24 26 24h300c14 0 26-12 26-26s-14-24-26-24zM226 370h-160c-14 0-26 12-26 26s12 24 26 24h160c14 0 26-12 26-26s-14-24-26-24zM266 790h-240c-14 0-26 12-26 24s12 26 26 26h240c14 0 26-12 26-26s-14-24-26-24zM366 630h-200c-14 0-26 12-26 26s12 24 26 24h200c14 0 26-12 26-26s-14-24-26-24zM340 504h50v-200h-50v200zM1070 284h-50v626h-630v-166h-50v216h730zM790 750h-190v194h50v-144h90v144h50z" />
<glyph unicode="&#xe904;" glyph-name="discount" horiz-adv-x="1413" d="M697.572 164.052c-4.472 0-11.179 2.236-15.651 4.472-13.415 8.943-15.651 26.83-6.707 38.009l351.022 509.764c8.943 13.415 26.83 15.651 38.009 6.707s15.651-26.83 6.707-38.009l-351.022-507.528c-6.707-8.943-13.415-13.415-22.358-13.415zM715.459 497.188c-62.603 0-114.026 51.424-114.026 114.026s51.424 114.026 114.026 114.026c62.603 0 114.026-51.424 114.026-114.026s-51.424-114.026-114.026-114.026zM715.459 671.581c-31.301 0-58.131-26.83-58.131-58.131s26.83-58.131 58.131-58.131 58.131 26.83 58.131 58.131-26.83 58.131-58.131 58.131zM1030.707 168.524c-62.603 0-114.026 51.424-114.026 114.026s51.424 114.026 114.026 114.026c62.603 0 114.026-51.424 114.026-114.026s-51.424-114.026-114.026-114.026zM1030.707 342.917c-31.301 0-58.131-26.83-58.131-58.131s26.83-58.131 58.131-58.131c31.301 0 58.131 26.83 58.131 58.131s-26.83 58.131-58.131 58.131zM1301.24 904.105c31.301 0 55.895-24.594 55.895-55.895v-800.419c0-31.301-24.594-55.895-55.895-55.895h-1189.45c-31.301 0-55.895 24.594-55.895 55.895v800.419c0 31.301 24.594 55.895 55.895 55.895h1189.45zM1301.24 960h-1189.45c-62.603 0-111.79-49.188-111.79-111.79v-800.419c0-62.603 49.188-111.79 111.79-111.79h1189.45c62.603 0 111.79 49.188 111.79 111.79v800.419c0 62.603-49.188 111.79-111.79 111.79zM335.371 935.406h55.895v-149.799h-55.895v149.799zM335.371 707.354h55.895v-118.498h-55.895v118.498zM335.371 506.131h55.895v-118.498h-55.895v118.498zM335.371 307.144h55.895v-118.498h-55.895v118.498zM335.371 108.157h55.895v-149.799h-55.895v149.799z" />
<glyph unicode="&#xe905;" glyph-name="soc-fb" d="M284.444 622.459h97.47v102.4c-0.588 7.046-0.923 15.25-0.923 23.533 0 49.524 11.976 96.25 33.19 137.442l-0.789-1.685c30.65 46.15 82.406 76.157 141.171 76.157 3.572 0 7.118-0.111 10.635-0.329l-0.482 0.024c7.93 0.394 17.22 0.618 26.562 0.618 52.738 0 103.806-7.147 152.289-20.525l-4.013 0.944-24.273-155.496c-23.337 6.506-50.274 10.61-78.046 11.368l-0.461 0.010c-37.926 0-72.059-15.17-72.059-56.889v-117.57h155.496l-10.999-155.496h-144.498v-530.963h-182.803v530.963h-97.47v155.496z" />
<glyph unicode="&#xe906;" glyph-name="soc-insta" d="M131.413 960h761.173c72.681-0.484 131.413-59.515 131.413-132.264 0-0.001 0-0.002 0-0.003v0-759.467c0-0.001 0-0.002 0-0.003 0-72.749-58.732-131.78-131.367-132.264h-761.219c-72.681 0.484-131.413 59.515-131.413 132.264 0 0.001 0 0.002 0 0.003v0 759.467c0 0.001 0 0.002 0 0.003 0 72.749 58.732 131.78 131.367 132.264h0.046zM745.813 844.8v0c-0.002 0-0.005 0-0.008 0-24.274 0-44.176-18.717-46.062-42.505l-0.010-0.161v-110.933c0-0.002 0-0.005 0-0.008 0-25.621 20.529-46.446 46.035-46.925l0.045-0.001h116.053c25.551 0.479 46.080 21.305 46.080 46.926 0 0.003 0 0.005 0 0.008v0 110.933c-1.896 23.95-21.798 42.667-46.072 42.667-0.003 0-0.006 0-0.008 0h-116.053zM908.373 529.067h-90.453c8.18-26.781 12.997-57.584 13.226-89.478l0.001-0.122c-6.451-170.819-146.486-306.851-318.293-306.851s-311.843 136.032-318.276 306.266l-0.018 0.585c0.23 32.016 5.047 62.82 13.824 91.905l-0.598-2.305h-93.867v-435.2c0.635-21.348 18.092-38.413 39.536-38.413 0.351 0 0.701 0.005 1.049 0.014l-0.052-0.001h712.96c0.387-0.014 0.843-0.021 1.3-0.021 21.472 0 38.961 17.055 39.658 38.357l0.002 0.064v435.2zM512.853 648.533v0c-106.53-3.952-191.391-91.265-191.391-198.4 0-109.644 88.884-198.528 198.528-198.528s198.528 88.884 198.528 198.528c0 0.75-0.004 1.499-0.012 2.247l0.001-0.114c-3.356 109.117-92.615 196.296-202.235 196.296-1.202 0-2.401-0.010-3.598-0.031l0.18 0.002z" />
<glyph unicode="&#xe907;" glyph-name="soc-vk" d="M104.448 960h465.408c153.088 0 283.136-76.8 283.136-225.28 0.715-6.714 1.123-14.504 1.123-22.39 0-93.917-57.877-174.315-139.91-207.474l-1.501-0.536c22.184-12.201 48.692-24.277 76.121-34.455l4.263-1.385c26.079-9.833 47.986-25.646 64.824-45.833l0.2-0.247c40.391-41.417 65.304-98.092 65.304-160.585 0-10.172-0.66-20.19-1.94-30.014l0.123 1.159c0-199.68-191.488-296.96-375.808-296.96h-443.392l2.048 1024zM357.376 688.64v-128c119.808 0 232.448-20.48 232.448 112.64 0 117.76-127.488 97.28-232.96 97.28l0.512-81.92zM357.376 125.44c131.072 0 293.376-20.48 295.936 128 3.072 153.6-166.4 128-295.936 128v-256z" />
<glyph unicode="&#xe908;" glyph-name="left" horiz-adv-x="544" d="M68.733 457.853c-2.616-2.618-4.235-6.234-4.235-10.228s1.618-7.61 4.235-10.228l473.959-473.959-21.952-22.7c-2.618-2.299-6.072-3.701-9.853-3.701s-7.236 1.402-9.87 3.716l0.017-0.015-498.904 498.904c-2.306 2.749-3.706 6.325-3.706 10.228s1.401 7.479 3.726 10.252l-0.020-0.025 498.904 498.904c2.497 2.575 5.989 4.173 9.853 4.173s7.356-1.598 9.85-4.169l0.003-0.004 21.952-22.7z" />
<glyph unicode="&#xe909;" glyph-name="left-arrow" horiz-adv-x="1322" d="M502.355-59.723l-497.913 497.913c-2.651 2.444-4.306 5.934-4.306 9.81s1.655 7.366 4.297 9.802l0.009 0.008 498.653 498.653c2.276 2.269 5.417 3.671 8.885 3.671s6.608-1.403 8.885-3.671v0l64.784-64.784-392.407-392.777h1073.566c30.557-0.411 55.17-25.279 55.17-55.895 0-0.392-0.004-0.783-0.012-1.174l0.001 0.058c-0.406-30.17-24.651-54.544-54.731-55.158l-0.058-0.001h-1064.682l383.152-382.412-64.044-64.044c-2.444-2.651-5.934-4.306-9.81-4.306s-7.366 1.655-9.802 4.297l-0.008 0.009z" />
<glyph unicode="&#xe90a;" glyph-name="person" d="M512.835-64c-282.31 0-512.835 230.525-512.835 512.835s230.525 511.165 512.835 511.165c282.31 0 511.165-228.855 511.165-511.165s-230.525-512.835-511.165-512.835zM512.835 918.238c-260.594 0-471.073-210.48-471.073-469.403s210.48-469.403 469.403-469.403 469.403 210.48 469.403 469.403c1.67 258.923-208.809 469.403-467.732 469.403zM432.653 584.144c-16.705 0-26.728 1.67-28.398 1.67-11.693 1.67-20.046 11.693-18.375 23.387s11.693 20.046 23.387 18.375v0c5.011 0 118.604-15.034 153.684 70.16 3.341 6.682 10.023 11.693 18.375 13.364 8.352 0 15.034-3.341 20.046-11.693 0 0 40.091-71.83 91.876-71.83 11.693 0 21.716-10.023 21.716-21.716s-10.023-21.716-21.716-21.716c-50.114 0-86.865 36.75-108.581 65.148-40.091-56.796-111.922-65.148-152.013-65.148zM218.832 173.207c-10.023 0-18.375 6.682-20.046 15.034-3.341 11.693 3.341 21.716 15.034 25.057 140.32 35.080 170.388 60.137 177.070 66.819v73.501c0 11.693 10.023 21.716 21.716 21.716s21.716-10.023 21.716-21.716v-76.842c3.341-35.080-65.148-68.489-208.809-105.24-3.341 1.67-5.011 1.67-6.682 1.67zM389.22 273.436c0 0 0 0 0 0s0 0 0 0zM389.22 273.436c0 0 0 0 0 0s0 0 0 0zM805.168 173.207c-1.67 0-3.341 0-5.011 0-141.99 36.75-210.48 70.16-208.809 105.24v76.842c0 11.693 10.023 21.716 21.716 21.716s21.716-10.023 21.716-21.716v-73.501c6.682-6.682 36.75-31.739 177.070-66.819 11.693-3.341 18.375-13.364 15.034-25.057-3.341-10.023-11.693-16.705-21.716-16.705zM634.78 273.436c0 0 0 0 0 0s0 0 0 0zM634.78 273.436c0 0 0 0 0 0s0 0 0 0zM634.78 273.436v0 0zM572.972 326.891c-10.023 0-18.375 6.682-20.046 16.705-1.67 11.693 5.011 21.716 16.705 25.057 11.693 1.67 23.387 6.682 31.739 15.034 36.75 26.728 65.148 115.263 73.501 190.434s0 126.956-30.069 162.036c-26.728 30.069-71.83 46.773-133.638 48.444-61.808-1.67-105.24-18.375-131.967-48.444-30.069-33.409-40.091-86.865-30.069-162.036 8.352-75.171 36.75-163.706 73.501-188.763 10.023-8.352 21.716-13.364 33.409-15.034s18.375-13.364 16.705-25.057c-1.67-11.693-13.364-18.375-25.057-16.705-18.375 3.341-35.080 11.693-50.114 21.716-68.489 48.444-88.535 200.457-90.206 218.832-10.023 88.535 3.341 152.013 40.091 195.445 35.080 40.091 90.206 60.137 163.706 61.808 0 0 1.67 0 1.67 0 73.501-1.67 128.626-23.387 163.706-63.478 36.75-43.432 50.114-106.91 40.091-193.775-8.352-63.478-35.080-178.741-90.206-218.832-13.364-10.023-30.069-18.375-48.444-21.716-1.67-1.67-3.341-1.67-5.011-1.67z" />
<glyph unicode="&#xe90b;" glyph-name="phone" d="M512.835-64c-282.31 0-512.835 230.525-512.835 512.835s230.525 511.165 512.835 511.165c282.31 0 511.165-228.855 511.165-511.165s-230.525-512.835-511.165-512.835zM512.835 918.238c-260.594 0-471.073-210.48-471.073-469.403s210.48-469.403 469.403-469.403 469.403 210.48 469.403 469.403c1.67 258.923-208.809 469.403-467.732 469.403zM673.201 141.468c-3.341 0-6.682 0-10.023 1.67-83.524 11.693-177.070 68.489-275.628 167.047-3.341 3.341-5.011 5.011-6.682 6.682s-3.341 3.341-5.011 5.011c-98.558 96.887-157.024 192.104-170.388 277.299-1.67 8.352-5.011 36.75 28.398 65.148 36.75 35.080 65.148 55.126 81.853 55.126 18.375 1.67 36.75-8.352 45.103-23.387l63.478-95.217c15.034-18.375 15.034-43.432 3.341-63.478l-25.057-45.103c21.716-26.728 46.773-53.455 71.83-78.512s51.785-48.444 78.512-71.83l46.773 25.057c18.375 11.693 45.103 10.023 63.478-3.341l96.887-65.148c15.034-8.352 25.057-26.728 23.387-45.103-1.67-16.705-20.046-45.103-55.126-83.524-20.046-23.387-41.762-28.398-55.126-28.398zM322.401 677.69c-8.352-3.341-35.080-23.387-56.796-45.103-16.705-15.034-15.034-26.728-15.034-26.728 0-1.67 0 0 0-1.67 10.023-75.171 66.819-165.377 157.024-253.912 1.67-1.67 3.341-3.341 5.011-5.011 0 0 3.341-3.341 6.682-6.682 115.263-115.263 200.457-148.672 252.241-155.354 1.67 0 1.67 0 3.341 0 0 0 10.023-1.67 25.057 15.034 21.716 23.387 41.762 48.444 45.103 56.796 0 0 0 0 0 0 0 1.67 0 3.341-3.341 5.011 0 0-1.67 0-1.67 1.67l-98.558 65.148c0 0-1.67 0-1.67 1.67-5.011 3.341-11.693 5.011-16.705 1.67l-60.137-33.409c-6.682-3.341-16.705-3.341-23.387 1.67-31.739 25.057-63.478 53.455-93.546 83.524-30.069 28.398-56.796 60.137-83.524 91.876-5.011 6.682-6.682 15.034-1.67 23.387l31.739 58.467c3.341 6.682 3.341 13.364 0 18.375 0 0 0 1.67-1.67 1.67l-65.148 96.887c1.67 3.341 0 5.011-3.341 5.011 0 0 0 0 0 0zM743.361 255.060v0 0zM743.361 256.731v0 0zM320.731 677.69c0 0 0 0 0 0s0 0 0 0zM631.439 468.881c-1.67 58.467-50.114 106.91-108.581 108.581l1.67 41.762c81.853-1.67 147.002-66.819 148.672-148.672l-41.762-1.67zM706.61 473.892c-3.341 96.887-83.524 175.4-180.411 177.070l1.67 41.762c118.604-3.341 215.491-98.558 220.502-217.162l-41.762-1.67z" />
<glyph unicode="&#xe90c;" glyph-name="right" horiz-adv-x="544" d="M473.843 457.853c2.616-2.618 4.235-6.234 4.235-10.228s-1.618-7.61-4.235-10.228v0l-473.959-475.206 21.952-22.7c2.618-2.299 6.072-3.701 9.853-3.701s7.236 1.402 9.87 3.716l-0.017-0.015 498.904 498.904c2.306 2.749 3.706 6.325 3.706 10.228s-1.401 7.479-3.726 10.252l0.020-0.025-498.904 498.904c-2.497 2.575-5.989 4.173-9.853 4.173s-7.356-1.598-9.85-4.169l-0.003-0.004-21.952-24.696z" />
<glyph unicode="&#xe90d;" glyph-name="right-arrow" horiz-adv-x="1322" d="M819.612-59.723l497.913 497.913c2.651 2.444 4.306 5.934 4.306 9.81s-1.655 7.366-4.297 9.802l-0.009 0.008-498.653 498.653c-2.276 2.269-5.417 3.671-8.885 3.671s-6.608-1.403-8.885-3.671v0l-65.154-64.784 392.777-392.777h-1073.566c-30.557-0.411-55.17-25.279-55.17-55.895 0-0.392 0.004-0.783 0.012-1.174l-0.001 0.058c0.406-30.17 24.651-54.544 54.731-55.158l0.058-0.001h1064.682l-383.522-382.412 64.044-64.044c2.444-2.651 5.934-4.306 9.81-4.306s7.366 1.655 9.802 4.297l0.008 0.009z" />
<glyph unicode="&#xe90e;" glyph-name="search" d="M452.251 57.336c-115.82 0-231.641 44.122-319.885 132.366-176.488 176.488-176.488 463.282 0 639.77v0c176.488 176.488 463.282 176.488 639.77 0s176.488-463.282 0-639.77c-88.244-88.244-204.065-132.366-319.885-132.366zM165.458 794.542c-158.104-158.104-158.104-415.483 0-573.587s415.483-158.104 573.587 0 158.104 415.483 0 573.587-415.483 158.104-573.587 0v0zM1001.939-64c-5.515 0-11.031 1.838-16.546 7.354l-244.51 244.51c-9.192 9.192-9.192 23.899 0 33.092s23.899 9.192 33.092 0l244.51-244.51c9.192-9.192 9.192-23.899 0-33.092-5.515-5.515-11.031-7.354-16.546-7.354z" />
<glyph unicode="&#xe90f;" glyph-name="subscribe" horiz-adv-x="1972" d="M547.778-64c-17.272 0-32.077 14.805-32.077 32.077s14.805 32.077 32.077 32.077h1194.255c27.142 0 49.349 19.74 54.284 46.882l113.504 814.265c0 2.467 0 4.935 0 9.87l-668.684-483.624c-12.337-7.402-27.142-7.402-39.48 2.467l-562.583 518.169c-9.87 7.402-12.337 22.207-7.402 34.545s17.272 17.272 29.61 17.272h1216.463c4.935 0 12.337 0 19.74-2.467 24.675-4.935 46.882-17.272 59.219-39.48 14.805-19.74 19.74-44.414 14.805-69.089l-113.504-814.265c-9.87-56.752-56.752-98.699-113.504-101.166h-1196.723zM740.241 898.313l486.092-446.612 621.802 446.612h-1107.894zM917.899 182.747h-592.193c-17.272 0-32.077 14.805-32.077 32.077s14.805 32.077 32.077 32.077h592.193c17.272 0 32.077-14.805 32.077-32.077s-14.805-32.077-32.077-32.077zM794.525 404.819h-764.916c-17.272 0-32.077 14.805-32.077 32.077s17.272 29.61 34.545 29.61h764.916c17.272 0 32.077-14.805 32.077-32.077s-17.272-29.61-34.545-29.61zM597.128 626.892h-345.446c-17.272 0-32.077 14.805-32.077 32.077s17.272 29.61 32.077 29.61h345.446c17.272 0 32.077-14.805 32.077-32.077s-14.805-29.61-32.077-29.61z" />
<glyph unicode="&#xe910;" glyph-name="triangle" horiz-adv-x="1093" d="M1093.35-64h-1093.35l546.675 1024z" />
<glyph unicode="&#xe911;" glyph-name="soc-you" horiz-adv-x="731" d="M267.337 960h-80.823l-49.371-204.8h-5.12l-51.566 204.8h-80.457l94.72-310.857v-204.8h79.726v212.114l92.891 303.543zM291.474 462.629c18.527-18.11 43.902-29.284 71.886-29.284 0.828 0 1.653 0.010 2.476 0.029l-0.122-0.002h0.731c1.642-0.099 3.563-0.155 5.496-0.155 53.928 0 97.646 43.717 97.646 97.646 0 3.016-0.137 6-0.404 8.946l0.028-0.379v197.486c0.009 0.487 0.014 1.062 0.014 1.638 0 26.509-10.769 50.503-28.171 67.845l-0.003 0.003c-17.986 18.078-42.883 29.265-70.393 29.265-0.453 0-0.904-0.003-1.356-0.009l0.068 0.001c-0.941 0.029-2.048 0.046-3.159 0.046-28.66 0-54.715-11.153-74.062-29.355l0.056 0.052c-17.65-15.697-28.714-38.467-28.714-63.822 0-1.993 0.068-3.97 0.203-5.928l-0.015 0.265v-197.486c-0.105-1.747-0.165-3.79-0.165-5.848 0-27.454 10.637-52.423 28.014-71.012l-0.055 0.059zM336.457 740.571v0c-0.014 0.297-0.023 0.644-0.023 0.994 0 7.002 3.28 13.238 8.387 17.256l0.047 0.036c4.476 6.654 11.978 10.974 20.488 10.974 0.126 0 0.251-0.001 0.376-0.003h-0.019c0.221 0.006 0.481 0.010 0.742 0.010 8.942 0 16.882-4.284 21.882-10.912l0.050-0.069c5.36-3.913 8.803-10.175 8.803-17.241 0-0.368-0.009-0.733-0.028-1.096l0.002 0.051v-208.457c0.131-0.957 0.206-2.063 0.206-3.186 0-7.487-3.328-14.197-8.586-18.73l-0.032-0.027c-5.185-6.706-13.232-10.982-22.278-10.982-0.268 0-0.535 0.004-0.802 0.011l0.039-0.001c-8.142 0.117-15.625 2.846-21.673 7.383l0.096-0.069c-4.822 6.638-7.714 14.95-7.714 23.937 0 0.585 0.012 1.167 0.037 1.746l-0.003-0.083v208.457zM660.48 824.686v-288.914c-6.583-7.314-13.897-14.629-21.577-21.943-5.687-3.39-12.315-5.936-19.374-7.256l-0.375-0.058c-5.962 0-11.257 2.853-14.595 7.268l-0.033 0.046c-2.795 4.672-4.448 10.306-4.448 16.326 0 0.69 0.022 1.374 0.064 2.053l-0.005-0.093v292.571h-70.583v-318.171c-0.137-1.824-0.214-3.95-0.214-6.095 0-16.678 4.706-32.256 12.863-45.479l-0.215 0.374c8.129-11.142 21.14-18.3 35.824-18.3 0.391 0 0.782 0.005 1.171 0.015l-0.057-0.001c15.595 0.010 29.899 5.53 41.072 14.718l-0.112-0.090c15.893 8.626 29.348 19.631 40.427 32.711l0.167 0.203v-40.229h70.949v380.343h-70.949zM207.726 298.057h-167.497v-51.2h56.32v-303.543h54.491v303.543h56.686v51.2zM296.594 5.486v0c-4.749-5.16-9.641-9.937-14.777-14.442l-0.217-0.187c-3.389-2.32-7.578-3.705-12.090-3.705-0.507 0-1.010 0.017-1.509 0.052l0.067-0.004c-0.648-0.156-1.392-0.246-2.157-0.246-3.155 0-5.953 1.525-7.699 3.877l-0.018 0.026c-1.879 3.755-2.979 8.18-2.979 12.862 0 0.621 0.019 1.238 0.058 1.85l-0.004-0.084v197.486h-48.274v-215.771c-0.169-1.682-0.265-3.636-0.265-5.612 0-11.447 3.228-22.139 8.824-31.217l-0.148 0.257c5.621-6.756 14.031-11.024 23.438-11.024 0.632 0 1.259 0.019 1.881 0.057l-0.085-0.004c10.366 0.817 19.933 3.428 28.664 7.527l-0.504-0.213c10.505 7.523 19.631 15.952 27.613 25.381l0.181 0.219v-29.257h48.64v259.657h-48.64v-197.486zM484.206 206.629v0c-1.011 0.131-2.181 0.206-3.368 0.206-7.339 0-14.009-2.863-18.954-7.533l0.013 0.012c-8.871-3.766-16.039-10.109-20.735-18.082l-0.111-0.203v117.029h-48.64v-354.743h48.64v18.286c5.776-6.091 12.702-11.025 20.439-14.467l0.406-0.161c7.261-4.2 15.892-6.858 25.103-7.309l0.131-0.005c1.058-0.109 2.287-0.171 3.53-0.171 11.998 0 22.647 5.778 29.316 14.703l0.069 0.096c7.181 11.312 11.445 25.091 11.445 39.866 0 1.414-0.039 2.819-0.116 4.214l0.009-0.194v142.629c0.125 1.771 0.196 3.839 0.196 5.923 0 16.687-4.556 32.31-12.492 45.692l0.228-0.415c-7.319 9.086-18.445 14.851-30.917 14.851-1.477 0-2.934-0.081-4.369-0.238l0.177 0.016zM481.646 5.486v0c0.174-1.111 0.273-2.392 0.273-3.696 0-5.472-1.747-10.536-4.713-14.665l0.051 0.075c-2.771-4.266-7.433-7.101-12.769-7.313l-0.031-0.001c-0.611-0.093-1.317-0.147-2.034-0.147-3.74 0-7.142 1.447-9.677 3.811l0.008-0.008c-4.743 2.776-8.662 6.461-11.623 10.846l-0.080 0.125v160.914c2.338 3.603 5.919 6.231 10.123 7.289l0.117 0.025c2.139 2.324 5.196 3.774 8.592 3.774 0.581 0 1.153-0.043 1.712-0.125l-0.063 0.008c6.007-0.294 11.316-3.057 14.972-7.287l0.023-0.027c3.333-5.185 5.314-11.515 5.314-18.308 0-1.281-0.070-2.545-0.208-3.789l0.014 0.153v-131.657zM710.217 67.657v0 65.829c0.102 1.594 0.16 3.457 0.16 5.333 0 20.052-6.655 38.55-17.877 53.405l0.162-0.224c-12.902 11.383-29.952 18.331-48.624 18.331-0.906 0-1.808-0.016-2.706-0.049l0.13 0.004c-0.723 0.027-1.572 0.042-2.425 0.042-19.953 0-37.934-8.441-50.567-21.946l-0.036-0.039c-12.716-13.808-20.511-32.318-20.511-52.648 0-0.777 0.011-1.551 0.034-2.322l-0.003 0.113v-117.029c-0.098-1.533-0.155-3.325-0.155-5.13 0-20.286 7.092-38.916 18.932-53.545l-0.126 0.16c11.765-13.517 29-22.013 48.218-22.013 1.049 0 2.092 0.025 3.128 0.075l-0.146-0.006c1.395-0.103 3.021-0.162 4.661-0.162 19.735 0 37.483 8.505 49.78 22.049l0.050 0.056c11.367 13.798 18.26 31.652 18.26 51.116 0 2.605-0.123 5.181-0.365 7.722l0.025-0.324v18.286h-49.737v-18.286c0.097-1.329 0.152-2.88 0.152-4.443 0-8.95-1.803-17.479-5.066-25.243l0.16 0.429c-3.53-2.532-7.938-4.048-12.699-4.048-1.459 0-2.884 0.142-4.263 0.414l0.139-0.023c-1.109-0.308-2.383-0.485-3.698-0.485-5.531 0-10.331 3.132-12.721 7.72l-0.038 0.079c-3.076 6.477-4.872 14.074-4.872 22.090 0 1.235 0.043 2.46 0.127 3.674l-0.009-0.164v51.2h92.526zM617.691 133.486v0c-0.016 0.516-0.026 1.123-0.026 1.731 0 8.65 1.896 16.857 5.295 24.228l-0.149-0.359c4.031 4.445 9.828 7.224 16.274 7.224s12.243-2.78 16.258-7.206l0.016-0.018c3.25-7.012 5.146-15.219 5.146-23.869 0-0.609-0.009-1.215-0.028-1.82l0.002 0.088v-25.6h-42.789v25.6z" />
<glyph unicode="&#xe912;" glyph-name="reload" horiz-adv-x="920" d="M646.313 945.051l137.237-202.639c0.516-0.757 0.998-1.531 1.445-2.305s0.86-1.565 1.221-2.374l0.378-0.895c0.138-0.327 0.292-0.671 0.43-1.015l0.378-0.981c0.12-0.327 0.241-0.671 0.327-0.998s0.172-0.533 0.241-0.791l0.12-0.43c0.002-0.015 0.003-0.033 0.003-0.052s-0.001-0.036-0.003-0.054v0.002c0.155-0.568 0.31-1.135 0.43-1.72s0.224-1.015 0.292-1.531 0.086-0.499 0.12-0.757 0-0.533 0.103-0.791 0-0.654 0.12-0.981v0c0-0.361 0-0.722 0.086-1.101v0c0-0.378 0-0.74 0-1.118s0-0.757 0-1.135 0-0.705 0-1.049c-0.098-3.101-0.594-6.047-1.439-8.843l0.063 0.242c-0.321-1.13-0.637-2.039-0.997-2.926l0.068 0.191c-0.344-0.877-0.74-1.72-1.153-2.598-0.189-0.413-0.413-0.826-0.636-1.239-0.898-1.633-1.815-3.028-2.828-4.345l0.058 0.079c-0.241-0.344-0.516-0.671-0.774-0.998s-0.774-0.929-1.187-1.376-0.447-0.499-0.688-0.74-0.55-0.55-0.826-0.826l-0.86-0.791-0.963-0.826-0.705-0.585-0.31-0.241c-0.258-0.206-0.516-0.396-0.774-0.585v0l-0.55-0.396-0.378-0.258-0.189-0.12c-0.447-0.31-0.929-0.602-1.411-0.895l-0.843-0.499-1.032-0.55-1.359-0.671-0.499-0.224-0.31-0.138h-0.138l-0.826-0.344-1.755-0.654h-0.138l-0.568-0.172-0.413-0.12h-0.55l-0.55-0.138h-0.103l-0.877-0.206-0.757-0.619-1.187-0.206c-0.671-0.12-1.376-0.206-2.064-0.275l-243.752-23.601c-0.98-0.1-2.117-0.157-3.268-0.157-18.774 0-33.994 15.22-33.994 33.994 0 17.623 13.411 32.114 30.584 33.825l0.142 0.011 127.862 12.351c-51.395 26.434-112.15 41.929-176.523 41.929-50.142 0-98.087-9.401-142.171-26.537l2.676 0.915c-201.9-77.013-303.512-303.925-226.516-505.738s303.908-303.512 505.738-226.516 303.529 303.822 226.585 505.721c-1.414 3.597-2.233 7.762-2.233 12.119 0 18.776 15.221 33.997 33.997 33.997 14.419 0 26.742-8.977 31.684-21.647l0.079-0.231c19.068-48.592 30.119-104.861 30.119-163.712 0-254.041-205.941-459.981-459.981-459.981-130.382 0-248.094 54.246-331.797 141.4l-0.148 0.155c-79.243 82.491-128.042 194.742-128.042 318.391 0 253.984 205.894 459.878 459.878 459.878 70.339 0 136.989-15.791 196.6-44.023l-2.794 1.19-63.493 93.751c-3.783 5.403-6.045 12.112-6.045 19.35 0 18.773 15.218 33.991 33.991 33.991 11.782 0 22.163-5.994 28.262-15.099l0.077-0.123z" />
<glyph unicode="&#xe913;" glyph-name="remove" horiz-adv-x="769" d="M768.421 732.686c-2.478 51.691-46.407 91.716-98.145 91.716h-130.922c0 0.397 0 0.772 0 1.169 0 30.977-7.949 60.972-22.374 84.492-19.381 31.749-49.4 49.938-82.13 49.938h-101.278c-32.731 0-62.632-18.189-82.107-49.938-14.425-23.496-22.35-53.515-22.35-84.492 0-0.397 0-0.795 0-1.169h-130.922c-51.691 0-95.597-40.025-98.192-91.716-0.073-1.404-0.115-3.048-0.115-4.701 0-33.155 16.743-62.399 42.236-79.739l0.335-0.215 39.37-572.084c0.538-77.268 59.289-139.947 131.413-139.947h342.058c72.124 0 130.922 62.679 131.367 139.947l39.277 572.107c25.84 17.553 42.593 46.805 42.593 79.969 0 1.64-0.041 3.271-0.122 4.891l0.009-0.228zM333.782 903.89h101.067c26.021 0 47.319-34.718 47.319-77.151h-195.706c0 42.433 21.298 77.151 47.319 77.151zM96.976 765.954h574.586c19.896 0 37.406-14.472 39.744-34.227 0.172-1.378 0.271-2.973 0.271-4.591 0-18.88-13.385-34.633-31.182-38.289l-0.252-0.043h-591.746c-18.073 3.681-31.48 19.446-31.48 38.342 0 1.615 0.098 3.207 0.288 4.77l-0.019-0.188c2.385 19.755 19.966 34.227 39.791 34.227zM629.643 78.027v-2.057c0-46.267-33.409-83.86-74.392-83.86h-341.918c-40.983 0-74.345 37.617-74.392 83.86v2.057l-37.967 552.329h566.59zM355.197 465.16v-286.252c-0.002-0.11-0.002-0.241-0.002-0.372 0-15.47 12.236-28.082 27.558-28.687l0.055-0.002c0.132-0.002 0.288-0.004 0.444-0.004 15.494 0 28.055 12.561 28.055 28.055 0 0.001 0 0.002 0 0.004v0 288.263c0 0.001 0 0.002 0 0.004 0 15.494-12.561 28.055-28.055 28.055-0.156 0-0.312-0.001-0.468-0.004h0.023c-15.377-0.606-27.613-13.218-27.613-28.688 0-0.131 0.001-0.261 0.003-0.391v0.020zM481.444 409.144v-174.22c-0.002-0.11-0.002-0.241-0.002-0.372 0-15.47 12.236-28.082 27.558-28.687l0.055-0.002c0.132-0.002 0.288-0.004 0.444-0.004 15.494 0 28.055 12.561 28.055 28.055 0 0.001 0 0.002 0 0.004v0 176.231c0 0.001 0 0.002 0 0.004 0 15.494-12.561 28.055-28.055 28.055-0.156 0-0.312-0.001-0.468-0.004h0.023c-15.377-0.606-27.613-13.218-27.613-28.688 0-0.131 0.001-0.261 0.003-0.391v0.020zM231.288 409.144v-174.22c-0.002-0.11-0.002-0.241-0.002-0.372 0-15.47 12.236-28.082 27.558-28.687l0.055-0.002c0.132-0.002 0.288-0.004 0.444-0.004 15.494 0 28.055 12.561 28.055 28.055 0 0.001 0 0.002 0 0.004v0 176.231c0 0.001 0 0.002 0 0.004 0 15.494-12.561 28.055-28.055 28.055-0.156 0-0.312-0.001-0.468-0.004h0.023c-15.377-0.606-27.613-13.218-27.613-28.688 0-0.131 0.001-0.261 0.003-0.391v0.020z" />
<glyph unicode="&#xe914;" glyph-name="eye" horiz-adv-x="1419" d="M709.553-46.356c-3.664-0.067-7.985-0.105-12.315-0.105-314 0-581.029 201.104-679.314 481.54l-1.54 5.044c-0.54 2.291-0.849 4.923-0.849 7.626 0 3.573 0.541 7.020 1.545 10.264l-0.065-0.246c99.825 285.48 366.855 486.584 680.854 486.584 4.33 0 8.651-0.038 12.963-0.114l-0.648 0.009c3.424 0.059 7.463 0.092 11.51 0.092 313.878 0 580.781-201.125 678.864-481.53l1.536-5.041c0.892-2.925 1.405-6.286 1.405-9.767s-0.513-6.843-1.468-10.013l0.064 0.245c-99.398-285.435-366.186-486.6-679.958-486.6-4.645 0-9.28 0.044-13.904 0.132l0.693-0.010zM79.399 449.575c94.382-254.751 335.282-433.031 617.822-433.031 4.336 0 8.662 0.042 12.979 0.126l-0.647-0.010c3.669-0.074 7.996-0.116 12.332-0.116 282.54 0 523.44 178.28 616.343 428.484l1.479 4.547c-94.21 255.081-335.275 433.657-618.049 433.657-4.256 0-8.503-0.040-12.74-0.121l0.635 0.010c-3.733 0.076-8.133 0.12-12.544 0.12-282.661 0-523.607-178.605-616.138-429.117l-1.471-4.549zM722.156-64h-34.658c-318.174 3.378-587.492 208.821-685.95 493.927l-1.548 5.155c-1.148 4.063-1.808 8.728-1.808 13.548s0.66 9.486 1.894 13.912l-0.087-0.363c101.253 293.091 374.805 499.837 696.644 499.837 4.761 0 9.511-0.045 14.251-0.135l-0.711 0.011h11.973c320.080-0.348 592.075-205.835 691.612-492.047l1.557-5.144c1.316-4.34 2.074-9.328 2.074-14.494s-0.758-10.153-2.168-14.859l0.094 0.366c-100.1-292.522-372.431-499.183-693.105-499.712h-0.064zM730.978-29.972v0c302.624 3.113 558.985 197.756 653.861 468.338l1.499 4.908c0.435 1.511 0.685 3.247 0.685 5.041s-0.25 3.53-0.717 5.174l0.032-0.133c-96.782 278.739-357.173 475.251-663.463 475.251-4.463 0-8.915-0.042-13.358-0.125l0.666 0.010h-11.973c-0.455 0.001-0.993 0.002-1.532 0.002-306.715 0-567.487-196.704-663.047-470.843l-1.494-4.925c-0.332-1.325-0.522-2.846-0.522-4.411s0.19-3.086 0.549-4.541l-0.027 0.13c97.209-278.377 357.53-474.508 663.66-474.508 0.627 0 1.253 0.001 1.879 0.002h33.931zM696.32 0.906c-287.795 0.723-533.072 181.976-628.626 436.467l-1.528 4.64v5.671l-3.151 10.082c96.931 259.244 342.298 440.579 630.088 441.108h25.272c287.856-0.529 533.223-181.864 628.63-436.469l1.524-4.639v-10.713c-97.082-259.132-342.358-440.385-630.064-441.108h-0.090zM96.414 449.575c94.391-245.881 328.569-417.245 602.771-417.245 3.646 0 7.284 0.030 10.916 0.091l-0.547-0.007c3.529-0.070 7.691-0.109 11.862-0.109 273.982 0 507.925 171.424 600.425 412.867l1.483 4.404c-93.44 246.075-327.28 417.792-601.227 417.792-0.2 0-0.401 0-0.601 0h-11.942c-3.662 0.075-7.98 0.118-12.307 0.118-273.876 0-507.627-171.798-599.366-413.506l-1.467-4.404zM709.553 142.69c-0.003 0-0.007 0-0.010 0-169.994 0-307.968 137.092-309.394 306.749l-0.001 0.136c0 17.401 14.106 31.508 31.508 31.508s31.508-14.106 31.508-31.508v0c0-136.426 110.595-247.020 247.020-247.020s247.020 110.595 247.020 247.020c0 136.426-110.595 247.020-247.020 247.020v0c-17.401 0-31.508 14.106-31.508 31.508s14.106 31.508 31.508 31.508v0c12.51 1.788 26.957 2.809 41.643 2.809 171.228 0 310.036-138.808 310.036-310.036s-138.808-310.036-310.036-310.036c-5.116 0-10.204 0.124-15.259 0.369l0.713-0.028h-27.727zM723.417 124.416h-30.247c-172.251 9.611-308.345 151.422-308.775 325.116v0.043c0 26.102 21.16 47.262 47.262 47.262s47.262-21.16 47.262-47.262v0c0-127.725 103.542-231.266 231.266-231.266s231.266 103.542 231.266 231.266c0 127.725-103.542 231.266-231.266 231.266v0c-26.102 0-47.262 21.16-47.262 47.262s21.16 47.262 47.262 47.262v0c3.371 0.125 7.33 0.196 11.306 0.196 179.929 0 325.79-145.861 325.79-325.79 0-84.676-32.304-161.806-85.26-219.74l0.226 0.25c-56.357-61.908-135.952-101.809-224.893-105.841l-0.702-0.025zM431.655 465.329c-8.701 0-15.754-7.053-15.754-15.754v0c1.778-160.952 132.495-290.784 293.618-291.131h27.13c158.15 5.567 284.243 135.113 284.243 294.111 0 162.527-131.754 294.282-294.282 294.282-5.779 0-11.519-0.167-17.216-0.495l0.788 0.036c-0.188 0.008-0.409 0.013-0.63 0.013-8.701 0-15.754-7.053-15.754-15.754 0-0.004 0-0.009 0-0.013v0.001c0-8.701 7.053-15.754 15.754-15.754v0c0.183 0 0.401 0.001 0.618 0.001 145.126 0 262.774-117.648 262.774-262.774s-117.648-262.774-262.774-262.774c-144.24 0-261.336 116.215-262.761 260.118l-0.001 0.135c0 8.701-7.053 15.754-15.754 15.754v0z" />
</font>
</defs>
</svg>
