<svg id="Layer_1" data-name="Layer 1" xmlns="http://www.w3.org/2000/svg" width="53.31" height="57.19" viewBox="0 0 53.31 57.19"><defs><style>.cls-1{fill:#394553;}</style></defs><title>1</title><path class="cls-1" d="M26.63,14.47a7.23,7.23,0,1,1,7.23-7.23A7.24,7.24,0,0,1,26.63,14.47Zm0-12.15a4.92,4.92,0,1,0,4.92,4.92A4.92,4.92,0,0,0,26.63,2.31Z"/><path class="cls-1" d="M30,57.19,30,39.7h1.16a4,4,0,0,0,2.75-1.09A3.48,3.48,0,0,0,35,36.08V23a3.76,3.76,0,0,0-3.88-3.61h-9a3.89,3.89,0,0,0-2.71,1.09A3.51,3.51,0,0,0,18.31,23V36.1a3.74,3.74,0,0,0,3.84,3.61h1.16l0,17.48H21l0-15.27a6,6,0,0,1-5-5.82V23a5.8,5.8,0,0,1,1.81-4.21A6.2,6.2,0,0,1,22.13,17h9A6.08,6.08,0,0,1,37.31,23V36.08a5.76,5.76,0,0,1-1.83,4.21,6.24,6.24,0,0,1-3.19,1.62l0,15.28Z"/><path class="cls-1" d="M44.22,20.68a7.23,7.23,0,1,1,7.23-7.23A7.24,7.24,0,0,1,44.22,20.68Zm0-12.15a4.92,4.92,0,1,0,4.92,4.92A4.93,4.93,0,0,0,44.22,8.52Z"/><path class="cls-1" d="M46,57.19,46,43.3h1.16a4,4,0,0,0,2.75-1.09A3.48,3.48,0,0,0,51,39.68L51,30a3.48,3.48,0,0,0-1.12-2.53,4,4,0,0,0-2.75-1.08h-6V24h6a6.28,6.28,0,0,1,4.34,1.72A5.77,5.77,0,0,1,53.3,30l0,9.72a5.77,5.77,0,0,1-1.83,4.21,6.24,6.24,0,0,1-3.19,1.62l0,11.68Z"/><path class="cls-1" d="M9,20.68a7.23,7.23,0,1,1,7.23-7.23A7.24,7.24,0,0,1,9,20.68ZM9,8.52a4.92,4.92,0,1,0,4.92,4.92A4.93,4.93,0,0,0,9,8.52Z"/><path class="cls-1" d="M7.31,57.19H5L5,45.51a6.24,6.24,0,0,1-3.19-1.62A5.77,5.77,0,0,1,0,39.67L0,30A6.07,6.07,0,0,1,6.2,24h7v2.31h-7A3.75,3.75,0,0,0,2.33,30l0,9.72a3.47,3.47,0,0,0,1.11,2.53A4,4,0,0,0,6.18,43.3H7.34Z"/></svg>