<svg id="Layer_1" data-name="Layer 1" xmlns="http://www.w3.org/2000/svg" width="75.4" height="61.21" viewBox="0 0 75.4 61.21"><defs><style>.cls-1{fill:#394553;}</style></defs><title>2</title><polygon class="cls-1" points="26.87 45.59 0 30.75 16.98 0 48.6 17.46 34.22 43.45 32.03 42.24 45.2 18.44 17.95 3.4 3.4 29.77 28.08 43.4 26.87 45.59"/><polygon class="cls-1" points="30.39 23.54 21.86 18.83 27.89 7.91 30.08 9.11 25.25 17.85 29.41 20.14 34.24 11.41 36.42 12.62 30.39 23.54"/><path class="cls-1" d="M17.82,47.72a1.25,1.25,0,0,1-.6-.16L2.11,39.22A1.25,1.25,0,0,1,3.32,37l15.1,8.34a1.25,1.25,0,0,1-.6,2.34Z"/><rect class="cls-1" x="14.67" y="36.62" width="2.5" height="17.67" transform="translate(-31.54 37.27) rotate(-60.91)"/><polygon class="cls-1" points="40.4 45.56 38.22 44.35 55.92 12.38 61.64 12.33 61.66 14.83 57.41 14.86 40.4 45.56"/><path class="cls-1" d="M33.56,61.21a7.39,7.39,0,1,1,2.06-.29A7.42,7.42,0,0,1,33.56,61.21Zm0-12.26a4.91,4.91,0,0,0-1.36.19,4.88,4.88,0,1,0,5.62,7h0A4.88,4.88,0,0,0,33.57,49Z"/><path class="cls-1" d="M71.88,17.87H64.42a3.52,3.52,0,0,1-3.52-3.52V11.89a3.52,3.52,0,0,1,3.52-3.52h7.46a3.52,3.52,0,0,1,3.52,3.52v2.46A3.52,3.52,0,0,1,71.88,17.87Zm-7.46-7a1,1,0,0,0-1,1v2.46a1,1,0,0,0,1,1h7.46a1,1,0,0,0,1-1V11.89a1,1,0,0,0-1-1Z"/></svg>