<svg id="Layer_1" data-name="Layer 1" xmlns="http://www.w3.org/2000/svg" width="61.49" height="67.03" viewBox="0 0 61.49 67.03"><defs><style>.cls-1{fill:#394553;}</style></defs><title>3</title><path class="cls-1" d="M30.82,65.78H4.48A4.49,4.49,0,0,1,0,61.29V13.62A4.49,4.49,0,0,1,4.48,9.14H8.82v2.64H4.48a1.85,1.85,0,0,0-1.85,1.85V61.29a1.85,1.85,0,0,0,1.85,1.85H30.82Z"/><path class="cls-1" d="M47.64,31H45V13.62a1.85,1.85,0,0,0-1.85-1.85H38.82V9.14h4.33a4.49,4.49,0,0,1,4.48,4.48Z"/><path class="cls-1" d="M45.58,67A15.91,15.91,0,1,1,61.49,51.11,15.93,15.93,0,0,1,45.58,67Zm0-29.19A13.28,13.28,0,1,0,58.85,51.11,13.29,13.29,0,0,0,45.58,37.84Z"/><polygon class="cls-1" points="45.05 57.24 38.07 51.57 39.73 49.52 44.62 53.49 51.4 44.73 53.49 46.35 45.05 57.24"/><path class="cls-1" d="M35.64,15.78H12V5.14h5.42a6.56,6.56,0,0,1,12.8,0h5.42Zm-21-2.64H33V7.78H27.76l0-1.29a3.92,3.92,0,0,0-7.84,0l0,1.29H14.64Z"/><rect class="cls-1" x="10.32" y="26.46" width="1" height="1"/><rect class="cls-1" x="9" y="25.14" width="3.64" height="3.64"/><rect class="cls-1" x="17.82" y="25.14" width="21" height="2.64"/><rect class="cls-1" x="10.32" y="34.46" width="1" height="1"/><rect class="cls-1" x="9" y="33.14" width="3.64" height="3.64"/><rect class="cls-1" x="17.82" y="34.14" width="16" height="2.64"/><rect class="cls-1" x="10.32" y="43.46" width="1" height="1"/><rect class="cls-1" x="9" y="42.14" width="3.64" height="3.64"/><rect class="cls-1" x="17.82" y="42.14" width="9" height="2.64"/><rect class="cls-1" x="10.32" y="51.46" width="1" height="1"/><rect class="cls-1" x="9" y="50.14" width="3.64" height="3.64"/><rect class="cls-1" x="17.82" y="51.14" width="8" height="2.64"/></svg>