<svg id="Layer_1" data-name="Layer 1" xmlns="http://www.w3.org/2000/svg" width="62.89" height="59.1" viewBox="0 0 62.89 59.1"><defs><style>.cls-1{fill:#394553;}</style></defs><title>4</title><polygon class="cls-1" points="59 59.1 0 59.1 0 25.1 35 25.1 35 28.1 3 28.1 3 57.1 56 57.1 56 33.1 59 33.1 59 59.1"/><path class="cls-1" d="M30.35,36.1h-21A1.57,1.57,0,0,1,8.1,34.66,1.87,1.87,0,0,1,9.35,33.1h21a1.87,1.87,0,0,1,1.25,1.57A1.57,1.57,0,0,1,30.35,36.1Z"/><path class="cls-1" d="M30.35,43.1h-21A1.61,1.61,0,0,1,8.1,41.65,1.83,1.83,0,0,1,9.35,40.1h21a1.83,1.83,0,0,1,1.25,1.55A1.61,1.61,0,0,1,30.35,43.1Z"/><path class="cls-1" d="M47,52.1H33.51c-.69-.71-1.25-1.26-1.25-2a1,1,0,0,1,1.25-1H47a1,1,0,0,1,1.25,1C48.23,50.83,47.67,51.39,47,52.1Z"/><path class="cls-1" d="M41.93,41.81a1.25,1.25,0,0,1-1.23-1L39,30.52a1.24,1.24,0,0,1,.08-.68L49.94,3.26A5.26,5.26,0,0,1,56.79.39l2.83,1.16A5.26,5.26,0,0,1,62.49,8.4L51.6,35a1.24,1.24,0,0,1-.43.54l-8.51,6.06A1.25,1.25,0,0,1,41.93,41.81ZM41.5,30.45l1.33,7.93,6.59-4.69L60.18,7.45a2.76,2.76,0,0,0-1.5-3.59L55.84,2.71a2.76,2.76,0,0,0-3.59,1.5Zm8.95,3.64h0Z"/><path class="cls-1" d="M40.63,44.95a1.23,1.23,0,0,1-.47-.09,1.25,1.25,0,0,1-.68-1.63l1.29-3.14a1.25,1.25,0,1,1,2.31.95l-1.29,3.14A1.25,1.25,0,0,1,40.63,44.95Z"/><path class="cls-1" d="M50.66,34.06a1.23,1.23,0,0,1-.47-.09l-9.41-3.85a1.25,1.25,0,0,1,.95-2.31l9.41,3.86a1.25,1.25,0,0,1-.47,2.41Z"/><rect class="cls-1" x="49.37" y="1.83" width="2.5" height="17.63" transform="translate(21.58 53.45) rotate(-67.72)"/><path class="cls-1" d="M38.95,16.37a1.25,1.25,0,0,1-1.16-1.72L42.55,3A1.25,1.25,0,1,1,44.86,4L40.1,15.6A1.25,1.25,0,0,1,38.95,16.37Z"/></svg>