<svg id="Layer_1" data-name="Layer 1" xmlns="http://www.w3.org/2000/svg" width="50.55" height="64.5" viewBox="0 0 50.55 64.5"><defs><style>.cls-1{fill:#394553;}</style></defs><title>5</title><path class="cls-1" d="M25.32,64.5h-.09a1.25,1.25,0,0,1-.54-.12C-.58,52.31-.1,39.55,0,38.22V11.78a1.25,1.25,0,0,1,1.25-1.25c18.61,0,22.63-9.34,22.79-9.74A1.26,1.26,0,0,1,25.23,0a1.38,1.38,0,0,1,1.25.79c.16.39,4.18,9.73,22.79,9.73a1.25,1.25,0,0,1,1.25,1.25V38.22c.12,1.33.6,14.09-24.67,26.16A1.25,1.25,0,0,1,25.32,64.5Zm0-1.25h0ZM2.52,13V38.28a1.28,1.28,0,0,1,0,.16c0,.11-1,11.91,22.76,23.44C49.27,50.26,48,38.56,48,38.44a1.28,1.28,0,0,1,0-.16V13c-14.45-.32-20.52-6.2-22.75-9.36C23,6.82,17,12.69,2.52,13Z"/><path class="cls-1" d="M24.18,42.16a1.25,1.25,0,0,1-.9-.38L12.85,31.07a1.25,1.25,0,1,1,1.79-1.74L24,39l11.55-16a1.25,1.25,0,1,1,2,1.46L25.19,41.64a1.25,1.25,0,0,1-.92.52Z"/></svg>