<svg id="Layer_1" data-name="Layer 1" xmlns="http://www.w3.org/2000/svg" width="80.5" height="51.46" viewBox="0 0 80.5 51.46"><defs><style>.cls-1{fill:#374555;}</style></defs><title>6</title><rect class="cls-1" x="17" y="15.75" width="2.5" height="4"/><path class="cls-1" d="M20.75,45.5h-6.5A1.25,1.25,0,0,1,13,44.25v-11A1.25,1.25,0,0,1,14.25,32h45.5v2.5H15.5V43h5.25Z"/><rect class="cls-1" x="35.75" y="43" width="22" height="2.5"/><path class="cls-1" d="M77.62,45.5H72.75V43h4.9a.4.4,0,0,0,.17-.07,1.21,1.21,0,0,0,.18-.78v-10c0-.86-.44-1.12-.58-1.17L73,29.42a1.25,1.25,0,0,1-.8-.87,30.42,30.42,0,0,0-5-10.05H58.5V39.75H56V17.25A1.25,1.25,0,0,1,57.25,16H67.76a1.25,1.25,0,0,1,.94.42,31.16,31.16,0,0,1,5.71,10.84l3.86,1.33a3.58,3.58,0,0,1,2.23,3.53v10a3.39,3.39,0,0,1-1,2.65A2.8,2.8,0,0,1,77.62,45.5Z"/><path class="cls-1" d="M67.86,30.5H63.25a1.25,1.25,0,0,1,0-2.5h3A38.9,38.9,0,0,0,64,23a1.25,1.25,0,0,1,2.2-1.19A32.68,32.68,0,0,1,69.09,29a1.25,1.25,0,0,1-1.23,1.47Z"/><path class="cls-1" d="M67.57,51.46a6.36,6.36,0,1,1,6.36-6.36A6.36,6.36,0,0,1,67.57,51.46Zm0-10.21a3.86,3.86,0,1,0,3.86,3.86A3.86,3.86,0,0,0,67.57,41.25Z"/><path class="cls-1" d="M25.93,51.46a6.36,6.36,0,1,1,6.36-6.36A6.36,6.36,0,0,1,25.93,51.46Zm0-10.21a3.86,3.86,0,1,0,3.86,3.86A3.86,3.86,0,0,0,25.93,41.25Z"/><path class="cls-1" d="M24.25,24.5h-15a1.25,1.25,0,0,1,0-2.5h15a1.25,1.25,0,0,1,0,2.5Z"/><path class="cls-1" d="M11.25,29.5h-8a1.25,1.25,0,0,1,0-2.5h8a1.25,1.25,0,0,1,0,2.5Z"/><path class="cls-1" d="M13.25,8.5h-12a1.25,1.25,0,0,1,0-2.5h12a1.25,1.25,0,0,1,0,2.5Z"/><path class="cls-1" d="M18.25,16.5h-10a1.25,1.25,0,0,1,0-2.5h10a1.25,1.25,0,0,1,0,2.5Z"/><rect class="cls-1" x="17" y="23.75" width="2.5" height="10"/><polygon class="cls-1" points="53.5 33.75 51 33.75 51 2.5 19.5 2.5 19.5 10.75 17 10.75 17 0 53.5 0 53.5 33.75"/><polygon class="cls-1" points="39.5 10.5 30 10.5 30 0.75 32.5 0.75 32.5 8 37 8 37 0.75 39.5 0.75 39.5 10.5"/></svg>