<svg id="Layer_1" data-name="Layer 1" xmlns="http://www.w3.org/2000/svg" width="70.63" height="50.02" viewBox="0 0 70.63 50.02"><defs><style>.cls-1{fill:#394553;}</style></defs><title>7</title><path class="cls-1" d="M57.15,43.13a1.25,1.25,0,0,1-1-2L68.39,25.2a1.25,1.25,0,1,1,2,1.52L58.14,42.64A1.25,1.25,0,0,1,57.15,43.13Z"/><polygon class="cls-1" points="23.23 49.97 0 49.97 0 40.47 14 40.47 14 35.97 0 35.97 0 26.47 14 26.47 14 21.97 0 21.97 0 13.29 13.6 0.34 15.32 2.15 2.5 14.37 2.5 19.47 16.5 19.47 16.5 28.97 2.5 28.97 2.5 33.47 16.5 33.47 16.5 42.97 2.5 42.97 2.5 47.47 22.19 47.47 31.34 38.37 33.1 40.14 23.23 49.97"/><polygon class="cls-1" points="23.5 48.22 21 48.22 21 14.97 1.75 14.97 1.75 12.47 23.5 12.47 23.5 48.22"/><path class="cls-1" d="M50.62,16.1A1.25,1.25,0,0,1,49.74,14l11.5-11.5A1.25,1.25,0,0,1,63,4.24L51.5,15.74A1.25,1.25,0,0,1,50.62,16.1Z"/><path class="cls-1" d="M44.8,50H31V13.21L43.77.27,45.55,2,35.24,12.47H44.8a14.72,14.72,0,0,1,14.7,14.7v8.09A14.72,14.72,0,0,1,44.8,50Zm-11.3-2.5H44.8A12.22,12.22,0,0,0,57,35.27V27.18A12.22,12.22,0,0,0,44.8,15H33.5Z"/><path class="cls-1" d="M45.62,43H38V19.47h7.62a7.88,7.88,0,0,1,7.88,7.88V35.1A7.88,7.88,0,0,1,45.62,43Zm-5.12-2.5h5.12A5.38,5.38,0,0,0,51,35.1V27.35A5.38,5.38,0,0,0,45.62,22H40.5Z"/><path class="cls-1" d="M22.71,15.09A1.25,1.25,0,0,1,21.83,13L34.37.42a1.25,1.25,0,1,1,1.77,1.77L23.6,14.72A1.25,1.25,0,0,1,22.71,15.09Z"/><path class="cls-1" d="M32.56,15.09A1.25,1.25,0,0,1,31.67,13L44.21.42A1.25,1.25,0,0,1,46,2.19L33.44,14.72A1.25,1.25,0,0,1,32.56,15.09Z"/><path class="cls-1" d="M22.74,50a1.25,1.25,0,0,1-.89-2.13L31.66,38a1.25,1.25,0,1,1,1.77,1.76l-9.81,9.84A1.25,1.25,0,0,1,22.74,50Z"/><path class="cls-1" d="M1.52,15.08a1.25,1.25,0,0,1-.86-2.15L13.84.35a1.25,1.25,0,1,1,1.73,1.81L2.39,14.73A1.25,1.25,0,0,1,1.52,15.08Z"/></svg>