<svg id="Layer_1" data-name="Layer 1" xmlns="http://www.w3.org/2000/svg" width="61.5" height="60.92" viewBox="0 0 61.5 60.92"><defs><style>.cls-1{fill:#394553;}</style></defs><title>8</title><path class="cls-1" d="M44.25,15.5h-27a1.25,1.25,0,0,1,0-2.5h27a1.25,1.25,0,0,1,0,2.5Z"/><path class="cls-1" d="M41.25,21.5h-21a1.25,1.25,0,0,1,0-2.5h21a1.25,1.25,0,0,1,0,2.5Z"/><path class="cls-1" d="M30.88,28.72a8.79,8.79,0,1,1-8.79,8.79,8.8,8.8,0,0,1,8.79-8.79m0-2.5A11.29,11.29,0,1,0,42.17,37.51,11.29,11.29,0,0,0,30.88,26.22Z"/><path class="cls-1" d="M30.88,34a3.47,3.47,0,1,1-3.48,3.47A3.48,3.48,0,0,1,30.88,34m0-2.5a6,6,0,1,0,6,6,6,6,0,0,0-6-6Z"/><path class="cls-1" d="M38.37,60.92a1.25,1.25,0,0,1-1.13-.72l-5.6-11.89,2.26-1.07,4.1,8.7.69-2.83a1.25,1.25,0,0,1,1.72-.84l2.75,1.22-4.74-9.9,2.25-1.08,6.21,13a1.25,1.25,0,0,1-1.64,1.68l-4.49-2L39.58,60a1.25,1.25,0,0,1-1.09.95Z"/><path class="cls-1" d="M23.39,60.92h-.12A1.25,1.25,0,0,1,22.17,60L21,55.16l-4.49,2a1.25,1.25,0,0,1-1.63-1.69l4.38-9,2.25,1.09-2.88,5.93,2.72-1.21a1.25,1.25,0,0,1,1.72.84l.69,2.83,4.1-8.7,2.26,1.07L24.52,60.2A1.25,1.25,0,0,1,23.39,60.92Z"/><polygon class="cls-1" points="61.5 45.5 45.75 45.5 45.75 43 59 43 59 2.5 2.5 2.5 2.5 43 16.75 43 16.75 45.5 0 45.5 0 0 61.5 0 61.5 45.5"/><polygon class="cls-1" points="8.5 13.75 6 13.75 6 5 14.75 5 14.75 7.5 8.5 7.5 8.5 13.75"/><polygon class="cls-1" points="56.5 13.75 54 13.75 54 7.5 47.75 7.5 47.75 5 56.5 5 56.5 13.75"/><polygon class="cls-1" points="56.5 40.5 47.75 40.5 47.75 38 54 38 54 31.75 56.5 31.75 56.5 40.5"/><polygon class="cls-1" points="14.75 40.5 6 40.5 6 31.75 8.5 31.75 8.5 38 14.75 38 14.75 40.5"/></svg>