<svg id="Calque_2" data-name="Calque 2" xmlns="http://www.w3.org/2000/svg" width="62.58" height="51.37" viewBox="0 0 62.58 51.37"><defs><style>.cls-1{fill:#394553;}</style></defs><title>service-1</title><path class="cls-1" d="M21.07,29.72A7.67,7.67,0,0,0,15,27.89l-.48,0h-.12A14,14,0,0,1,1,8.72a1.14,1.14,0,0,1,1.86-.38l6.75,6.75a3.78,3.78,0,0,0,2.69,1.11h0A3.78,3.78,0,0,0,15,15.08a3.87,3.87,0,0,0,0-5.48L8.34,2.88A1.14,1.14,0,0,1,8.72,1,14,14,0,0,1,27.91,14.46c0,.21,0,.37,0,.57A7.66,7.66,0,0,0,29.7,21.1L28,22.66a9.84,9.84,0,0,1-2.43-7.77c0-.16,0-.29,0-.39v-.12A11.69,11.69,0,0,0,11.27,2.59L16.67,8a6.13,6.13,0,0,1,0,8.64,6.07,6.07,0,0,1-4.35,1.84h0A6,6,0,0,1,8,16.7L2.59,11.27A11.68,11.68,0,0,0,14.38,25.63h.14l.37,0a9.85,9.85,0,0,1,7.75,2.45Z"/><path class="cls-1" d="M45.31,51.36A7.63,7.63,0,0,1,40,48.84l-5.6-5.6L36,41.63l5.6,5.6c1,1,3.69,3.17,6.09.76l.1-.1A3.26,3.26,0,0,0,48.88,45,6,6,0,0,0,47,41.82L41.27,36l1.61-1.61,5.78,5.78c3.06,3.06,3.37,6.7.78,9.29l-.1.1A5.62,5.62,0,0,1,45.31,51.36Z"/><rect class="cls-1" x="39.63" y="17.22" width="12.32" height="2.27" transform="translate(0.43 37.76) rotate(-45)"/><path class="cls-1" d="M56.66,16.11,50,15.36l-1.18-1.19L48,7.5l9.73-5.93,4.81,4.81ZM51,13.19l4.44.5,4.24-7L57.43,4.44l-7,4.24.5,4.44Z"/><path class="cls-1" d="M20,51.37a6.58,6.58,0,0,1-4.67-1.93l-.62-.62a6.61,6.61,0,0,1,0-9.33L32.62,21.59a6.61,6.61,0,0,1,9.33,0l.61.61a6.61,6.61,0,0,1,0,9.33L24.65,49.44h0A6.57,6.57,0,0,1,20,51.37ZM37.28,21.94a4.29,4.29,0,0,0-3.06,1.26L16.32,41.1a4.33,4.33,0,0,0,0,6.11l.62.62a4.33,4.33,0,0,0,6.11,0L41,29.92a4.34,4.34,0,0,0,0-6.11l-.62-.61A4.29,4.29,0,0,0,37.28,21.94Z"/><path class="cls-1" d="M21,44.29a1.14,1.14,0,0,1-.8-1.94L35.34,27.2a1.14,1.14,0,0,1,1.61,1.61L21.8,44A1.13,1.13,0,0,1,21,44.29Z"/></svg>