<svg id="Calque_2" data-name="Calque 2" xmlns="http://www.w3.org/2000/svg" width="45.13" height="60.9" viewBox="0 0 45.13 60.9"><defs><style>.cls-1{fill:#394553;}</style></defs><title>service-2</title><path class="cls-1" d="M29.22,28.58H9.6a1.07,1.07,0,1,1,0-2.13H29.22a1.07,1.07,0,0,1,0,2.13Z"/><path class="cls-1" d="M29.22,23.46H9.6a1.07,1.07,0,0,1,0-2.13H29.22a1.07,1.07,0,1,1,0,2.13Z"/><path class="cls-1" d="M18.13,39.68H9.6a1.07,1.07,0,0,1,0-2.13h8.53a1.07,1.07,0,1,1,0,2.13Z"/><path class="cls-1" d="M21.54,34.56H9.6a1.07,1.07,0,0,1,0-2.13H21.54a1.07,1.07,0,0,1,0,2.13Z"/><path class="cls-1" d="M25.46,60.9h-.12a1.07,1.07,0,0,1-.92-.81l-1-4.17-3.9,1.74a1.07,1.07,0,0,1-1.39-1.45l3.28-6.51,1.91,1-1.93,3.84,2.34-1a1.07,1.07,0,0,1,1.47.72l.64,2.6L29,50.48l1.91,1-4.46,8.88A1.07,1.07,0,0,1,25.46,60.9Z"/><path class="cls-1" d="M37.67,60.9a1.07,1.07,0,0,1-1-.59l-4.47-8.9a1.07,1.07,0,1,1,1.91-1l3.17,6.31.64-2.6a1.07,1.07,0,0,1,1.47-.72l2.35,1-3.5-7a1.07,1.07,0,0,1,1.91-1L45,56.19a1.07,1.07,0,0,1-1.39,1.45l-3.9-1.74-1,4.17a1.07,1.07,0,0,1-.92.81Z"/><path class="cls-1" d="M31.57,34.41a7.64,7.64,0,1,1-7.64,7.64,7.65,7.65,0,0,1,7.64-7.64m0-2.13a9.78,9.78,0,1,0,9.77,9.78,9.78,9.78,0,0,0-9.77-9.78Z"/><path class="cls-1" d="M31.57,39.3a2.75,2.75,0,1,1-2.75,2.75,2.76,2.76,0,0,1,2.75-2.75m0-2.13a4.89,4.89,0,1,0,4.88,4.89,4.89,4.89,0,0,0-4.88-4.89Z"/><path class="cls-1" d="M17.71,52.48H4.48A4.48,4.48,0,0,1,0,48V8.91L10.11,0H35.2a4.48,4.48,0,0,1,4.48,4.48V31.36H37.54V4.48A2.35,2.35,0,0,0,35.2,2.13H10.91L2.13,9.87V48a2.35,2.35,0,0,0,2.35,2.35H17.71Z"/><polygon class="cls-1" points="12.37 13.22 5.76 13.22 5.76 11.09 10.24 11.09 10.24 1.49 12.37 1.49 12.37 13.22"/></svg>