<svg id="Calque_4" data-name="Calque 4" xmlns="http://www.w3.org/2000/svg" width="47.97" height="50.06" viewBox="0 0 47.97 50.06"><defs><style>.cls-1{fill:#394553;}</style></defs><title>service-5</title><path class="cls-1" d="M17.58,14.8A7.4,7.4,0,1,1,25,7.4a1,1,0,1,1-2,0,5.43,5.43,0,1,0-5.43,5.43,1,1,0,1,1,0,2Z"/><path class="cls-1" d="M17.7,50.06a7.33,7.33,0,0,1-1.78-.22,7.24,7.24,0,0,1-4.49-3.32,7.34,7.34,0,0,1,.87-8.69l3.59-3.9a1,1,0,1,1,1.45,1.33l-3.58,3.9a5.35,5.35,0,0,0-.64,6.34A5.32,5.32,0,0,0,23,42.89a1,1,0,0,1,1-1h0a1,1,0,0,1,1,1,7.31,7.31,0,0,1-7.28,7.11Z"/><path class="cls-1" d="M30.44,50a7.19,7.19,0,0,1-7.21-7.1V7.4A7.38,7.38,0,0,1,30.58,0a7.75,7.75,0,0,1,4.81,1.81,1,1,0,0,1-1.28,1.5A5.78,5.78,0,0,0,30.58,2,5.41,5.41,0,0,0,25.2,7.4V42.92a5.22,5.22,0,0,0,2.86,4.59,5.32,5.32,0,0,0,6.33-8.35l-.49-.53a1,1,0,1,1,1.45-1.34l.49.53A7.29,7.29,0,0,1,30.44,50Z"/><path class="cls-1" d="M11.19,43.8h-.07A7.88,7.88,0,0,1,5,40.8c-2.27-3-1.84-7.38-1.59-8.9A10.82,10.82,0,0,1,0,24c.12-4.27,3-7.59,4.17-8.72-1-4.91.9-7.12,2.76-8.11A1,1,0,1,1,7.86,8.9C6,9.91,5.4,12.08,6.22,15.35a1,1,0,0,1-.31,1S2.09,19.72,2,24c-.06,2.39,1,4.68,3.19,6.81a1,1,0,0,1,.27.92s-1,4.92,1.15,7.84a6,6,0,0,0,4.66,2.21,1,1,0,0,1-.06,2Z"/><path class="cls-1" d="M20.35,10.21a4.32,4.32,0,0,1-2.68-.93,1,1,0,0,1,1.22-1.55A2.37,2.37,0,0,0,21.81,4,1,1,0,1,1,23,2.45a4.34,4.34,0,0,1-2.68,7.75Z"/><path class="cls-1" d="M13.42,20.82a1,1,0,0,1-.24,0,4.34,4.34,0,1,1,2.07-8.43,1,1,0,1,1-.47,1.92A2.38,2.38,0,0,0,11.92,16a2.38,2.38,0,0,0,1.74,2.86,1,1,0,0,1-.23,1.94Z"/><path class="cls-1" d="M9.91,31.11a1,1,0,0,1,0-2c2.38,0,6.25-4.71,8.13-7.68l.09-.13a4.42,4.42,0,0,1,3.07-1.47A4.47,4.47,0,0,1,24.44,21a1,1,0,1,1-1.33,1.46,2.47,2.47,0,0,0-3.45.1C18.92,23.75,14,31.11,9.91,31.11Z"/><path class="cls-1" d="M24,42.72h0a1,1,0,0,1-.94-1,1.44,1.44,0,0,0-2.7-.75A1,1,0,1,1,18.58,40,3.41,3.41,0,0,1,25,41.77,1,1,0,0,1,24,42.72Z"/><path class="cls-1" d="M14.23,38.05A1,1,0,0,1,13.9,38l-3.56-1.25A1,1,0,1,1,11,34.88l3.56,1.25a1,1,0,0,1-.33,1.92Z"/><path class="cls-1" d="M14.12,28.61a1,1,0,0,1-.72-.32A20.25,20.25,0,0,0,8,24.37a1,1,0,0,1,.84-1.79,21.92,21.92,0,0,1,6,4.37,1,1,0,0,1-.72,1.66Z"/><path class="cls-1" d="M35.45,14.8a1,1,0,0,1-.91-.6,4.62,4.62,0,0,0-5.37-2.68,1,1,0,0,1-.46-1.92,6.6,6.6,0,0,1,7.65,3.83,1,1,0,0,1-.91,1.37Z"/><path class="cls-1" d="M29.82,40.84l-.46,0a1,1,0,0,1,.14-2,4.9,4.9,0,0,0,3.28-1,4.68,4.68,0,0,0,2-4,1,1,0,0,1,.91-1.06,1,1,0,0,1,1.06.91A6.67,6.67,0,0,1,34,39.41,6.94,6.94,0,0,1,29.82,40.84Z"/><path class="cls-1" d="M24,35.62a1,1,0,0,1-1-.95,3.66,3.66,0,0,1,2-3.15,4.23,4.23,0,0,1,2.9-.28A3.64,3.64,0,0,1,30.4,32.9a1,1,0,0,1-1.74.94,1.8,1.8,0,0,0-1.16-.68,2.35,2.35,0,0,0-1.52.09,1.76,1.76,0,0,0-1,1.33,1,1,0,0,1-.95,1Z"/><path class="cls-1" d="M36.79,43.8a1,1,0,0,1-.06-2,6,6,0,0,0,4.67-2.21c2.2-2.93,1.16-7.79,1.15-7.83a1,1,0,0,1,.27-.92C45,28.73,46.06,26.44,46,24c-.12-4.33-3.9-7.69-3.94-7.72a1,1,0,0,1,1.3-1.49C43.54,15,47.82,18.78,48,24a10.82,10.82,0,0,1-3.41,7.92c.24,1.52.68,5.87-1.59,8.9a7.88,7.88,0,0,1-6.12,3Z"/><path class="cls-1" d="M26.78,28A10.85,10.85,0,0,1,24,27.68a1,1,0,0,1,.51-1.91c.24.06,5.71,1.45,8-2.69a1,1,0,1,1,1.73,1A8.16,8.16,0,0,1,26.78,28Z"/><path class="cls-1" d="M35.8,28.12a7.61,7.61,0,0,1-4.54-1.64,1,1,0,0,1,1.24-1.54c.37.29,3.63,2.74,6.35-.25A1,1,0,0,1,40.31,26,6,6,0,0,1,35.8,28.12Z"/><path class="cls-1" d="M42.55,16.4a1,1,0,0,1-.83-1.52,5.23,5.23,0,0,0-4.4-8,5.26,5.26,0,0,0-5,3.75A1,1,0,1,1,30.41,10a7.2,7.2,0,1,1,13,5.92A1,1,0,0,1,42.55,16.4Z"/><path class="cls-1" d="M29.84,19.53c-2.52,0-6-2.85-6.36-3.17a1,1,0,1,1,1.27-1.51c1.24,1,3.73,2.71,5.09,2.71a1,1,0,1,1,0,2Z"/><path class="cls-1" d="M42.71,16.57a1,1,0,0,1-.63-.23A18.07,18.07,0,0,0,40.2,15a1,1,0,1,1,.94-1.74,19.75,19.75,0,0,1,2.2,1.61,1,1,0,0,1-.63,1.75Z"/></svg>