<svg id="Calque_2" data-name="Calque 2" xmlns="http://www.w3.org/2000/svg" width="54.32" height="52.23" viewBox="0 0 54.32 52.23"><defs><style>.cls-1{fill:#394553;}</style></defs><title>service-4</title><path class="cls-1" d="M31.66,52.23a1.06,1.06,0,0,1-1.06-1.18L31.9,39.2a1.06,1.06,0,0,1,.16-.45L43,21.28c.93-1.48,3.12-1.74,5-.58l4.28,2.69a4.32,4.32,0,0,1,2,2.62,2.78,2.78,0,0,1-.32,2.11L42.77,45.91a1.06,1.06,0,0,1-.37.36L32.19,52.09A1.06,1.06,0,0,1,31.66,52.23ZM34,39.67l-1,9.55,8.17-4.66L52.12,27a.69.69,0,0,0,0-.51,2.27,2.27,0,0,0-1-1.29L46.86,22.5C46,22,45.06,22,44.81,22.41Z"/><rect class="cls-1" x="36.66" y="37.21" width="2.12" height="8.91" transform="translate(-17.62 51.47) rotate(-57.88)"/><rect class="cls-1" x="32.36" y="47.08" width="2.12" height="2.93" transform="translate(-25.49 50.32) rotate(-57.18)"/><rect class="cls-1" x="35.22" y="35.7" width="11.67" height="2.12" transform="translate(-11.9 52) rotate(-57.9)"/><rect class="cls-1" x="45.05" y="23.31" width="2.12" height="10.28" transform="translate(-2.49 52.4) rotate(-57.9)"/><path class="cls-1" d="M13.56,14.91a14.4,14.4,0,0,1-1.81-.1,1.06,1.06,0,0,1,.29-2.1c.08,0,8,1,10.29-4.65a1.06,1.06,0,0,1,1.9-.13c.74,1.28,3.19,4.59,5.67,4.59a1.06,1.06,0,1,1,0,2.12c-2.84,0-5.2-2.46-6.48-4.14C20.86,14.34,16.15,14.91,13.56,14.91Z"/><path class="cls-1" d="M.52,40.86,0,38.8c6.33-1.61,9.18-2.91,10.46-3.71a3.53,3.53,0,0,0,.89-.71c0-.68,0-3.41,0-4.77h2.12c0,1.44,0,4.43,0,4.88C13.63,36.49,9.28,38.63.52,40.86Z"/><path class="cls-1" d="M29.36,38.28c-3.49-1.25-4.66-2.67-5-3.13a1.08,1.08,0,0,1-.1-.18,1.06,1.06,0,0,1-.09-.45c0-.33,0-3.43,0-4.91h2.12c0,1.25,0,3.65,0,4.56a9.36,9.36,0,0,0,3.74,2.11Z"/><path class="cls-1" d="M15,30.94a1.06,1.06,0,0,1-.25,0,7.56,7.56,0,0,1-3-1.36c-3.42-2.47-5.12-9.72-5.59-13.62-.65-5.44.16-9.39,2.47-12.06C10.78,1.41,14.19.1,18.78,0h.12c4.59.1,8,1.41,10.15,3.88,2.31,2.67,3.12,6.61,2.47,12.06-.47,3.9-2.17,11.15-5.59,13.62a7.56,7.56,0,0,1-3,1.36,1.06,1.06,0,0,1-.5-2.06,5.56,5.56,0,0,0,2.12-.94c2.44-1.74,4.25-7.45,4.82-12.23s-.07-8.22-2-10.41c-1.73-2-4.62-3.06-8.59-3.15-4,.09-6.88,1.15-8.61,3.15-1.9,2.19-2.54,5.6-2,10.41S10.66,26.17,13,27.85l.08.07h0a5.59,5.59,0,0,0,2.11.93A1.06,1.06,0,0,1,15,30.94Z"/></svg>