<svg id="Calque_2" data-name="Calque 2" xmlns="http://www.w3.org/2000/svg" width="58.75" height="49.47" viewBox="0 0 58.75 49.47"><defs><style>.cls-1{fill:#374555;}.cls-2{fill:#394553;}</style></defs><title>service-3</title><polygon class="cls-1" points="44.75 25.59 42.67 25.59 42.67 2.08 15.62 2.08 15.62 24.76 13.54 24.76 13.54 0 44.75 0 44.75 25.59"/><polygon class="cls-1" points="33.93 9.57 25.19 9.57 25.19 1.46 27.27 1.46 27.27 7.49 31.85 7.49 31.85 1.46 33.93 1.46 33.93 9.57"/><path class="cls-2" d="M9,49.47,7.46,48.09c3.2-3.62,5.93-4.42,6-4.45a1,1,0,0,1,.25,0l19.47-.53.87-.22L55,31.67A2.82,2.82,0,0,0,56.4,28c-.64-1.19-2.3-1.5-3.79-.71L42.47,32.44l-.95-1.85,10.12-5.17c2.49-1.34,5.39-.66,6.59,1.57A4.9,4.9,0,0,1,56,33.5L35,44.75a1,1,0,0,1-.24.09l-1.11.28-.22,0L14,45.68A13.25,13.25,0,0,0,9,49.47Z" transform="translate(0 0)"/><path class="cls-2" d="M1.41,39.06,0,37.53,9.28,29c4.83-3.26,10.44-1.56,10.67-1.48A43.49,43.49,0,0,0,27,28.3h7.89a5.09,5.09,0,0,1,5.33,4.79,5.09,5.09,0,0,1-5.33,4.79H24.15V35.79H34.91a3,3,0,0,0,3.25-2.71,3,3,0,0,0-3.25-2.71H27a44.45,44.45,0,0,1-7.61-.86c-.09,0-4.89-1.47-8.87,1.17Z" transform="translate(0 0)"/></svg>