<svg id="Layer_1" data-name="Layer 1" xmlns="http://www.w3.org/2000/svg" width="38.08" height="32.04" viewBox="0 0 38.08 32.04"><defs><style>.cls-1{fill:#394553;}</style></defs><title>basket</title><path class="cls-1" d="M31.73,26.47H17.68c-3.66,0-5.82-2.12-6.61-6.48,0-.09-.11-.44-.11-.45L7.21,1.47H.73A.73.73,0,0,1,.73,0H7.81a.73.73,0,0,1,.72.59l3.86,18.64s.1.41.12.51C13.36,24.4,15.72,25,17.68,25H31.73a.74.74,0,1,1,0,1.47Z"/><path class="cls-1" d="M31.39,32a3.49,3.49,0,1,1,3.49-3.49A3.49,3.49,0,0,1,31.39,32Zm0-5.5a2,2,0,1,0,2,2A2,2,0,0,0,31.39,26.54Z"/><path class="cls-1" d="M33.69,20.47H12.23V19H33.15l3.2-9.88L9.23,7.3l.1-1.47L37.39,7.71a.74.74,0,0,1,.65,1L34.39,20A.74.74,0,0,1,33.69,20.47Z"/><path class="cls-1" d="M15.84,32a3.49,3.49,0,1,1,3.49-3.49A3.49,3.49,0,0,1,15.84,32Zm0-5.5a2,2,0,1,0,2,2A2,2,0,0,0,15.84,26.54Z"/><path class="cls-1" d="M35.73,13.47h-25a.73.73,0,1,1,0-1.47h25a.73.73,0,1,1,0,1.47Z"/><rect class="cls-1" x="22" y="7.23" width="1.47" height="12"/><rect class="cls-1" x="23.44" y="12.97" width="11.57" height="1.47" transform="translate(11.51 40.68) rotate(-81.83)"/><rect class="cls-1" x="15.42" y="6.84" width="1.47" height="12.82" transform="translate(-1.7 2.4) rotate(-8.08)"/></svg>