<svg id="Layer_1" data-name="Layer 1" xmlns="http://www.w3.org/2000/svg" width="44.37" height="28.55" viewBox="0 0 44.37 28.55"><defs><style>.cls-1{fill:#374555;}</style></defs><title>delivery</title><rect class="cls-1" x="10" y="9.19" width="1.37" height="2"/><path class="cls-1" d="M11.19,25.37H7.69A.69.69,0,0,1,7,24.69v-6A.69.69,0,0,1,7.69,18h24.5v1.37H8.37V24h2.81Z" transform="translate(0 0)"/><rect class="cls-1" x="20.19" y="24" width="12" height="1.37"/><path class="cls-1" d="M42.8,25.38H40.19V24h2.56a.23.23,0,0,0,.15,0,.7.7,0,0,0,.1-.45V17.95c0-.5-.26-.64-.32-.66l-2.42-.85a.69.69,0,0,1-.44-.48,17.06,17.06,0,0,0-2.72-5.59H32.37V22.19H31V9.69A.69.69,0,0,1,31.69,9h5.73a.69.69,0,0,1,.52.24,17.4,17.4,0,0,1,3.11,6l2.1.74a2,2,0,0,1,1.22,2v5.57A1.89,1.89,0,0,1,43.81,25,1.53,1.53,0,0,1,42.8,25.38Z" transform="translate(0 0)"/><path class="cls-1" d="M37.48,17.37H34.69a.69.69,0,1,1,0-1.37h1.89a22.06,22.06,0,0,0-1.22-2.73.69.69,0,0,1,1.21-.65,18,18,0,0,1,1.59,3.95.69.69,0,0,1-.68.81Z" transform="translate(0 0)"/><path class="cls-1" d="M37.31,28.55a3.49,3.49,0,1,1,3.49-3.49A3.5,3.5,0,0,1,37.31,28.55Zm0-5.61a2.12,2.12,0,1,0,2.12,2.12A2.12,2.12,0,0,0,37.31,22.94Z" transform="translate(0 0)"/><path class="cls-1" d="M14.44,28.55a3.49,3.49,0,1,1,3.49-3.49A3.5,3.5,0,0,1,14.44,28.55Zm0-5.61a2.12,2.12,0,1,0,2.12,2.12A2.12,2.12,0,0,0,14.44,22.94Z" transform="translate(0 0)"/><path class="cls-1" d="M13.69,13.37h-8a.69.69,0,0,1,0-1.37h8a.69.69,0,1,1,0,1.37Z" transform="translate(0 0)"/><path class="cls-1" d="M6.69,16.37h-5a.69.69,0,0,1,0-1.37h5a.69.69,0,0,1,0,1.37Z" transform="translate(0 0)"/><path class="cls-1" d="M7.69,5.37h-7A.69.69,0,1,1,.69,4h7a.69.69,0,0,1,0,1.37Z" transform="translate(0 0)"/><path class="cls-1" d="M10.69,9.37h-6A.69.69,0,1,1,4.69,8h6a.69.69,0,1,1,0,1.37Z" transform="translate(0 0)"/><rect class="cls-1" x="10" y="13.19" width="1.37" height="5"/><polygon class="cls-1" points="29.37 18.19 28 18.19 28 1.37 10.37 1.37 10.37 6.19 9 6.19 9 0 29.37 0 29.37 18.19"/><polygon class="cls-1" points="22.37 6.37 17 6.37 17 1.19 18.37 1.19 18.37 5 21 5 21 1.19 22.37 1.19 22.37 6.37"/></svg>