<svg id="Calque_2" data-name="Calque 2" xmlns="http://www.w3.org/2000/svg" width="38.72" height="53.54" viewBox="0 0 38.72 53.54"><defs><style>.cls-1{fill:#394553;}.cls-2{fill:#374555;}</style></defs><title>pay</title><circle class="cls-1" cx="25.69" cy="12.14" r="0.59"/><path class="cls-2" d="M25.69,13.71a1.57,1.57,0,1,1,1.57-1.57A1.57,1.57,0,0,1,25.69,13.71Zm0-2a.39.39,0,1,0,.39.39A.39.39,0,0,0,25.69,11.75Z"/><polygon class="cls-2" points="38.72 44.96 21.74 44.96 21.74 43 36.76 43 36.76 1.96 13.72 1.96 13.72 34.98 11.76 34.98 11.76 0 38.72 0 38.72 44.96"/><path class="cls-2" d="M30.62,41H24.74V39h4a4.1,4.1,0,0,1,3-3V9.94a4.1,4.1,0,0,1-3-3H21.7a4.1,4.1,0,0,1-3,3V31h-2V8.1h1A2.12,2.12,0,0,0,19.86,6V5H30.62V6A2.12,2.12,0,0,0,32.74,8.1h1V37.86h-1A2.12,2.12,0,0,0,30.62,40Z"/><path class="cls-2" d="M25.69,27.75A4.94,4.94,0,0,1,20.62,23a4.94,4.94,0,0,1,5.08-4.78A4.94,4.94,0,0,1,30.77,23,4.94,4.94,0,0,1,25.69,27.75Zm0-7.61A3,3,0,0,0,22.58,23a3,3,0,0,0,3.11,2.82A3,3,0,0,0,28.81,23,3,3,0,0,0,25.69,20.14Z"/><path class="cls-2" d="M12.76,53.54l-1.63-1.1,11.46-17c1-1.44.92-3.41-.12-4.3s-2.88-.58-4.06.65L9.3,41.57,7.87,40.23,17,30.45c1.93-2,5-2.34,6.77-.78s2,4.63.47,6.89Z"/><path class="cls-2" d="M.44,53C0,41.68-.09,36.2.07,35.24.35,33.65,7,27.73,12.49,23l1.27,1.49C8.32,29.16,2.43,34.58,2,35.65c-.07.46-.08,3.91.42,17.26Z"/></svg>