<svg id="Layer_1" data-name="Layer 1" xmlns="http://www.w3.org/2000/svg" width="33.25" height="33.01" viewBox="0 0 33.25 33.01"><title>region</title><path d="M22.92,7.18,12.58,11.31,7.67,21.25,2.25,12.47v16.4L12.58,33l10.33-4.13L33.25,33V11.31Zm-9.67,5.29,9-3.6V27.71l-9,3.6ZM7.49,22l4.76-10v20l-9-3.6v-14Zm24.76,9.76-9-3.6v-20l9,3.6Z"/><path d="M10.13,4.3a4.12,4.12,0,1,0,0,5.83A4.11,4.11,0,0,0,10.13,4.3ZM9.4,9.4A3.09,3.09,0,1,1,9.4,5,3.07,3.07,0,0,1,9.4,9.4Z"/><path d="M12.31,2.11A7.21,7.21,0,0,0,0,7.21a8.85,8.85,0,0,0,1,3.7L7.21,22.67l6.18-11.75a8.35,8.35,0,0,0,1-3.7A7.19,7.19,0,0,0,12.31,2.11Zm.2,8.27v.05l-5.27,10-5.27-10,0,0v0A7.84,7.84,0,0,1,1,7.21,6.18,6.18,0,0,1,11.58,2.84a6.14,6.14,0,0,1,1.81,4.37A7.31,7.31,0,0,1,12.51,10.38Z"/></svg>