<svg id="Calque_3" data-name="Calque 3" xmlns="http://www.w3.org/2000/svg" width="41.33" height="27.36" viewBox="0 0 41.33 27.36"><defs><style>.cls-1{fill:#394553;}</style></defs><title>user</title><path class="cls-1" d="M12.69,15.47c-2.76,0-5.43-3.49-5.83-7.62C6.64,5.54,6.62,3.2,8,1.7,9,.62,10.5.1,12.69.1s3.72.52,4.69,1.59c1.37,1.5,1.35,3.85,1.13,6.15C18.12,12,15.45,15.47,12.69,15.47Zm0-14c-1.79,0-3,.38-3.71,1.16C8,3.71,8,5.72,8.18,7.72c.36,3.78,2.66,6.41,4.5,6.41s4.14-2.63,4.5-6.41c.19-2,.23-4-.79-5.13C15.68,1.81,14.47,1.43,12.69,1.43Z"/><path class="cls-1" d="M9.67,7.18a.67.67,0,0,1,0-1.33c3.43,0,3.91-2.09,3.91-2.11a.67.67,0,0,1,1.3.27C14.86,4.14,14.17,7.18,9.67,7.18Z"/><path class="cls-1" d="M17.79,7.42l-.17,0A15,15,0,0,1,13.4,5.49a.67.67,0,0,1,.75-1.1A13.9,13.9,0,0,0,18,6.11a.67.67,0,0,1-.17,1.31Z"/><path class="cls-1" d="M11.13,27.26H11a.67.67,0,0,1-.58-.74l.73-5.77a.67.67,0,1,1,1.32.17l-.73,5.77A.66.66,0,0,1,11.13,27.26Z"/><path class="cls-1" d="M14.24,27.26a.66.66,0,0,1-.66-.58l-.73-5.77a.67.67,0,1,1,1.32-.17l.73,5.77a.67.67,0,0,1-.58.74Z"/><path class="cls-1" d="M.67,27.26H.62A.66.66,0,0,1,0,26.55l.45-6c.5-3.76,2.86-4.24,3-4.26s2.16-.61,4.45-1a.66.66,0,0,1,.71.36l2,4a.67.67,0,0,1-1.19.59L7.6,16.73c-2,.37-3.86.88-3.88.89s-1.58.39-1.94,3.1l-.44,5.92A.67.67,0,0,1,.67,27.26Z"/><path class="cls-1" d="M24.71,27.26a.67.67,0,0,1-.66-.62l-.45-6c-.36-2.68-1.83-3-1.89-3.05s-1.89-.53-3.93-.9L16,20.34a.67.67,0,0,1-1.19-.59l2-4a.66.66,0,0,1,.71-.36c2.3.38,4.42,1,4.51,1s2.4.48,2.9,4.21l.45,6a.67.67,0,0,1-.61.71Z"/><path class="cls-1" d="M12.69,22.3a.67.67,0,0,1-.5-.22l-2.1-2.37a.67.67,0,0,1,0-.88l2.08-2.36a.7.7,0,0,1,1,0l2.08,2.36a.67.67,0,0,1,0,.88l-2.08,2.37a.66.66,0,0,1-.5.23Zm-1.21-3,1.21,1.36,1.2-1.36-1.2-1.37Z"/><path class="cls-1" d="M36.59,13.87a.67.67,0,0,1-.67-.67V7.69A6.54,6.54,0,0,0,34.1,2.75,6.06,6.06,0,0,0,30,1.34h-.19a6.08,6.08,0,0,0-4.14,1.41A6.55,6.55,0,0,0,23.86,7.7v5.5a.67.67,0,0,1-1.33,0V7.69a7.81,7.81,0,0,1,2.26-5.93A7.3,7.3,0,0,1,29.87,0H30a7.27,7.27,0,0,1,5,1.75,7.8,7.8,0,0,1,2.26,5.92V13.2A.67.67,0,0,1,36.59,13.87Z"/><path class="cls-1" d="M29.94,15c-2.4,0-4.59-3.11-4.69-6.6-.55.07-1.14.12-1.76.15a.67.67,0,0,1-.07-1.33c6.73-.38,8.86-2.86,8.88-2.89a.71.71,0,0,1,.52-.24.67.67,0,0,1,.51.26A6.4,6.4,0,0,1,34.4,8.18C34.4,11.44,32.61,15,29.94,15ZM26.58,8.18c0,2.77,1.68,5.46,3.36,5.46s3.13-2.62,3.13-5.5a5.84,5.84,0,0,0-.42-2.37A13.74,13.74,0,0,1,26.58,8.18Z"/><path class="cls-1" d="M21.73,17.62a.67.67,0,0,1-.17-1.31l1.2-.32,2.51-.54a.67.67,0,1,1,.28,1.3l-2.48.54-1.17.32Z"/><path class="cls-1" d="M29.88,24.77a.67.67,0,0,1-.63-.44L26,15.22a.67.67,0,1,1,1.25-.45l3.27,9.11a.67.67,0,0,1-.4.85A.66.66,0,0,1,29.88,24.77Z"/><path class="cls-1" d="M40.67,27.36a.67.67,0,0,1-.66-.62l-.44-7c-.31-1.94-2.82-2.47-2.84-2.48l-2.49-.54a.67.67,0,0,1,.28-1.3L37,16c.13,0,3.43.71,3.89,3.64l.45,7a.67.67,0,0,1-.62.71Z"/><path class="cls-1" d="M29.9,24.77a.66.66,0,0,1-.22,0,.67.67,0,0,1-.4-.85l3.27-9.11a.67.67,0,1,1,1.25.45l-3.27,9.11A.67.67,0,0,1,29.9,24.77Z"/></svg>