<?xml version="1.0" encoding="utf-8"?>
<!-- Generator: Adobe Illustrator 21.0.0, SVG Export Plug-In . SVG Version: 6.00 Build 0)  -->
<svg version="1.1" id="Calque_2" xmlns="http://www.w3.org/2000/svg" xmlns:xlink="http://www.w3.org/1999/xlink" x="0px" y="0px"
	 viewBox="0 0 64 53.8" style="enable-background:new 0 0 64 53.8;" xml:space="preserve">
<title>card</title>
<g>
	<path d="M52.3,44.5h-23c-6.2,0-9.8-3.6-11.1-10.9c0-0.1-0.2-0.8-0.2-0.8L11.7,2.5H1.3C0.6,2.5,0,1.9,0,1.3S0.6,0,1.3,0h11.4
		c0.6,0,1.1,0.4,1.2,1l6.5,31.3c0,0,0.2,0.7,0.2,0.8C22,41,26,42,29.3,42h23c0.7,0,1.3,0.6,1.3,1.3S53,44.5,52.3,44.5z"/>
</g>
<g>
	<path d="M52.6,53.8c-3.3,0-5.9-2.7-5.9-5.9s2.7-5.9,5.9-5.9s5.9,2.7,5.9,5.9S55.9,53.8,52.6,53.8z M52.6,44.4
		c-1.9,0-3.4,1.5-3.4,3.4c0,1.9,1.5,3.4,3.4,3.4c1.9,0,3.4-1.5,3.4-3.4C56,46,54.5,44.4,52.6,44.4z"/>
</g>
<g>
	<path d="M56.5,33.5L56.5,33.5l-36.8,0l0-2.5l35.9,0l5.5-16.8l-46.1-3.1l0.2-2.5l47.7,3.2c0.4,0,0.7,0.2,1,0.5
		c0.2,0.3,0.3,0.7,0.2,1.1l-6.2,19.2C57.5,33.1,57.1,33.5,56.5,33.5z"/>
</g>
<g>
	<path d="M26.2,53.8c-3.3,0-5.9-2.7-5.9-5.9s2.7-5.9,5.9-5.9s5.9,2.7,5.9,5.9S29.5,53.8,26.2,53.8z M26.2,44.4
		c-1.9,0-3.4,1.5-3.4,3.4c0,1.9,1.5,3.4,3.4,3.4s3.4-1.5,3.4-3.4C29.6,46,28.1,44.4,26.2,44.4z"/>
</g>
<g>
	<path d="M60.3,22.5h-43c-0.7,0-1.3-0.6-1.3-1.3s0.6-1.3,1.3-1.3h43c0.7,0,1.3,0.6,1.3,1.3S60.9,22.5,60.3,22.5z"/>
</g>
<g>
	<rect x="37" y="11.7" width="2.5" height="21"/>
</g>
<g>
	<rect x="39.1" y="21.3" transform="matrix(0.1422 -0.9898 0.9898 0.1422 19.611 67.814)" width="19.7" height="2.5"/>
</g>
<g>
	<rect x="25.5" y="10.9" transform="matrix(0.9901 -0.1404 0.1404 0.9901 -2.7983 3.9679)" width="2.5" height="21.8"/>
</g>
</svg>
