<?xml version="1.0" encoding="utf-8"?>
<!-- Generator: Adobe Illustrator 21.0.0, SVG Export Plug-In . SVG Version: 6.00 Build 0)  -->
<svg version="1.1" id="Isolation_Mode" xmlns="http://www.w3.org/2000/svg" xmlns:xlink="http://www.w3.org/1999/xlink" x="0px"
	 y="0px" viewBox="0 0 47.5 63.5" style="enable-background:new 0 0 47.5 63.5;" xml:space="preserve">
<title>compare</title>
<g>
	<path d="M38.1,63.5H4.3c-2.3,0-4.2-1.9-4.2-4.3V10.4C0,8,1.9,6.1,4.3,6.1v2.5c-1,0-1.7,0.8-1.7,1.7v48.9c0,1,0.8,1.8,1.7,1.8h33.8
		c1,0,1.7-0.8,1.7-1.8h2.5C42.3,61.6,40.4,63.5,38.1,63.5z"/>
</g>
<g>
	<path d="M43.3,57.5h-34c-2.3,0-4.3-1.9-4.3-4.2v-49C5,1.9,6.9,0,9.3,0h34c2.3,0,4.3,1.9,4.3,4.2v49C47.5,55.6,45.6,57.5,43.3,57.5z
		 M9.3,2.5c-1,0-1.8,0.8-1.8,1.7v49c0,1,0.8,1.7,1.8,1.7h34c1,0,1.8-0.8,1.8-1.7v-49c0-1-0.8-1.7-1.8-1.7H9.3z"/>
</g>
</svg>
