<?xml version="1.0" encoding="utf-8"?>
<!-- Generator: Adobe Illustrator 21.0.0, SVG Export Plug-In . SVG Version: 6.00 Build 0)  -->
<svg version="1.1" id="Calque_2" xmlns="http://www.w3.org/2000/svg" xmlns:xlink="http://www.w3.org/1999/xlink" x="0px" y="0px"
	 viewBox="0 0 80.5 51.2" style="enable-background:new 0 0 80.5 51.2;" xml:space="preserve">
<style type="text/css">
	.st0{fill:#374555;}
</style>
<title>delivery</title>
<g>
	<rect x="17" y="14.8" class="st0" width="2.5" height="5"/>
</g>
<g>
	<path class="st0" d="M20.8,45.5h-6.5c-0.7,0-1.3-0.6-1.3-1.3v-11c0-0.7,0.6-1.3,1.3-1.3h45.5v2.5H15.5V43h5.3V45.5z"/>
</g>
<g>
	<rect x="35.8" y="43" class="st0" width="22" height="2.5"/>
</g>
<g>
	<path class="st0" d="M77.6,45.5c-0.1,0-0.1,0-0.1,0h-4.7V43h4.8c0,0,0.1,0,0.1,0c0,0,0.1,0,0.2-0.1c0.1-0.1,0.2-0.3,0.2-0.8v-10
		c0,0,0-0.1,0-0.1c0-0.5-0.2-0.9-0.6-1.1L73,29.4c-0.4-0.1-0.7-0.5-0.8-0.9c0-0.1-1.6-5.9-5-10.1h-8.7v21.3H56V17.3
		c0-0.7,0.6-1.3,1.3-1.3h10.5c0.4,0,0.7,0.2,0.9,0.4c3.4,3.8,5.2,9,5.7,10.9l3.9,1.3c0,0,0.1,0,0.1,0c1.4,0.6,2.2,2,2.1,3.5v10
		c0,1.4-0.6,2.2-1,2.6C78.8,45.4,78,45.5,77.6,45.5z"/>
</g>
<g>
	<path class="st0" d="M67.8,30.5h-4.5c-0.7,0-1.3-0.6-1.3-1.3s0.6-1.3,1.3-1.3h2.8c-0.6-1.7-1.3-3.4-2.2-5c-0.3-0.6-0.1-1.4,0.5-1.7
		c0.6-0.3,1.4-0.1,1.7,0.5c1.2,2.2,2.2,4.6,2.9,7.1c0.1,0.4,0,0.8-0.2,1.1C68.5,30.3,68.2,30.5,67.8,30.5z"/>
</g>
<g>
	<path class="st0" d="M67.4,51.2c-3.5,0-6.4-2.9-6.4-6.4s2.9-6.4,6.4-6.4s6.4,2.9,6.4,6.4S70.9,51.2,67.4,51.2z M67.4,41
		c-2.1,0-3.9,1.7-3.9,3.9s1.7,3.9,3.9,3.9s3.9-1.7,3.9-3.9S69.6,41,67.4,41z"/>
</g>
<g>
	<path class="st0" d="M25.8,51.2c-3.5,0-6.4-2.9-6.4-6.4s2.9-6.4,6.4-6.4c3.5,0,6.4,2.9,6.4,6.4S29.3,51.2,25.8,51.2z M25.8,41
		c-2.1,0-3.9,1.7-3.9,3.9s1.7,3.9,3.9,3.9s3.9-1.7,3.9-3.9S27.9,41,25.8,41z"/>
</g>
<g>
	<path class="st0" d="M24.3,24.5h-15c-0.7,0-1.3-0.6-1.3-1.3S8.6,22,9.3,22h15c0.7,0,1.3,0.6,1.3,1.3S24.9,24.5,24.3,24.5z"/>
</g>
<g>
	<path class="st0" d="M11.3,29.5h-8c-0.7,0-1.3-0.6-1.3-1.3S2.6,27,3.3,27h8c0.7,0,1.3,0.6,1.3,1.3S11.9,29.5,11.3,29.5z"/>
</g>
<g>
	<path class="st0" d="M13.3,8.5h-12C0.6,8.5,0,7.9,0,7.3S0.6,6,1.3,6h12c0.7,0,1.3,0.6,1.3,1.3S13.9,8.5,13.3,8.5z"/>
</g>
<g>
	<path class="st0" d="M18.3,16.5h-10c-0.7,0-1.3-0.6-1.3-1.3S7.6,14,8.3,14h10c0.7,0,1.3,0.6,1.3,1.3S18.9,16.5,18.3,16.5z"/>
</g>
<g>
	<rect x="17" y="22.8" class="st0" width="2.5" height="10"/>
</g>
<g>
	<polygon class="st0" points="53.5,33.8 51,33.8 51,2.5 19.5,2.5 19.5,10.8 17,10.8 17,0 53.5,0 	"/>
</g>
<g>
	<polygon class="st0" points="39.5,10.5 30,10.5 30,0.8 32.5,0.8 32.5,8 37,8 37,0.8 39.5,0.8 	"/>
</g>
</svg>
