<?xml version="1.0" encoding="utf-8"?>
<!-- Generator: Adobe Illustrator 21.0.0, SVG Export Plug-In . SVG Version: 6.00 Build 0)  -->
<svg version="1.1" id="Calque_2" xmlns="http://www.w3.org/2000/svg" xmlns:xlink="http://www.w3.org/1999/xlink" x="0px" y="0px"
	 viewBox="0 0 63.2 45.8" style="enable-background:new 0 0 63.2 45.8;" xml:space="preserve">
<style type="text/css">
	.st0{fill:#394553;}
</style>
<title>discount</title>
<g>
	<path class="st0" d="M31.2,35.6c-0.2,0-0.5-0.1-0.7-0.2c-0.6-0.4-0.7-1.2-0.3-1.7l15.7-22.8c0.4-0.6,1.2-0.7,1.7-0.3
		s0.7,1.2,0.3,1.7L32.2,35C31.9,35.4,31.6,35.6,31.2,35.6z"/>
</g>
<g>
	<path class="st0" d="M32,20.7c-2.8,0-5.1-2.3-5.1-5.1c0-2.8,2.3-5.1,5.1-5.1c2.8,0,5.1,2.3,5.1,5.1C37.1,18.4,34.8,20.7,32,20.7z
		 M32,12.9c-1.4,0-2.6,1.2-2.6,2.6s1.2,2.6,2.6,2.6s2.6-1.2,2.6-2.6S33.4,12.9,32,12.9z"/>
</g>
<g>
	<path class="st0" d="M46.1,35.4c-2.8,0-5.1-2.3-5.1-5.1c0-2.8,2.3-5.1,5.1-5.1c2.8,0,5.1,2.3,5.1,5.1
		C51.2,33.1,48.9,35.4,46.1,35.4z M46.1,27.6c-1.4,0-2.6,1.2-2.6,2.6c0,1.4,1.2,2.6,2.6,2.6c1.4,0,2.6-1.2,2.6-2.6
		C48.7,28.8,47.5,27.6,46.1,27.6z"/>
</g>
<g>
	<path class="st0" d="M58.2,2.5c1.4,0,2.5,1.1,2.5,2.5v35.8c0,1.4-1.1,2.5-2.5,2.5H5c-1.4,0-2.5-1.1-2.5-2.5V5
		c0-1.4,1.1-2.5,2.5-2.5H58.2 M58.2,0H5C2.2,0,0,2.2,0,5v35.8c0,2.8,2.2,5,5,5h53.2c2.8,0,5-2.2,5-5V5C63.2,2.2,61,0,58.2,0z"/>
</g>
<g>
	<rect x="15" y="1.1" class="st0" width="2.5" height="6.7"/>
</g>
<g>
	<rect x="15" y="11.3" class="st0" width="2.5" height="5.3"/>
</g>
<g>
	<rect x="15" y="20.3" class="st0" width="2.5" height="5.3"/>
</g>
<g>
	<rect x="15" y="29.2" class="st0" width="2.5" height="5.3"/>
</g>
<g>
	<rect x="15" y="38.1" class="st0" width="2.5" height="6.7"/>
</g>
</svg>
