<svg id="Layer_1" data-name="Layer 1" xmlns="http://www.w3.org/2000/svg" width="22.52" height="16.25" viewBox="0 0 22.52 16.25"><title>eye</title><g id="Слой_2" data-name="Слой 2"><g id="Layer_3" data-name="Layer 3"><path d="M11.26,16a11.42,11.42,0,0,1-11-7.72A.55.55,0,0,1,.27,8a11.42,11.42,0,0,1,11-7.72A11.41,11.41,0,0,1,22.25,8a.55.55,0,0,1,0,.31,11.4,11.4,0,0,1-11,7.72Zm-10-7.87a10.43,10.43,0,0,0,10,6.87,10.43,10.43,0,0,0,10-6.87,10.43,10.43,0,0,0-10-6.88A10.42,10.42,0,0,0,1.26,8.13Z" transform="translate(0 -0.03)"/><path d="M11.46,16.28h-.55v0A11.64,11.64,0,0,1,0,8.36a.82.82,0,0,1,0-.43A11.67,11.67,0,0,1,11.27,0h.19a11.63,11.63,0,0,1,11,7.89.82.82,0,0,1,0,.46A11.62,11.62,0,0,1,11.46,16.28Zm.14-.54v0A11.11,11.11,0,0,0,22,8.23a.3.3,0,0,0,0-.16A11.12,11.12,0,0,0,11.27.53h-.19A11.14,11.14,0,0,0,.51,8.08a.3.3,0,0,0,0,.14,11.13,11.13,0,0,0,10.56,7.53h.54Zm-.55-.49a10.68,10.68,0,0,1-10-7l0-.09L1,8a10.67,10.67,0,0,1,10-7h.4a10.67,10.67,0,0,1,10,7l0,.08,0,.09a10.68,10.68,0,0,1-10,7ZM1.53,8.13a10.22,10.22,0,0,0,9.73,6.62A10.2,10.2,0,0,0,21,8.13,10.18,10.18,0,0,0,11.45,1.5h-.19A10.17,10.17,0,0,0,1.53,8.13Z" transform="translate(0 -0.03)"/><path d="M11.26,13A4.91,4.91,0,0,1,6.35,8.13a.5.5,0,0,1,1,0,3.92,3.92,0,1,0,3.92-3.92h0a.5.5,0,1,1,0-1A4.92,4.92,0,1,1,11.7,13h-.44Z" transform="translate(0 -0.03)"/><path d="M11.48,13.29H11v0A5.18,5.18,0,0,1,6.1,8.13a.75.75,0,1,1,1.5,0,3.67,3.67,0,1,0,3.67-3.67.75.75,0,1,1,0-1.5,5.17,5.17,0,0,1,4,8.65,5.14,5.14,0,0,1-3.58,1.68ZM6.85,7.88a.25.25,0,0,0-.25.25,4.67,4.67,0,0,0,4.66,4.62h.25v0h.18a4.67,4.67,0,1,0-.42-9.33.25.25,0,0,0-.26.25.25.25,0,0,0,.25.25A4.17,4.17,0,1,1,7.1,8.13.25.25,0,0,0,6.85,7.88Z" transform="translate(0 -0.03)"/></g></g></svg>