<svg xmlns="http://www.w3.org/2000/svg" viewBox="0 0 22.53 16.25">
  <defs>
    <style>
      .cls-1 {
        fill: #35424b;
        stroke: #000;
        stroke-miterlimit: 10;
        stroke-width: 0.5px;
      }
    </style>
  </defs>
  <title>eye</title>
  <g id="Слой_2" data-name="Слой 2">
    <g id="Layer_3" data-name="Layer 3">
      <g>
        <path class="cls-1" d="M11.26,16a11.42,11.42,0,0,1-11-7.72A.55.55,0,0,1,.27,8a11.42,11.42,0,0,1,11-7.72A11.41,11.41,0,0,1,22.25,8a.55.55,0,0,1,0,.31,11.4,11.4,0,0,1-11,7.72Zm-10-7.87a10.43,10.43,0,0,0,10,6.87,10.43,10.43,0,0,0,10-6.87,10.43,10.43,0,0,0-10-6.88,10.42,10.42,0,0,0-10,6.88Z"/>
        <path class="cls-1" d="M11.26,13A4.91,4.91,0,0,1,6.35,8.13a.5.5,0,0,1,.5-.5.5.5,0,0,1,.5.5,3.92,3.92,0,1,0,3.91-3.92.5.5,0,0,1,0-1,4.92,4.92,0,1,1,0,9.83Z"/>
      </g>
    </g>
  </g>
</svg>
