<?xml version="1.0" encoding="utf-8"?>
<!-- Generator: Adobe Illustrator 21.0.0, SVG Export Plug-In . SVG Version: 6.00 Build 0)  -->
<svg version="1.1" id="Calque_2" xmlns="http://www.w3.org/2000/svg" xmlns:xlink="http://www.w3.org/1999/xlink" x="0px" y="0px"
	 viewBox="0 0 61.3 61.3" style="enable-background:new 0 0 61.3 61.3;" xml:space="preserve">
<title>person</title>
<g>
	<path d="M30.7,61.3C13.8,61.3,0,47.5,0,30.6S13.8,0,30.7,0c16.9,0,30.6,13.7,30.6,30.6S47.5,61.3,30.7,61.3z M30.7,2.5
		C15.1,2.5,2.5,15.1,2.5,30.6c0,15.5,12.6,28.1,28.1,28.1s28.1-12.6,28.1-28.1C58.8,15.1,46.2,2.5,30.7,2.5z"/>
</g>
<g>
	<path d="M25.9,22.5c-1,0-1.6-0.1-1.7-0.1c-0.7-0.1-1.2-0.7-1.1-1.4c0.1-0.7,0.7-1.2,1.4-1.1l0,0c0.3,0,7.1,0.9,9.2-4.2
		c0.2-0.4,0.6-0.7,1.1-0.8c0.5,0,0.9,0.2,1.2,0.7c0,0,2.4,4.3,5.5,4.3c0.7,0,1.3,0.6,1.3,1.3s-0.6,1.3-1.3,1.3c-3,0-5.2-2.2-6.5-3.9
		C32.6,22,28.3,22.5,25.9,22.5z"/>
</g>
<g>
	<path d="M13.1,47.1c-0.6,0-1.1-0.4-1.2-0.9c-0.2-0.7,0.2-1.3,0.9-1.5c8.4-2.1,10.2-3.6,10.6-4v-4.4c0-0.7,0.6-1.3,1.3-1.3
		s1.3,0.6,1.3,1.3v4.6c0.2,2.1-3.9,4.1-12.5,6.3C13.3,47.1,13.2,47.1,13.1,47.1z M23.3,41.1C23.3,41.1,23.3,41.1,23.3,41.1
		C23.3,41.1,23.3,41.1,23.3,41.1z M23.3,41.1C23.3,41.1,23.3,41.1,23.3,41.1C23.3,41.1,23.3,41.1,23.3,41.1z"/>
</g>
<g>
	<path d="M48.2,47.1c-0.1,0-0.2,0-0.3,0c-8.5-2.2-12.6-4.2-12.5-6.3v-4.6c0-0.7,0.6-1.3,1.3-1.3s1.3,0.6,1.3,1.3v4.4
		c0.4,0.4,2.2,1.9,10.6,4c0.7,0.2,1.1,0.8,0.9,1.5C49.3,46.7,48.8,47.1,48.2,47.1z M38,41.1C38,41.1,38,41.1,38,41.1
		C38,41.1,38,41.1,38,41.1z M38,41.1C38,41.1,38,41.1,38,41.1C38,41.1,38,41.1,38,41.1z M38,41.1L38,41.1L38,41.1z"/>
</g>
<g>
	<path d="M34.3,37.9c-0.6,0-1.1-0.4-1.2-1c-0.1-0.7,0.3-1.3,1-1.5c0.7-0.1,1.4-0.4,1.9-0.9c2.2-1.6,3.9-6.9,4.4-11.4
		c0.5-4.5,0-7.6-1.8-9.7c-1.6-1.8-4.3-2.8-8-2.9c-3.7,0.1-6.3,1.1-7.9,2.9c-1.8,2-2.4,5.2-1.8,9.7c0.5,4.5,2.2,9.8,4.4,11.3
		c0.6,0.5,1.3,0.8,2,0.9c0.7,0.1,1.1,0.8,1,1.5c-0.1,0.7-0.8,1.1-1.5,1c-1.1-0.2-2.1-0.7-3-1.3c-4.1-2.9-5.3-12-5.4-13.1
		c-0.6-5.3,0.2-9.1,2.4-11.7c2.1-2.4,5.4-3.6,9.8-3.7c0,0,0.1,0,0.1,0c4.4,0.1,7.7,1.4,9.8,3.8c2.2,2.6,3,6.4,2.4,11.6
		c-0.5,3.8-2.1,10.7-5.4,13.1c-0.8,0.6-1.8,1.1-2.9,1.3C34.5,37.9,34.4,37.9,34.3,37.9z"/>
</g>
</svg>
