<?xml version="1.0" encoding="utf-8"?>
<!-- Generator: Adobe Illustrator 21.0.0, SVG Export Plug-In . SVG Version: 6.00 Build 0)  -->
<svg version="1.1" id="Isolation_Mode" xmlns="http://www.w3.org/2000/svg" xmlns:xlink="http://www.w3.org/1999/xlink" x="0px"
	 y="0px" viewBox="0 0 61.3 61.3" style="enable-background:new 0 0 61.3 61.3;" xml:space="preserve">
<title>phone</title>
<g>
	<path d="M30.7,61.3C13.8,61.3,0,47.5,0,30.6S13.8,0,30.7,0c16.9,0,30.6,13.7,30.6,30.6S47.5,61.3,30.7,61.3z M30.7,2.5
		C15.1,2.5,2.5,15.1,2.5,30.6c0,15.5,12.6,28.1,28.1,28.1s28.1-12.6,28.1-28.1C58.8,15.1,46.2,2.5,30.7,2.5z"/>
</g>
<g>
	<path d="M40.3,49c-0.2,0-0.4,0-0.6-0.1c-5-0.7-10.6-4.1-16.5-10c-0.2-0.2-0.3-0.3-0.4-0.4c-0.1-0.1-0.2-0.2-0.3-0.3
		c-5.9-5.8-9.4-11.5-10.2-16.6c-0.1-0.5-0.3-2.2,1.7-3.9c2.2-2.1,3.9-3.3,4.9-3.3c1.1-0.1,2.2,0.5,2.7,1.4l3.8,5.7
		c0.9,1.1,0.9,2.6,0.2,3.8l-1.5,2.7c1.3,1.6,2.8,3.2,4.3,4.7c1.5,1.5,3.1,2.9,4.7,4.3l2.8-1.5c1.1-0.7,2.7-0.6,3.8,0.2l5.8,3.9
		c0.9,0.5,1.5,1.6,1.4,2.7c-0.1,1-1.2,2.7-3.3,5C42.4,48.7,41.1,49,40.3,49z M19.3,16.9c-0.5,0.2-2.1,1.4-3.4,2.7
		c-1,0.9-0.9,1.6-0.9,1.6c0,0.1,0,0,0,0.1c0.6,4.5,4,9.9,9.4,15.2c0.1,0.1,0.2,0.2,0.3,0.3c0,0,0.2,0.2,0.4,0.4
		c6.9,6.9,12,8.9,15.1,9.3c0.1,0,0.1,0,0.2,0c0,0,0.6,0.1,1.5-0.9c1.3-1.4,2.5-2.9,2.7-3.4c0,0,0,0,0,0c0-0.1,0-0.2-0.2-0.3
		c0,0-0.1,0-0.1-0.1l-5.9-3.9c0,0-0.1,0-0.1-0.1c-0.3-0.2-0.7-0.3-1-0.1l-3.6,2c-0.4,0.2-1,0.2-1.4-0.1c-1.9-1.5-3.8-3.2-5.6-5
		c-1.8-1.7-3.4-3.6-5-5.5c-0.3-0.4-0.4-0.9-0.1-1.4l1.9-3.5c0.2-0.4,0.2-0.8,0-1.1c0,0,0-0.1-0.1-0.1l-3.9-5.8
		C19.6,17,19.5,16.9,19.3,16.9C19.3,16.9,19.3,16.9,19.3,16.9z M44.5,42.2L44.5,42.2L44.5,42.2z M44.5,42.1L44.5,42.1L44.5,42.1z
		 M19.2,16.9C19.2,16.9,19.2,16.9,19.2,16.9C19.2,16.9,19.2,16.9,19.2,16.9z"/>
</g>
<g>
	<path d="M37.8,29.4c-0.1-3.5-3-6.4-6.5-6.5l0.1-2.5c4.9,0.1,8.8,4,8.9,8.9L37.8,29.4z"/>
</g>
<g>
	<path d="M42.3,29.1c-0.2-5.8-5-10.5-10.8-10.6l0.1-2.5c7.1,0.2,12.9,5.9,13.2,13L42.3,29.1z"/>
</g>
</svg>
