<svg id="Ñëîé_1" data-name="Ñëîé 1" xmlns="http://www.w3.org/2000/svg" width="534.81" height="595.28" viewBox="0 0 534.81 595.28"><title>reload</title><path d="M375.72,8.69l79.54,117.44,0,0,.24.36c.3.44.58.89.84,1.34s.5.91.71,1.38a.06.06,0,0,0,0,0l.22.52c.08.19.17.39.25.59l.22.57c.07.19.14.39.19.58s.1.31.14.46l.07.25a.24.24,0,0,1,0,.06c.09.33.18.66.25,1s.13.59.17.89.05.29.07.44,0,.31.06.46,0,.38.07.57v0c0,.21,0,.42.05.64h0c0,.22,0,.43,0,.65s0,.44,0,.66,0,.41,0,.61a19.83,19.83,0,0,1-.8,5,16.56,16.56,0,0,1-.54,1.59c-.2.51-.43,1-.67,1.51-.11.24-.24.48-.37.72a19.47,19.47,0,0,1-1.61,2.48c-.14.2-.3.39-.45.58s-.45.54-.69.8-.26.29-.4.43-.32.32-.48.48l-.5.46-.56.48-.41.34-.18.14c-.15.12-.3.23-.45.34l0,0-.32.23-.22.15-.11.07c-.26.18-.54.35-.82.52l-.49.29-.6.32-.79.39-.29.13-.18.08-.08,0-.48.2h0l-.59.22-.43.16-.08,0-.33.1-.24.07-.16,0-.16,0-.32.08-.06,0-.51.12L443,157l-.69.12c-.39.07-.8.12-1.2.16L299.41,171a19.76,19.76,0,0,1-3.8-39.34l74.33-7.18A228.2,228.2,0,0,0,186.23,115C68.86,159.77,9.79,291.68,54.55,409s176.67,176.44,294,131.68S525,364.06,480.27,246.69a19.76,19.76,0,1,1,36.93-14.09A267.4,267.4,0,0,1,74.34,512.88,267.34,267.34,0,0,1,379.91,85.35L343,30.85A19.76,19.76,0,1,1,375.72,8.69Z"/></svg>