<svg id="Layer_1" data-name="Layer 1" xmlns="http://www.w3.org/2000/svg" width="328.73" height="438" viewBox="0 0 328.73 438"><defs><style>.cls-1{fill:#231f20;}</style></defs><title>remove</title><path class="cls-1" d="M328.68,97.23C327.62,75.12,308.83,58,286.7,58h-56c0-.17,0-.33,0-.5,0-13.25-3.4-26.08-9.57-36.14C212.84,7.78,200,0,186,0H142.68c-14,0-26.79,7.78-35.12,21.36C101.39,31.41,98,44.25,98,57.5c0,.17,0,.34,0,.5H42C19.89,58,1.11,75.12,0,97.23a41.22,41.22,0,0,0,18.16,36.21L35,378.14C35.23,411.19,60.36,438,91.21,438H237.52c30.85,0,56-26.81,56.19-59.86l16.8-244.71A41.22,41.22,0,0,0,328.68,97.23ZM142.77,24H186c11.13,0,20.24,14.85,20.24,33H122.53C122.53,38.85,131.64,24,142.77,24ZM41.48,83H287.25c8.51,0,16,6.19,17,14.64A16.72,16.72,0,0,1,290.92,116H37.81A16.72,16.72,0,0,1,24.46,97.64C25.48,89.19,33,83,41.48,83ZM269.32,377.25l0,.88c0,19.79-14.29,35.87-31.82,35.87H91.25c-17.53,0-31.8-16.09-31.82-35.87l0-.88L43.19,141H285.54Z"/><path class="cls-1" d="M151.93,211.66V334.1a12.28,12.28,0,0,0,11.81,12.43,12,12,0,0,0,12.19-12V211.23a12,12,0,0,0-12.19-12A12.28,12.28,0,0,0,151.93,211.66Z"/><path class="cls-1" d="M205.93,235.62v74.52a12.28,12.28,0,0,0,11.81,12.43,12,12,0,0,0,12.19-12V235.19a12,12,0,0,0-12.19-12A12.28,12.28,0,0,0,205.93,235.62Z"/><path class="cls-1" d="M98.93,235.62v74.52a12.28,12.28,0,0,0,11.81,12.43,12,12,0,0,0,12.19-12V235.19a12,12,0,0,0-12.19-12A12.28,12.28,0,0,0,98.93,235.62Z"/></svg>