<?xml version="1.0" encoding="utf-8"?>
<!-- Generator: Adobe Illustrator 21.0.0, SVG Export Plug-In . SVG Version: 6.00 Build 0)  -->
<svg version="1.1" id="Isolation_Mode" xmlns="http://www.w3.org/2000/svg" xmlns:xlink="http://www.w3.org/1999/xlink" x="0px"
	 y="0px" viewBox="0 0 55.7 55.7" style="enable-background:new 0 0 55.7 55.7;" xml:space="preserve">
<title>search</title>
<g>
	<path d="M24.6,49.1c-6.3,0-12.6-2.4-17.4-7.2c-9.6-9.6-9.6-25.2,0-34.8l0,0c9.6-9.6,25.2-9.6,34.8,0c9.6,9.6,9.6,25.2,0,34.8
		C37.2,46.7,30.9,49.1,24.6,49.1z M9,9c-8.6,8.6-8.6,22.6,0,31.2c8.6,8.6,22.6,8.6,31.2,0s8.6-22.6,0-31.2S17.6,0.4,9,9L9,9z"/>
</g>
<g>
	<path d="M54.5,55.7c-0.3,0-0.6-0.1-0.9-0.4L40.3,42c-0.5-0.5-0.5-1.3,0-1.8s1.3-0.5,1.8,0l13.3,13.3c0.5,0.5,0.5,1.3,0,1.8
		C55.1,55.6,54.8,55.7,54.5,55.7z"/>
</g>
</svg>
