<?xml version="1.0" encoding="utf-8"?>
<!-- Generator: Adobe Illustrator 21.0.0, SVG Export Plug-In . SVG Version: 6.00 Build 0)  -->
<svg version="1.1" id="Calque_2" xmlns="http://www.w3.org/2000/svg" xmlns:xlink="http://www.w3.org/1999/xlink" x="0px" y="0px"
	 viewBox="0 0 79.9 41.5" style="enable-background:new 0 0 79.9 41.5;" xml:space="preserve">
<style type="text/css">
	.st0{fill:#394553;}
</style>
<title>subscribe</title>
<g>
	<path class="st0" d="M22.2,41.5c-0.7,0-1.3-0.6-1.3-1.3s0.6-1.3,1.3-1.3h48.4c1.1,0,2-0.8,2.2-1.9l4.6-33c0-0.1,0-0.2,0-0.4
		L50.3,23.2c-0.5,0.3-1.1,0.3-1.6-0.1l-22.8-21c-0.4-0.3-0.5-0.9-0.3-1.4S26.3,0,26.8,0h49.3c0.2,0,0.5,0,0.8,0.1
		c1,0.2,1.9,0.7,2.4,1.6c0.6,0.8,0.8,1.8,0.6,2.8l-4.6,33c-0.4,2.3-2.3,4-4.6,4.1H22.2z M30,2.5l19.7,18.1L74.9,2.5L30,2.5z"/>
</g>
<g>
	<path class="st0" d="M37.2,31.5h-24c-0.7,0-1.3-0.6-1.3-1.3s0.6-1.3,1.3-1.3h24c0.7,0,1.3,0.6,1.3,1.3S37.9,31.5,37.2,31.5z"/>
</g>
<g>
	<path class="st0" d="M32.2,22.5h-31c-0.7,0-1.3-0.6-1.3-1.3S0.6,20,1.3,20h31c0.7,0,1.3,0.6,1.3,1.3S32.9,22.5,32.2,22.5z"/>
</g>
<g>
	<path class="st0" d="M24.2,13.5h-14c-0.7,0-1.3-0.6-1.3-1.3S9.6,11,10.2,11h14c0.7,0,1.3,0.6,1.3,1.3S24.9,13.5,24.2,13.5z"/>
</g>
</svg>
