<svg xmlns="http://www.w3.org/2000/svg" viewBox="0 0 275 81.23" width="275" height="81.23">
  <defs>
    <style>
      .cls-1 {
        fill: #010101;
      }
    </style>
  </defs>
  <title>logo-top</title>
  <g id="Слой_2" data-name="Слой 2">
    <g id="Слой_1-2" data-name="Слой 1">
      <g>
        <path class="cls-1" d="M251.62,47.66a.32.32,0,0,0-.33.3.32.32,0,0,0,.31.33.32.32,0,1,0,0-.63Z"/>
        <path class="cls-1" d="M251.59,48.51a.32.32,0,1,0,.31.33A.34.34,0,0,0,251.59,48.51Z"/>
        <polygon class="cls-1" points="249.91 57.24 250.95 57.24 250.43 56.39 249.91 57.24"/>
        <path class="cls-1" d="M251.74,44.25a.32.32,0,1,0,0,.63.33.33,0,0,0,.33-.31A.31.31,0,0,0,251.74,44.25Z"/>
        <path class="cls-1" d="M251.71,45.1a.32.32,0,0,0-.33.31.31.31,0,0,0,.31.32.32.32,0,1,0,0-.63Z"/>
        <polygon class="cls-1" points="249.26 53.85 249.91 53.85 249.51 53.2 249.26 53.85"/>
        <path class="cls-1" d="M251.65,46.81a.32.32,0,1,0,0,.63.33.33,0,0,0,.33-.31A.32.32,0,0,0,251.65,46.81Z"/>
        <path class="cls-1" d="M251,42.51a.31.31,0,0,0-.33.3.31.31,0,0,0,.31.33.31.31,0,0,0,.32-.3A.31.31,0,0,0,251,42.51Z"/>
        <path class="cls-1" d="M250.83,45.92a.32.32,0,0,0,0,.64.32.32,0,0,0,.33-.31A.32.32,0,0,0,250.83,45.92Z"/>
        <polygon class="cls-1" points="248.87 57.24 249.91 57.24 249.39 56.39 248.87 57.24"/>
        <path class="cls-1" d="M250.8,46.78a.32.32,0,1,0,.3.32A.31.31,0,0,0,250.8,46.78Z"/>
        <path class="cls-1" d="M250.92,43.36a.32.32,0,1,0,.3.33A.32.32,0,0,0,250.92,43.36Z"/>
        <path class="cls-1" d="M250.71,49.34a.32.32,0,1,0,.3.32A.31.31,0,0,0,250.71,49.34Z"/>
        <path class="cls-1" d="M250.74,48.48a.32.32,0,1,0,.3.33A.32.32,0,0,0,250.74,48.48Z"/>
        <polygon class="cls-1" points="250.95 57.24 251.99 57.24 251.47 56.39 250.95 57.24"/>
        <polygon class="cls-1" points="248.36 56.39 248.31 56.31 248.28 56.39 247.95 57.24 248.87 57.24 248.35 56.39 248.36 56.39"/>
        <path class="cls-1" d="M250.89,44.22a.32.32,0,1,0,.3.32A.31.31,0,0,0,250.89,44.22Z"/>
        <path class="cls-1" d="M250.77,47.63a.31.31,0,0,0-.33.3.32.32,0,1,0,.63,0A.31.31,0,0,0,250.77,47.63Z"/>
        <path class="cls-1" d="M250.86,45.07a.31.31,0,0,0-.33.3.31.31,0,0,0,.31.33.31.31,0,0,0,.32-.3A.31.31,0,0,0,250.86,45.07Z"/>
        <polygon class="cls-1" points="249.39 54.7 248.87 55.55 249.91 55.55 249.39 54.7"/>
        <path class="cls-1" d="M250,45l0,.63a.32.32,0,0,0,0-.63Z"/>
        <path class="cls-1" d="M250,44.19l0,.63a.33.33,0,0,0,.32-.31A.31.31,0,0,0,250,44.19Z"/>
        <path class="cls-1" d="M250,45.89l0,.64a.32.32,0,0,0,0-.64Z"/>
        <path class="cls-1" d="M250,46.75l0,.63a.33.33,0,0,0,.31-.31A.3.3,0,0,0,250,46.75Z"/>
        <polygon class="cls-1" points="253.03 57.24 254.07 57.24 253.55 56.39 253.03 57.24"/>
        <polygon class="cls-1" points="250.44 56.39 251.47 56.39 251.48 56.39 250.95 55.55 250.44 56.39"/>
        <path class="cls-1" d="M249.93,47.6l0,.63a.31.31,0,0,0,.31-.3A.32.32,0,0,0,249.93,47.6Z"/>
        <polygon class="cls-1" points="251.47 54.7 251.48 54.7 250.95 53.85 250.44 54.7 251.47 54.7"/>
        <polygon class="cls-1" points="251.99 55.55 251.47 54.7 250.95 55.55 251.99 55.55"/>
        <path class="cls-1" d="M250.4,42.81a.31.31,0,0,0-.3-.33l0,.63A.32.32,0,0,0,250.4,42.81Z"/>
        <path class="cls-1" d="M251.77,43.39a.32.32,0,1,0,.31.33A.33.33,0,0,0,251.77,43.39Z"/>
        <polygon class="cls-1" points="252.52 56.39 253.55 56.39 253.56 56.39 253.03 55.55 252.52 56.39"/>
        <path class="cls-1" d="M249.9,48.45l0,.64a.32.32,0,0,0,0-.64Z"/>
        <path class="cls-1" d="M249.81,51l0,.64a.32.32,0,0,0,0-.64Z"/>
        <path class="cls-1" d="M249.87,49.31l0,.63a.33.33,0,0,0,.31-.31A.32.32,0,0,0,249.87,49.31Z"/>
        <path class="cls-1" d="M249.84,50.16l0,.63a.32.32,0,0,0,.31-.3A.33.33,0,0,0,249.84,50.16Z"/>
        <polygon class="cls-1" points="250.44 54.7 249.91 53.85 249.4 54.7 250.43 54.7 250.44 54.7"/>
        <polygon class="cls-1" points="252.51 56.39 252.52 56.39 251.99 55.55 251.48 56.39 252.51 56.39"/>
        <polygon class="cls-1" points="248.36 56.39 249.39 56.39 249.4 56.39 248.87 55.55 248.36 56.39"/>
        <path class="cls-1" d="M252.82,55.21l.25.27,0,.07h.11l.24.25V47.31l.23-.31a.32.32,0,0,0-.58.17.32.32,0,0,0,.21.31l-.51.71v6.88h0v0l-.28-.29-.45.75h1Z"/>
        <polygon class="cls-1" points="248.6 55.55 248.87 55.55 248.71 55.28 248.6 55.55"/>
        <path class="cls-1" d="M252.31,54.66l0-5.91.15-.2h0a.31.31,0,0,0-.32.31.34.34,0,0,0,0,.14l-.35.49a.3.3,0,0,0-.23-.11.32.32,0,0,0-.33.3.33.33,0,0,0,.21.31l.34-.47,0,4.21v.39l.05,0-.33.54h.87Z"/>
        <polygon class="cls-1" points="250.55 52.82 250.44 53 250.72 53 250.55 52.82"/>
        <polygon class="cls-1" points="249.4 56.39 250.43 56.39 250.44 56.39 249.91 55.55 249.4 56.39"/>
        <path class="cls-1" d="M251.3,53.61V50.15l-.33.45a.19.19,0,0,0,0-.08.32.32,0,1,0-.63,0,.31.31,0,0,0,.3.32.32.32,0,0,0,.2-.06l0,0v2.33l.34.37-.22.36h.58Z"/>
        <polygon class="cls-1" points="251.99 57.24 253.03 57.24 252.51 56.39 251.99 57.24"/>
        <polygon class="cls-1" points="250.95 55.55 250.43 54.7 249.91 55.55 250.95 55.55"/>
        <path class="cls-1" d="M251,42.29a.31.31,0,0,0,.32-.31.31.31,0,0,0-.3-.32.31.31,0,0,0-.33.3A.32.32,0,0,0,251,42.29Z"/>
        <path class="cls-1" d="M250.34,51.48l.32-.44h0a.32.32,0,0,0-.33.31A.59.59,0,0,0,250.34,51.48Z"/>
        <polygon class="cls-1" points="249.11 54.23 248.93 54.7 249.39 54.7 249.4 54.7 249.11 54.23"/>
        <polygon class="cls-1" points="250.95 53.85 250.43 53 249.91 53.85 250.95 53.85"/>
        <path class="cls-1" d="M250.07,43.33l0,.64a.33.33,0,0,0,.32-.31A.32.32,0,0,0,250.07,43.33Z"/>
        <path class="cls-1" d="M251.68,46a.32.32,0,1,0,0,.64.34.34,0,0,0,.33-.31A.33.33,0,0,0,251.68,46Z"/>
        <path class="cls-1" d="M249.71,68.7a.32.32,0,0,0-.29.34.32.32,0,1,0,.29-.34Z"/>
        <path class="cls-1" d="M251.27,65.83a.32.32,0,0,0,.3-.33.32.32,0,1,0-.3.33Z"/>
        <path class="cls-1" d="M249.66,67.63a.33.33,0,0,0,.3-.33.32.32,0,0,0-.34-.3.32.32,0,0,0-.3.33A.32.32,0,0,0,249.66,67.63Z"/>
        <path class="cls-1" d="M250.42,65.88a.33.33,0,0,0,.3-.33.32.32,0,0,0-.34-.3.32.32,0,1,0,0,.63Z"/>
        <path class="cls-1" d="M249.61,66.78a.32.32,0,0,0,.3-.34.31.31,0,0,0-.33-.29.31.31,0,0,0-.3.33A.32.32,0,0,0,249.61,66.78Z"/>
        <path class="cls-1" d="M249.56,65.92a.3.3,0,0,0,.3-.33.32.32,0,1,0-.63,0A.31.31,0,0,0,249.56,65.92Z"/>
        <path class="cls-1" d="M250.57,68.66a.31.31,0,0,0-.3.33.32.32,0,0,0,.33.3.32.32,0,0,0,0-.63Z"/>
        <path class="cls-1" d="M250.56,68.44a.32.32,0,0,0,.29-.34.32.32,0,1,0-.29.34Z"/>
        <path class="cls-1" d="M250.46,66.73a.32.32,0,1,0-.33-.3A.31.31,0,0,0,250.46,66.73Z"/>
        <path class="cls-1" d="M250.51,67.58a.31.31,0,0,0,.3-.33.32.32,0,0,0-.33-.3.31.31,0,0,0-.3.33A.31.31,0,0,0,250.51,67.58Z"/>
        <path class="cls-1" d="M249.7,68.48a.32.32,0,1,0-.33-.3A.31.31,0,0,0,249.7,68.48Z"/>
        <path class="cls-1" d="M247.86,66a.32.32,0,0,0,.3-.34.32.32,0,0,0-.34-.29.3.3,0,0,0-.29.33A.31.31,0,0,0,247.86,66Z"/>
        <path class="cls-1" d="M247.91,66.87a.31.31,0,0,0,.29-.33.31.31,0,0,0-.33-.3.32.32,0,0,0-.3.33A.32.32,0,0,0,247.91,66.87Z"/>
        <path class="cls-1" d="M247,66.28a.32.32,0,0,0-.3.34.32.32,0,0,0,.33.3.32.32,0,0,0,.3-.34A.33.33,0,0,0,247,66.28Z"/>
        <path class="cls-1" d="M247,66.06a.31.31,0,0,0,.29-.33.31.31,0,0,0-.33-.3.32.32,0,0,0-.3.33A.32.32,0,0,0,247,66.06Z"/>
        <path class="cls-1" d="M248.82,67.9a.31.31,0,0,0-.3.33.32.32,0,0,0,.63,0A.31.31,0,0,0,248.82,67.9Z"/>
        <path class="cls-1" d="M246.3,66.35l.19.24A.3.3,0,0,0,246.3,66.35Z"/>
        <path class="cls-1" d="M247.92,67.09a.32.32,0,1,0,.33.3A.32.32,0,0,0,247.92,67.09Z"/>
        <path class="cls-1" d="M248.76,66.82a.32.32,0,1,0,0-.63.31.31,0,0,0-.29.33A.3.3,0,0,0,248.76,66.82Z"/>
        <path class="cls-1" d="M248.8,67.68a.32.32,0,0,0,.3-.34.33.33,0,0,0-.33-.3.32.32,0,0,0,0,.64Z"/>
        <path class="cls-1" d="M248.71,66a.32.32,0,1,0-.33-.3A.31.31,0,0,0,248.71,66Z"/>
        <path class="cls-1" d="M253.83,65.69a.32.32,0,1,0,0-.63.33.33,0,0,0-.3.33A.32.32,0,0,0,253.83,65.69Z"/>
        <path class="cls-1" d="M255.53,65.6a.32.32,0,1,0-.33-.3A.31.31,0,0,0,255.53,65.6Z"/>
        <polygon class="cls-1" points="248.42 70.12 248.55 70.34 248.67 70.14 248.42 70.12"/>
        <path class="cls-1" d="M254.68,65.65a.32.32,0,0,0,.3-.34.31.31,0,0,0-.33-.29.31.31,0,0,0-.3.33A.32.32,0,0,0,254.68,65.65Z"/>
        <path class="cls-1" d="M253.89,66.77a.31.31,0,0,0-.3.33.32.32,0,0,0,.63,0A.31.31,0,0,0,253.89,66.77Z"/>
        <path class="cls-1" d="M253.87,66.55a.32.32,0,0,0,.3-.34.33.33,0,0,0-.33-.3.32.32,0,0,0-.3.34A.32.32,0,0,0,253.87,66.55Z"/>
        <path class="cls-1" d="M251.32,66.68a.3.3,0,0,0,.29-.33.31.31,0,0,0-.33-.3.32.32,0,0,0-.3.34A.32.32,0,0,0,251.32,66.68Z"/>
        <path class="cls-1" d="M275,76.78v-.14h0v-.07h0v0h0v0h-.15l0-.06h0l0-.06h0l0-.05h0l0,0v0h0l0,0h0l0-.06h0l0-.06h0l0,0,0,0,0,0h0l0-.05h0l-.09-.1v0l0,0h0l0,0,0,0,0,0h0l-.05,0h0l-.05,0h0l-.05,0h0l-.06,0h0l-.06,0h0l-.06,0h0l-.05,0h0l-.06,0h0l-.06,0h0l-.08,0h0l-.09,0c4.24-6.69-3.71-7.53-5.29-13,.44-2.75.26-3.41-2-3.33-2.93-7-3.62-15.4-3.67-23.1h3.31a2.8,2.8,0,1,0,0-5.6h-1c-.35,0-.54-.1-.18-.35a2.2,2.2,0,0,0-1.15-4.05h-.66c.24-5.52,1.4-8.74,4.83-11.23,1.21-.86,2.15-1.79.83-2.57-1-.59-4-.88-5.53-1.09a21.32,21.32,0,0,0-5.33-2.39A3.89,3.89,0,0,0,255.28,1a1.1,1.1,0,0,0,0-.18.82.82,0,0,0-1.64,0,.79.79,0,0,0,.09.38l-3.27,2.09,1.05,3.07L246,9.52l-3.7.57h-.06l0,0-1.84,1.23a.8.8,0,0,0-.47-.15.82.82,0,1,0,0,1.64.71.71,0,0,0,.32-.07L245,17.66a.77.77,0,0,0-.1.4.81.81,0,0,0,.76.81l.49,5.52-3.21,1.37a.82.82,0,1,0-.62,1.36h0l.5,1.74-2,1.69a.8.8,0,0,0-.45-.14.82.82,0,1,0,0,1.64.58.58,0,0,0,.19,0l2.42,2.68,2.81,0,.38,12.57a.81.81,0,0,0-.57.78.82.82,0,0,0,.35.67l-3.21,9.08h-.77a.82.82,0,0,0-1.61.23.82.82,0,0,0,.39.7l-1,3.25h0a.82.82,0,0,0-.82.82.84.84,0,0,0,.16.49l-4.37,5a.68.68,0,0,0-.29,0,.82.82,0,0,0-.16,1.62l.9,4.19-.61.44a.84.84,0,0,0-.44-.13.82.82,0,0,0-.42,1.53l.13,3.63a.82.82,0,0,0,.38,1.54.81.81,0,0,0,.77-.53l4.94.12a.8.8,0,0,0,.77.54.84.84,0,0,0,.76-.5c3.31,0,33.57.92,33.57-1.42v-.09h0v-.1h0V79h0v-.09h0v-.08h0v-.77h0v-.24h0v-.07h0v-.07h0v-.15h0v-.23h0v-.48Zm-5.58-9.36c.82.8.73.81-.58,1l-1.55.18c-1.09.14-1.26.11-1.85-.73a23.63,23.63,0,0,1-2.52-4.38c-.22-.55-.14-.65.47-.69l1.39-.12c.71,0,.83,0,1.13.52A20.1,20.1,0,0,0,269.42,67.42Zm-6.29-10.25c.17.43.19.5-.26.54a8.38,8.38,0,0,1-1.24,0c-.58,0-.58,0-.7-.63A90.7,90.7,0,0,1,259,42.54c-.09-1.77-.18-3.28-.25-5.29-.07-1.1,1-1.65,1-1,.09,2.17.22,3.8.35,5.63A56,56,0,0,0,263.13,57.17Zm2.33-26.95c1.05.06,1.16.34.05.5a30.14,30.14,0,0,1-6.89-.29C259.46,30.4,263.56,30.12,265.46,30.22Zm-5-19.8c.62,1.83,2.5,2.4,4.49,2.24.82-.06,1.09,0,.08.42-1.93.7-3.69.65-5.12-.88Zm-1,12.55a23,23,0,0,1,2.4-7.1c.26-.52,1.44-.91,1.11-.19a24,24,0,0,0-2.4,7.31c-.05.29-.09.31-.43.33h-.35C259.39,23.3,259.38,23.29,259.44,23Zm3.87,2.63c.8,0,.88.26,0,.38a22.61,22.61,0,0,1-5.15-.22A49.47,49.47,0,0,1,263.31,25.6Zm-6.65-13.25c1.37-.07,2.18.06,0,.65a4.11,4.11,0,0,1-4.31-1.14L247.69,13a.64.64,0,0,0-.45-.46l.09-1.2L252,10.4a1,1,0,0,0,.92.65,1,1,0,0,0,.45-.11A4,4,0,0,0,256.66,12.35Zm-1.25,32.16a.33.33,0,0,0-.26-.14.31.31,0,0,0-.32.3.31.31,0,0,0,.23.32l-.49.67V57l-.19-.2V45.92l-.1.13h0a.33.33,0,0,0-.33.31.29.29,0,0,0,0,.16l-.27.37V47h0v9.07l0,0-.15.25H254l.39.41-.27.44h.66l.23.24-.35.59h0l-.52-.83-.48.79h-.07l-.49-.8-.49.82h0l-.51-.82-.49.82h-.05l-.5-.81-.51.85h.45l-1.5,4.14-.57.39,1.62-4.52h0l-.52-.85-.51.85h.41l-2,5.19-.64.45,2-5.64h.17l-.53-.85-.51.85h.33l-2.29,6.19-.48.33a.66.66,0,0,0-.19-.18l2.06-5.69a.57.57,0,0,0,.41-.55v-.1h.16l-.46-.73-.1.26-.18,0a.56.56,0,0,0-.46.23h-3.84l6.07-4.74a.6.6,0,0,0,.19.08h0a.64.64,0,0,0,.2,0,.75.75,0,0,0,.51-.2h.15l-.06-.09a.74.74,0,0,0,.17-.48.77.77,0,0,0-.23-.55V51.6l-.13.18a.7.7,0,0,0-.35-.12h-.07a.88.88,0,0,0-.32.07L247,48.61a.83.83,0,0,0-.13-1.18l3-5.79h0v0h0l.19,0,0,.6a.32.32,0,0,0,.32-.31.31.31,0,0,0-.16-.28.79.79,0,0,0,.57-.27.37.37,0,0,0,.15,0,.23.23,0,0,0,.18,0l.58.31a.34.34,0,0,0-.25.3.32.32,0,0,0,.31.33.33.33,0,0,0,.33-.31.36.36,0,0,0,0-.11l.24.13a.31.31,0,0,0,.3.32.38.38,0,0,0,.19-.05l.57.31a.32.32,0,0,0-.24.3.32.32,0,0,0,.63,0,.25.25,0,0,0,0-.12l.24.13a.32.32,0,0,0,.31.32.41.41,0,0,0,.19,0l.57.31a.31.31,0,0,0-.24.3.32.32,0,1,0,.63,0,.5.5,0,0,0,0-.12l.24.13a.35.35,0,0,0,0,.18l-.19.28V58h0l-.09-.09V44.46Zm-.87,13.57-.33.78-.44.33.48-1.11Zm-1.38,0-.74,2-.35.24.84-2.28Zm-1.09,0L251,61.14l-.51.35,1.24-3.41Zm-2.63-17.2h0a.81.81,0,0,0,.26.51l-3.07,5.84h0l-.35-12.14,3.45,5.13a.81.81,0,0,0-.24.58Zm1.56-.29a.8.8,0,0,0-.76-.53.72.72,0,0,0-.33.07l-3.62-5.38,3.49,0h.15v.17l5.4,3,0,.23-5.4-3,0,.92,5.44,3,0,.35-5.45-3,0,.91,5.49,3,0,.36-5.5-3,0,.74,5.53,3,.05.53-5.55-3,0,.72,5.58,3.06,0,.54Zm.81-11.42h.62L250.08,31h-.63ZM248.55,31h-.77l2.37-1.83h.75Zm5-1.83h.5L251.66,31h-.5Zm-1.74,5.52h0l3.43,1.89,0,.17-3.76-2.06ZM252.93,31l2.35-1.83h.37L253.31,31Zm1.55-4.85h-.35l1.79-1.38h.33Zm-1.43,0h-.45l1.8-1.38h.44Zm-1.41,0h-.56l1.82-1.38h.54Zm-1.4,0h-.67l1.85-1.38h.65Zm-1.38,0h-.78L250,24.77h.75Zm-.33,3h.91L247.07,31h-.9ZM255,31h-.27l2.34-1.83h.26Zm-.65-28.22h0l.48.81h-1l.5-.81Zm.51.82h0l.32.54,0,.27h-.78ZM255.05,5a2.31,2.31,0,0,1-.1.28h-.07Zm.17-1.36h-.34l.31-.52A4.41,4.41,0,0,1,255.22,3.59Zm-4.19,0,3.05-2,0,0,0,0,0,0a.86.86,0,0,0,.36.08l.19,0,.2.34.06-.1,0,.1h-.08l.16.27a4.52,4.52,0,0,1,.11.53h-.76l.49-.8h-1l.48.79h-.91l0,.08.45.75h-.82l.11.46.22.36.49-.81h0l.49.81h-1l.49.82.5-.81h0l.48.81h-1l.5.82.49-.8h0v0l0,.08a2.67,2.67,0,0,1-.45.74h-.09l0,.07-.19.19.16-.26h-.7l.1.41L252,6.24Zm.83,3.17,2,0h0c.2.71.08,2.17-.65,2.46a.93.93,0,0,0-.24,0,1,1,0,0,0-1,.79L246.8,9.6Zm-5.53,3.16,0,0,5.5.3-4.66.94-3.94-.69Zm-3.94.68h.08l4.59.8L247,12.52a.65.65,0,0,0-.53.44l-5.76-1.06a1.21,1.21,0,0,0-.05-.18Zm3.3,6.68a.84.84,0,0,0-.39.1l-4.75-4.84a.22.22,0,0,1,0-.08l5.81.8a.65.65,0,0,0,.35.52l-1,3.51ZM247,13.8h.16l.08.37L253,18.92l-.07.12-5.63-4.65.29,1.36,0,.09,4.86,3.95-.11.18h0l-4.7-3.88.27,1.24,4,3.32h0l-.16.25L248,17.8l.52,1.44,2.83,2.34-.13.22h1l-.52-.84v0h1l-.53-.85h1l-.52-.84h.94l.05.09-.47.76h.94l0,.1-.46.76h.92l.06.09-.46.76h.92l.06.1-.46.75h.92l.06.1-.46.75h.92l.06.11-.41.69h-.11l-.46-.8-.47.8h-.11l-.46-.8-.48.8h-.1l-.47-.8-.47.8h-.11l-.46-.8-.48.8h-.1l-.46-.8-.48.8h-.11l-.47-.74-.08.13-1-.8.17.77.09.44-3.17-5.42a.8.8,0,0,0,.29-.62.82.82,0,0,0-.47-.75ZM246.11,19l3.09,5.28h-2.62Zm.3,5.74h3l-1.89,1.38h-4.32ZM242.76,27a.83.83,0,0,0,.26-.3l4,0,.11.15.59,1.92h-4.51Zm.41,2.2H248l-2,1.57a.21.21,0,0,0-.08-.06h0a.64.64,0,0,0-.36-.11.69.69,0,0,0-.63.44h-3.8l-.05-.12Zm2.9,4.26-.49.8h-.08l-.5-.8-.5.82h-.06l-.5-.82-.51.84h-.26L241,31.76a.9.9,0,0,0,.16-.29h3.81a.76.76,0,0,0,.12.19l0,0h.06a.65.65,0,0,0,.47.19.67.67,0,0,0,.45-.18h0l0,.05-.49.81h.93l.06.11-.46.76H247l.09.16-.38.63h-.1Zm.26,15.47h0a.76.76,0,0,0,.42-.12l2.44,3.11a.76.76,0,0,0-.23.54.75.75,0,0,0,.18.48l-5.87,4.58Zm-4.43,9.44h5.16a.53.53,0,0,0,.21.31h0a.51.51,0,0,0,.16.09l-2,5.6h-.07a.59.59,0,0,0-.23,0l-3.47-5.69A.89.89,0,0,0,241.9,58.34Zm-.75.54a.64.64,0,0,0,.28-.06l3.48,5.69a.64.64,0,0,0-.1.13L240.5,63a.81.81,0,0,0,0-.16.82.82,0,0,0-.34-.67Zm-.75,4.37,4.31,1.64s0,.07,0,.11a.63.63,0,0,0,.14.4L241.69,69a.62.62,0,0,0-.31-.08h0L240,63.58A.76.76,0,0,0,240.4,63.25Zm8.17,5.86.21.26h0a1.56,1.56,0,0,1-.44.07,2.07,2.07,0,0,1-.81-.21h0a2,2,0,0,0-.66-.17h0a2,2,0,0,0-.66.17h0a1.71,1.71,0,0,1-1.64,0h0a2,2,0,0,0-.65-.17h0a2,2,0,0,0-.65.17h0a2.07,2.07,0,0,1-.82.21,1.55,1.55,0,0,1-.43-.07.56.56,0,0,0-.09-.17l.21-.25a1.18,1.18,0,0,0,.31.05,1.79,1.79,0,0,0,.66-.17h0l.09,0h0a2,2,0,0,1,.69-.16h.05a2,2,0,0,1,.7.16h0l.1,0h0a1.37,1.37,0,0,0,1.32,0h0l.11,0h0a2,2,0,0,1,.7-.16h0a2,2,0,0,1,.7.16h0l.12,0h0a1.79,1.79,0,0,0,.66.17.62.62,0,0,0,.19,0,.28.28,0,0,0,0,.09Zm.38,1-.23.07H249a.9.9,0,0,0,0,.16h-.42l.12.2-.33.13.21-.33h-1l.32.52-.78.3h0v0h-1l.2.32-.52.2.32-.52h-2l.49.82h0l.49-.81.38.63L245,72h-.42l.08.13-.21.08.13-.21h-1l.27.45-.7.27.43-.72h-1l.45.76-.16.06h-.13a.66.66,0,0,0-.44-.21l0-.1.31-.51h-.44l-.17-.66.11-.16h-.15l-.1-.42.25.42.5-.82h-.86l0-.16a.64.64,0,0,0,.35-.48l.09,0h.09l.36.61.35-.58-.23,0,.07,0a2.19,2.19,0,0,0,.33-.12h0a3.86,3.86,0,0,1,.48-.16h0a1.65,1.65,0,0,1,.31,0h.05a1.55,1.55,0,0,1,.31,0h0a4,4,0,0,1,.49.16h0a1.79,1.79,0,0,0,.66.17,1.13,1.13,0,0,0,.32,0,2.3,2.3,0,0,0,.34-.12h0a4.36,4.36,0,0,1,.51-.17h0a1.17,1.17,0,0,1,.32,0h0a1.12,1.12,0,0,1,.32,0h0a4.36,4.36,0,0,1,.51.17h0a1.84,1.84,0,0,0,.66.17,1.13,1.13,0,0,0,.32,0l.29-.1.09.11A.59.59,0,0,0,249,70.1Zm.28.58.1,0-.17.2-.11-.18Zm-.51.79-.21.25-.37-.62.29-.11Zm-2.79,3a.68.68,0,0,0-.31.11l-1-1.6h0l-.26-.44.31-.12.17.29h0l.1.17L245,73h0Zm-.1-1.49h0l-.49-.81.31-.12.56.93h0l.54.89-.2.25Zm.42-1.17.31-.12.78,1.29h0l0,.09-.22.26Zm.93-.36.31-.12.56.92-.22.27ZM239.4,63.6a.93.93,0,0,0,.29,0h.07L241.1,69a.67.67,0,0,0-.34.4L235.19,69a.85.85,0,0,0-.15-.41Zm-4.72,6.26a.83.83,0,0,0,.49-.57l5.57.4a.65.65,0,0,0,.64.55h0l.6,2.39a.65.65,0,0,0-.41.58l-6,.85Zm.82,4.52.07,0,6.08-.85a.63.63,0,0,0,.6.4.7.7,0,0,0,.37-.11l.28.15-.16-.27a.58.58,0,0,0,.15-.36l.58.94,1.15.63L243.49,73h0l-.05-.08.31-.12.53.88h0l.72,1.18L234.86,75a1,1,0,0,0-.06-.16Zm4.33,5.83L235,80.1a.82.82,0,0,0-.72-.63L234.11,76a.83.83,0,0,0,.5-.21l5.3,4.19A1.08,1.08,0,0,0,239.83,80.21Zm1.27-.47a.87.87,0,0,0-.47-.15.82.82,0,0,0-.55.21l-5.3-4.18a.5.5,0,0,0,.05-.13l10.44-.27.1,0a.55.55,0,0,0,.1.22Zm.33.51a.81.81,0,0,0-.12-.29l.29-.28.54.59Zm1.24,0-.79-.86.61-.6,1.37,1.49Zm1.82,0-1.68-1.82.57-.54,2.19,2.39Zm1.82.05-2.56-2.78.51-.49,3,3.29Zm1.81,0-3.43-3.73.46-.45,3.86,4.2Zm1.82,0-4.31-4.68.08-.08a.64.64,0,0,0,.28.07.62.62,0,0,0,.32-.09l4.42,4.8Zm1.85,0h0l-4.9-5.33h.66l4.65,5.06Zm1-.77-4.22-4.6.56,0,4,4.36Zm1.06-.79-3.55-3.86h.47l3.36,3.66Zm1.05-.79L252.07,75h.37l2.72,3Zm1.06-.78L253.82,75h.27l2.06,2.24Zm1.05-.79L255.56,75h.18l1.41,1.54Zm-.69-3.51h0V66.38l.21-.12v6.91Zm1.74,2.72-.79-.86h.09l.76.82Zm1-11a.29.29,0,0,0-.16,0,.32.32,0,0,0-.3.31h0v9l-.07,0,0-8.92h0l-.14.08a.28.28,0,0,0,0-.09.32.32,0,0,0-.33-.3.31.31,0,0,0-.3.33.33.33,0,0,0,.22.29h0l-.4.23v7.95l-.14-.07v-7.8h0a.33.33,0,0,0-.17,0,.32.32,0,0,0-.3.31l-.23.13h0a.31.31,0,0,0,0-.1.31.31,0,0,0-.33-.29.31.31,0,0,0-.3.33.32.32,0,0,0,.23.29l-.44.25-.12.07h0a.35.35,0,0,0-.18,0,.33.33,0,0,0-.3.33l.28-.16v5.87l-.29-.13V67l-.22.13h0a.37.37,0,0,0,0-.11.32.32,0,0,0-.33-.3.31.31,0,0,0-.3.33.33.33,0,0,0,.24.3h0l-.11.06v4.84l-.37-.17V67.63l-.08,0h0a.3.3,0,0,0-.19,0,.33.33,0,0,0-.3.33h0l-.07,0v3.8l-.45-.2V68.25l.27-.16a.27.27,0,0,0,0-.13.31.31,0,0,0-.33-.29.31.31,0,0,0,0,.62l-.48.28v2.77l-.5-.23h0V68.87l.43-.25a.28.28,0,0,0-.2-.05.31.31,0,0,0-.3.33h0l-.24.14h0a.19.19,0,0,0,0-.13.32.32,0,1,0-.63,0,.31.31,0,0,0,.27.3l.16-.09v1.73l-.6-.28V69.49l-.14.08h0a.37.37,0,0,0-.21-.06.31.31,0,0,0-.29.33v0l.23-.14v.7l-.33-.15v0h0a.49.49,0,0,0,0-.12.65.65,0,0,0-.65-.65.61.61,0,0,0-.46.2l-.12-.07h0l.05,0-.17-.2a.31.31,0,0,0,.27-.33.3.3,0,0,0-.33-.3.32.32,0,0,0-.29.23l-.27-.32a2.39,2.39,0,0,1-.74-.2h0a1.79,1.79,0,0,0-.66-.17h0a1.79,1.79,0,0,0-.66.17h0a1.71,1.71,0,0,1-1.64,0h0a2,2,0,0,0-.64-.17h0a1.9,1.9,0,0,0-.64.17h0a2.26,2.26,0,0,1-.82.21h0l.43-.5.29-.1h0a2.14,2.14,0,0,1,.79-.2h.05a2.09,2.09,0,0,1,.79.2h0l.3.11h0a1.21,1.21,0,0,0,.37.07,1.46,1.46,0,0,0,.4-.07h0l.29-.11h0a2.24,2.24,0,0,1,.8-.2h0a2.19,2.19,0,0,1,.8.2h0l.39.47a.34.34,0,0,0,.19-.31.32.32,0,0,0-.34-.3.34.34,0,0,0-.2.09l-.39-.45a.31.31,0,0,0-.31-.44l-.1,0,.25.3a1.12,1.12,0,0,0-.31,0h0a2,2,0,0,0-.66.17h0a1.78,1.78,0,0,1-1.64,0h0a2.26,2.26,0,0,0-.64-.17h0a1.86,1.86,0,0,0-.55.14l.49-.57h.1a2.3,2.3,0,0,1,.79.2h0a1.7,1.7,0,0,0,.64.17h0a1.81,1.81,0,0,0,.66-.18h0a2.57,2.57,0,0,1,.77-.2l-.26-.31a3.43,3.43,0,0,0-.38.13h0a3.71,3.71,0,0,1-.47.16h0a1.88,1.88,0,0,1-.33.05h0a1.33,1.33,0,0,1-.34-.05h0a3,3,0,0,1-.5-.17h0a3.07,3.07,0,0,0-.46-.15l.31-.36.3.11.34.12a1.18,1.18,0,0,0,.31,0h0a1.13,1.13,0,0,0,.32,0,2.3,2.3,0,0,0,.34-.12l.21-.08-.18-.21h0a.32.32,0,1,0,0-.63.32.32,0,0,0-.3.29L246,66a1.66,1.66,0,0,1-.63.14h0a2,2,0,0,1-.72-.17l.29-.34.09,0a1.18,1.18,0,0,0,.31,0h0a1.13,1.13,0,0,0,.32,0h0l-.07-.09a.66.66,0,0,0,.32-.36l.12,0a.32.32,0,0,0,.3-.32h.22a.31.31,0,0,0,.33.28.32.32,0,0,0,.3-.31h.22a.31.31,0,0,0,.33.27.3.3,0,0,0,.3-.31h.22a.33.33,0,0,0,.34.28.32.32,0,0,0,.29-.31l.23,0a.31.31,0,0,0,.33.28.32.32,0,0,0,.3-.31H250a.33.33,0,0,0,.33.28.32.32,0,0,0,.3-.31l.22,0a.32.32,0,0,0,.63,0h.23a.31.31,0,0,0,.33.27.32.32,0,0,0,.3-.31h.22a.31.31,0,0,0,.33.28.33.33,0,0,0,.3-.31h.22a.32.32,0,0,0,.33.27.31.31,0,0,0,.3-.31h.22a.32.32,0,0,0,.33.27.3.3,0,0,0,.3-.3h.23a.31.31,0,0,0,.33.27.32.32,0,0,0,.3-.31H256a.31.31,0,0,0,.33.27.32.32,0,0,0,.3-.3h.22a.32.32,0,0,0,.63,0h.22a.32.32,0,0,0,.33.27.31.31,0,0,0,.3-.3h.23a.31.31,0,0,0,.33.26.32.32,0,0,0,.3-.3h.22a.32.32,0,0,0,.21.25ZM257.79,59a69.51,69.51,0,0,0,8.23-.35c.56-.08.94-.14.93,0C267,59.59,260.35,59.51,257.79,59ZM271.4,69.51c.62-.11,1.09,0,1.09.14.16,1-6,1.21-9.79.79A53.72,53.72,0,0,0,271.4,69.51Zm-6.3,6.36a53.8,53.8,0,0,0,7.52-.74c.47-.09.78-.15.78,0C273.65,75.91,267.93,76.19,265.1,75.87Z"/>
        <path class="cls-1" d="M255.54,65.82a.32.32,0,0,0-.29.34.31.31,0,0,0,.33.29.31.31,0,0,0,.3-.33A.32.32,0,0,0,255.54,65.82Z"/>
        <path class="cls-1" d="M257.2,64.88a.31.31,0,0,0-.29.33.31.31,0,0,0,.33.3.32.32,0,0,0,.3-.33A.32.32,0,0,0,257.2,64.88Z"/>
        <path class="cls-1" d="M256.35,64.92a.32.32,0,0,0-.3.34.32.32,0,0,0,.34.29.3.3,0,0,0,.29-.33A.31.31,0,0,0,256.35,64.92Z"/>
        <path class="cls-1" d="M254.69,65.87a.32.32,0,0,0-.3.33.32.32,0,0,0,.34.3.31.31,0,0,0,.29-.33A.3.3,0,0,0,254.69,65.87Z"/>
        <path class="cls-1" d="M253,66.81a.32.32,0,0,0-.3.34.33.33,0,0,0,.34.3.32.32,0,0,0,0-.64Z"/>
        <path class="cls-1" d="M251.37,67.76a.31.31,0,0,0-.29.33.3.3,0,0,0,.33.3.32.32,0,0,0,.3-.33A.32.32,0,0,0,251.37,67.76Z"/>
        <path class="cls-1" d="M252.12,65.79a.32.32,0,0,0,.3-.34.33.33,0,0,0-.33-.3.32.32,0,0,0-.3.34A.32.32,0,0,0,252.12,65.79Z"/>
        <path class="cls-1" d="M251.36,67.54a.32.32,0,0,0,.3-.34.31.31,0,0,0-.33-.29.31.31,0,0,0-.3.33A.32.32,0,0,0,251.36,67.54Z"/>
        <path class="cls-1" d="M252.17,66.64a.32.32,0,0,0,.3-.33.32.32,0,0,0-.34-.3.32.32,0,0,0,0,.63Z"/>
        <path class="cls-1" d="M253,65.74a.31.31,0,0,0,.3-.33.31.31,0,0,0-.33-.3.32.32,0,0,0-.3.33A.31.31,0,0,0,253,65.74Z"/>
        <path class="cls-1" d="M253,66.59a.31.31,0,0,0,.3-.33A.32.32,0,0,0,253,66a.32.32,0,1,0,0,.63Z"/>
        <path class="cls-1" d="M252.23,67.71a.32.32,0,0,0-.3.34.31.31,0,0,0,.33.29.31.31,0,0,0,.3-.33A.32.32,0,0,0,252.23,67.71Z"/>
        <path class="cls-1" d="M252.21,67.49a.32.32,0,1,0,0-.63.32.32,0,0,0-.3.33A.31.31,0,0,0,252.21,67.49Z"/>
        <path class="cls-1" d="M253.39,46a.32.32,0,0,0,0,.64.31.31,0,0,0,.32-.31A.32.32,0,0,0,253.39,46Z"/>
        <path class="cls-1" d="M254.33,43.48a.32.32,0,1,0,.31.33A.33.33,0,0,0,254.33,43.48Z"/>
        <path class="cls-1" d="M253.48,43.45a.32.32,0,1,0,0,.64.31.31,0,0,0,.32-.31A.32.32,0,0,0,253.48,43.45Z"/>
        <path class="cls-1" d="M254.27,45.19a.32.32,0,0,0-.33.31.31.31,0,0,0,.31.32.32.32,0,1,0,0-.63Z"/>
        <polygon class="cls-1" points="253.29 4.55 253.38 4.41 253.26 4.41 253.29 4.55"/>
        <path class="cls-1" d="M254.3,44.34a.32.32,0,1,0,.31.32A.31.31,0,0,0,254.3,44.34Z"/>
        <polygon class="cls-1" points="253.59 5.71 253.88 5.23 253.87 5.23 253.47 5.23 253.59 5.71"/>
        <polygon class="cls-1" points="250.75 22.64 250.67 22.77 250.75 22.64 250.75 22.64"/>
        <polygon class="cls-1" points="251.25 23.5 252.29 23.5 251.76 22.65 251.25 23.5"/>
        <polygon class="cls-1" points="252.29 23.5 253.33 23.5 252.81 22.65 252.29 23.5"/>
        <polygon class="cls-1" points="250.67 22.77 248.77 21.2 248.96 22.08 250.38 23.25 250.38 23.25 250.23 23.5 251.25 23.5 250.73 22.67 250.67 22.77"/>
        <polygon class="cls-1" points="251.25 21.81 251.24 21.84 248.4 19.5 248.62 20.5 250.9 22.39 250.75 22.65 251.76 22.65 251.77 22.65 251.25 21.81"/>
        <path class="cls-1" d="M252.56,45.13a.32.32,0,0,0,0,.63.32.32,0,1,0,0-.63Z"/>
        <path class="cls-1" d="M252.53,46a.31.31,0,0,0-.32.31.32.32,0,1,0,.32-.31Z"/>
        <path class="cls-1" d="M252.47,47.69a.32.32,0,0,0,0,.63.31.31,0,0,0,.33-.3A.32.32,0,0,0,252.47,47.69Z"/>
        <path class="cls-1" d="M252.5,46.84a.31.31,0,0,0-.32.3.31.31,0,0,0,.3.33.32.32,0,0,0,.33-.31A.31.31,0,0,0,252.5,46.84Z"/>
        <path class="cls-1" d="M253.45,44.31a.32.32,0,1,0,0,.63.32.32,0,0,0,0-.63Z"/>
        <path class="cls-1" d="M252.59,44.28a.31.31,0,0,0-.32.3.31.31,0,0,0,.3.33.32.32,0,0,0,.33-.31A.31.31,0,0,0,252.59,44.28Z"/>
        <path class="cls-1" d="M251.8,42.54a.32.32,0,0,0-.33.3.32.32,0,0,0,.31.33.32.32,0,1,0,0-.63Z"/>
        <path class="cls-1" d="M253.42,45.16a.32.32,0,0,0-.33.31.32.32,0,0,0,.63,0A.31.31,0,0,0,253.42,45.16Z"/>
        <path class="cls-1" d="M252.66,42.57a.32.32,0,0,0,0,.63.32.32,0,1,0,0-.63Z"/>
        <polygon class="cls-1" points="246.57 70.34 247.06 71.16 247.56 70.34 247.56 70.34 246.57 70.34"/>
        <path class="cls-1" d="M252.63,43.42a.32.32,0,0,0-.33.31.32.32,0,1,0,.33-.31Z"/>
        <polygon class="cls-1" points="245.56 70.34 245.8 69.95 245.3 69.92 245.55 70.34 245.56 70.33 245.56 70.34"/>
        <polygon class="cls-1" points="244.57 70.34 244.84 69.89 244.26 69.85 244.55 70.34 244.56 70.33 244.57 70.34"/>
        <path class="cls-1" d="M243.57,70.34l.3-.5.28,0a.91.91,0,0,0-.23,0h0l-.66,0,.34.56h0Z"/>
        <path class="cls-1" d="M246.56,70.34l.18-.31h.1l0-.07,0,.08.47,0,.15.26.15-.24h.14l-.28-.11h0a2,2,0,0,0-.66-.17h0a1.79,1.79,0,0,0-.65.17h.13l.2.33h0Z"/>
        <polygon class="cls-1" points="245 33.43 246.07 33.43 245.53 32.56 245 33.43"/>
        <polygon class="cls-1" points="253.86 22.65 253.33 21.8 252.82 22.65 253.85 22.65 253.86 22.65"/>
        <polygon class="cls-1" points="243.56 71.98 244.06 71.16 243.06 71.16 243.56 71.98"/>
        <polygon class="cls-1" points="243.56 70.34 243.56 70.34 242.57 70.34 243.06 71.16 243.56 70.34"/>
        <polygon class="cls-1" points="246.56 70.34 246.55 70.34 246.55 70.34 245.57 70.34 245.56 70.34 245.56 70.34 245.55 70.34 244.57 70.34 244.57 70.34 244.56 70.34 244.55 70.34 243.58 70.34 243.57 70.34 243.56 70.34 244.06 71.16 244.06 71.15 244.07 71.16 244.57 70.35 245.06 71.16 245.06 71.15 245.07 71.16 245.56 70.35 246.05 71.16 246.06 71.15 246.06 71.16 246.57 70.34 246.56 70.34"/>
        <polygon class="cls-1" points="243.94 33.43 245 33.43 244.47 32.56 243.94 33.43"/>
        <polygon class="cls-1" points="242.07 71.16 242.56 71.98 243.06 71.16 242.07 71.16"/>
        <polygon class="cls-1" points="253.33 21.8 254.38 21.8 253.85 20.95 253.33 21.8"/>
        <polygon class="cls-1" points="254.9 22.65 254.91 22.65 254.38 21.8 253.86 22.65 254.9 22.65"/>
        <polygon class="cls-1" points="254.38 23.5 255.42 23.5 254.9 22.65 254.38 23.5"/>
        <polygon class="cls-1" points="253.33 23.5 254.38 23.5 253.85 22.65 253.33 23.5"/>
        <polygon class="cls-1" points="253.86 20.95 253.33 20.09 252.82 20.95 253.85 20.95 253.86 20.95"/>
        <polygon class="cls-1" points="245.53 32.56 245.54 32.56 245 31.69 244.47 32.56 245.53 32.56"/>
        <polygon class="cls-1" points="252.81 20.95 252.29 21.8 253.33 21.8 252.81 20.95"/>
        <polygon class="cls-1" points="252.81 22.65 252.82 22.65 252.29 21.8 251.77 22.65 252.81 22.65"/>
        <polygon class="cls-1" points="245 31.69 245 31.69 245 31.69 245 31.69"/>
        <path class="cls-1" d="M169.45,60.68h0C169.52,60.86,169.44,60.68,169.45,60.68Z"/>
        <path class="cls-1" d="M179.55,55.24h2v5.57h1.51V55.24h1c.78-.22.86-.69,1-1.21h-5.54Z"/>
        <path class="cls-1" d="M188.58,59.31h-.39a.58.58,0,0,0-.4.11.51.51,0,0,0-.11.39v.47a.42.42,0,0,0,.51.51h.39a.55.55,0,0,0,.4-.11.58.58,0,0,0,.11-.4v-.47a.55.55,0,0,0-.11-.39A.6.6,0,0,0,188.58,59.31Z"/>
        <path class="cls-1" d="M168.21,59.6h-1.43a.45.45,0,0,1-.35-.12.59.59,0,0,1-.11-.39v-1.3H169V56.71h-2.7v-1a.57.57,0,0,1,.11-.38.45.45,0,0,1,.35-.12h1.63a1.27,1.27,0,0,0,1-1.11c-.62-.06-1.66-.09-3.14-.09a1.52,1.52,0,0,0-1.07.36,1.3,1.3,0,0,0-.41,1v4.09a1.3,1.3,0,0,0,.41,1,1.52,1.52,0,0,0,1.07.36c1.48,0,2.53,0,3.14-.09h0l0,0A1.5,1.5,0,0,0,168.21,59.6Z"/>
        <path class="cls-1" d="M175.64,57l-1.28-.44a1.36,1.36,0,0,1-.56-.28.66.66,0,0,1-.15-.48c0-.28.06-.45.2-.52a1.92,1.92,0,0,1,.78-.1h1.22a1.22,1.22,0,0,0,1-1v0a8.48,8.48,0,0,0-2.23-.26,3.46,3.46,0,0,0-1.92.38,1.72,1.72,0,0,0-.55,1.5,2.08,2.08,0,0,0,.33,1.23,2.05,2.05,0,0,0,1.08.75l1.37.48a1.5,1.5,0,0,1,.5.26.72.72,0,0,1,.14.49c0,.27-.07.45-.21.53a1.59,1.59,0,0,1-.8.13l-1.17,0a1.23,1.23,0,0,0-1.16,1.05h0a11.09,11.09,0,0,0,2.33.26,3.48,3.48,0,0,0,2-.41,1.82,1.82,0,0,0,.55-1.55,2.21,2.21,0,0,0-.32-1.24A2.14,2.14,0,0,0,175.64,57Z"/>
        <path class="cls-1" d="M203.52,53.9a2.37,2.37,0,0,0-2,.78,4.84,4.84,0,0,0-.57,2.73,4.86,4.86,0,0,0,.57,2.73,3,3,0,0,0,4.06,0,4.86,4.86,0,0,0,.57-2.73,4.84,4.84,0,0,0-.57-2.73A2.39,2.39,0,0,0,203.52,53.9Zm.9,5.36a.91.91,0,0,1-.91.47.88.88,0,0,1-.89-.47,4.76,4.76,0,0,1-.23-1.85,4.76,4.76,0,0,1,.23-1.85.89.89,0,0,1,.89-.48.92.92,0,0,1,.91.48,5,5,0,0,1,.23,1.85A5,5,0,0,1,204.42,59.26Z"/>
        <path class="cls-1" d="M208.63,54.7l.18,1,1.58-.41a3.88,3.88,0,0,0-.06.74v4.76h1.49V54h-1.49Z"/>
        <path class="cls-1" d="M216.85,59.52l1.74-1.81a5,5,0,0,0,.88-1.16,2.59,2.59,0,0,0,.22-1.07,1.32,1.32,0,0,0-.57-1.24,3.43,3.43,0,0,0-1.7-.33,11.58,11.58,0,0,0-2.27.23l.06,1.13q1-.09,2-.09a1.93,1.93,0,0,1,.7.09.35.35,0,0,1,.22.36c0,.45-.4,1.09-1.21,1.94l-1.66,1.78a.85.85,0,0,0-.21.61v.83h4.79V59.45h-2A5.42,5.42,0,0,0,216.85,59.52Z"/>
        <path class="cls-1" d="M195.06,59.52l1.73-1.81a5,5,0,0,0,.88-1.16,2.44,2.44,0,0,0,.22-1.07,1.33,1.33,0,0,0-.56-1.24,3.48,3.48,0,0,0-1.7-.33,11.76,11.76,0,0,0-2.28.23l.06,1.13q1-.09,2-.09a2,2,0,0,1,.71.09.36.36,0,0,1,.21.36c0,.45-.39,1.09-1.21,1.94l-1.65,1.78a.82.82,0,0,0-.22.61v.83h4.8V59.45h-2A5.28,5.28,0,0,0,195.06,59.52Z"/>
        <path class="cls-1" d="M48.48,39.67l-3.3-1.13a3.93,3.93,0,0,1-1.43-.73,1.69,1.69,0,0,1-.38-1.23q0-1.06.51-1.32a4.86,4.86,0,0,1,2-.27C47,35,48.06,35,49,35h0a3.16,3.16,0,0,0,2.57-2.51v0a21.15,21.15,0,0,0-5.71-.67c-2.34,0-4,.32-4.91,1s-1.4,1.93-1.4,3.84a5.5,5.5,0,0,0,.83,3.17,5.48,5.48,0,0,0,2.77,1.91l3.49,1.23a3.52,3.52,0,0,1,1.29.67,1.78,1.78,0,0,1,.35,1.24,1.49,1.49,0,0,1-.52,1.36,4.23,4.23,0,0,1-2,.33l-3-.06c-1.32.12-2.39.7-3,2.69h0a28.46,28.46,0,0,0,6,.65q3.63,0,5-1t1.41-4a5.56,5.56,0,0,0-.83-3.18A5.44,5.44,0,0,0,48.48,39.67Z"/>
        <path class="cls-1" d="M98.87,35.22h5.18V49.45h3.85V35.22h2.54c2-.58,2.21-1.76,2.61-3.09v0H98.87Z"/>
        <path class="cls-1" d="M88.61,39.67l-3.29-1.13a3.76,3.76,0,0,1-1.44-.73,1.69,1.69,0,0,1-.37-1.23c0-.71.16-1.15.5-1.32A4.86,4.86,0,0,1,86,35q1.71,0,3.12,0h0A3.15,3.15,0,0,0,91.7,32.5v0a21.13,21.13,0,0,0-5.7-.67q-3.52,0-4.92,1c-.93.65-1.4,1.93-1.4,3.84a5.53,5.53,0,0,0,.83,3.17,5.58,5.58,0,0,0,2.77,1.91l3.49,1.23a3.17,3.17,0,0,1,1.29.67,1.78,1.78,0,0,1,.35,1.24,1.49,1.49,0,0,1-.52,1.36,4.23,4.23,0,0,1-2,.33l-3-.06c-1.32.12-2.39.7-3,2.69h0a28.54,28.54,0,0,0,6,.65c2.42,0,4.09-.35,5-1s1.41-2,1.41-4a4.78,4.78,0,0,0-3.67-5.11Z"/>
        <path class="cls-1" d="M66.66,38.46A15.14,15.14,0,0,0,66,40.65h-.25a14.73,14.73,0,0,0-.66-2.19L62.23,32.1h-4L64,43.72v5.73h3.85V43.72L73.5,32.1h-4Z"/>
        <path class="cls-1" d="M8.8,40.27v-.1a2.67,2.67,0,0,0,2.06-1.33,6.51,6.51,0,0,0,.58-3.05,3.53,3.53,0,0,0-1.28-3.14,8,8,0,0,0-4.38-.88,34.23,34.23,0,0,0-5.45.45L.5,35c1.65-.07,3.19-.1,4.63-.1a4.46,4.46,0,0,1,2.16.34c.36.22.53.75.53,1.57a2.75,2.75,0,0,1-.41,1.75,2.5,2.5,0,0,1-1.95.56H2.21v2.62H5.46a2.86,2.86,0,0,1,2.11.54,2.57,2.57,0,0,1,.55,1.85,2.38,2.38,0,0,1-.68,2,4.41,4.41,0,0,1-2.51.51c-1.31,0-2.9-.06-4.78-.17L0,49.32a46.2,46.2,0,0,0,6,.46c2.18,0,3.72-.41,4.63-1.21a5,5,0,0,0,1.31-4,5.69,5.69,0,0,0-.72-3A3.29,3.29,0,0,0,8.8,40.27Z"/>
        <path class="cls-1" d="M218.11,47.86c1.09-1.29,1.63-3.64,1.63-7.08s-.55-5.8-1.63-7.08-3-1.92-5.81-1.92-4.72.64-5.8,1.92-1.62,3.64-1.62,7.08.54,5.8,1.62,7.08,3,1.92,5.8,1.92S217,49.14,218.11,47.86ZM215,45.46a3.53,3.53,0,0,1-5.36,0,10.31,10.31,0,0,1-.72-4.68,10.31,10.31,0,0,1,.72-4.68,3.53,3.53,0,0,1,5.36,0,10.49,10.49,0,0,1,.71,4.68A10.49,10.49,0,0,1,215,45.46Z"/>
        <path class="cls-1" d="M25.3,31.88q-3.16,0-6.74.22V49.45c2.38.16,4.63.23,6.74.23q4.15,0,5.77-1.91t1.62-7q0-5.09-1.62-7C30,32.51,28.07,31.88,25.3,31.88ZM28,45.43a2.8,2.8,0,0,1-2.65,1.23H22.38V34.89l2.92,0A2.79,2.79,0,0,1,28,36.11a10.35,10.35,0,0,1,.72,4.67A10.22,10.22,0,0,1,28,45.43Z"/>
        <path class="cls-1" d="M171.36,31.88c-2.83,0-5,.07-6.58.22V49.45h3.82V43a27.09,27.09,0,0,0,3.27.2q3.28,0,4.56-1.2c.85-.79,1.27-2.29,1.27-4.49s-.45-3.68-1.34-4.47S173.8,31.88,171.36,31.88Zm1.95,8a2.8,2.8,0,0,1-2,.58H168.6V35l2.69,0a2.8,2.8,0,0,1,2,.56,3.16,3.16,0,0,1,.54,2.16A3.14,3.14,0,0,1,173.31,39.84Z"/>
        <path class="cls-1" d="M194.17,41.43v-.12A3.48,3.48,0,0,0,196.72,40a5.11,5.11,0,0,0,.77-3c0-1.95-.49-3.29-1.46-4s-2.62-1.1-4.95-1.1q-4.28,0-6.62.22V49.45h3.77V42.66l2.7,0a1.94,1.94,0,0,1,1.19.31,2,2,0,0,1,.67,1.15l1.3,5.3h4l-1.51-5.4A3.25,3.25,0,0,0,194.17,41.43Zm-1.11-2.08a3,3,0,0,1-2.06.52h-2.77V35L191,35a3.11,3.11,0,0,1,2.08.51,2.62,2.62,0,0,1,.54,1.93A2.62,2.62,0,0,1,193.06,39.35Z"/>
        <path class="cls-1" d="M131.25,49.17c-.54-1.3-1-2.44-3.14-2.71h-3.66a1.2,1.2,0,0,1-.91-.3,1.5,1.5,0,0,1-.28-1V41.81h6.92V39h-6.92V36.4a1.45,1.45,0,0,1,.28-1,1.2,1.2,0,0,1,.91-.3h4.18a3.27,3.27,0,0,0,2.65-2.84q-2.37-.26-8-.25a3.94,3.94,0,0,0-2.77.94,3.36,3.36,0,0,0-1,2.55V46a3.37,3.37,0,0,0,1,2.56,3.94,3.94,0,0,0,2.77.94q5.69,0,8-.25v0Z"/>
        <path class="cls-1" d="M156,32.1h-3.69a1.46,1.46,0,0,0-1.56,1.23L148.62,42c-.08.33-.16.8-.26,1.4s-.18,1-.19,1h-.33q-.26-1.61-.45-2.43l-2.11-8.66a1.43,1.43,0,0,0-1.51-1.23h-3.7a1.3,1.3,0,0,0-1.43,1.44L138,49.45h3.62l.5-14.36h.43l2.64,10.74a1.45,1.45,0,0,0,1.56,1.24h2.51a1.44,1.44,0,0,0,1.56-1.24l2.62-10.74h.43l.57,14.36h3.63l-.68-15.91A1.3,1.3,0,0,0,156,32.1Z"/>
        <polygon class="cls-1" points="229.47 34.79 228.5 31.77 227.2 31.77 227.2 36.1 228.09 36.1 228.09 33.25 229.01 36.1 229.91 36.1 230.87 33.25 230.87 36.1 231.76 36.1 231.76 31.77 230.46 31.77 229.47 34.79"/>
        <polygon class="cls-1" points="222.97 32.7 224.23 32.7 224.23 36.1 225.27 36.1 225.27 32.7 226.54 32.7 226.54 31.77 222.97 31.77 222.97 32.7"/>
      </g>
    </g>
  </g>
</svg>
