<svg xmlns="http://www.w3.org/2000/svg" viewBox="0 0 274.78 81.17" width="275" height="81">
  <defs>
    <style>
      .cls-1, .cls-2 {
        fill: #010101;
      }

      .cls-1 {
        fill-rule: evenodd;
      }
    </style>
  </defs>
  <title>logo-top</title>
  <g id="Слой_2" data-name="Слой 2">
    <g id="Слой_1-2" data-name="Слой 1">
      <path class="cls-1" d="M249.19,24.08,246,18.67a.82.82,0,0,0,.29-.63.81.81,0,0,0-.47-.74l1-3.51H247l.08.38,5.74,4.75-.07.12-5.62-4.65.29,1.36,0,.08,4.86,3.95-.12.19h0l-4.69-3.88.27,1.24,4,3.32h0l-.15.25-3.76-3.11.52,1.45,2.83,2.33-.13.22h1l-.52.85-.52-.84,0,0-2.83-2.34.22,1,2.28,1.89-.16.26h1l-.52.85h1.05l-.48.81h-.11l-.46-.81-.51-.83-.06.1.07-.13h0l-.07.13-1.9-1.57.19.88,1.41,1.17h0l-.15.25h1l-.47.81h-.11l-.47-.75-.08.13-1-.8.17.77.09.44Zm5-19.66.49.81h-1l.5-.82Zm-.26-2.86,0,0,0,0a.86.86,0,0,0,.36.08l.19,0,.21.34h-1l.47.79h-.9l0,.08.45.74h-.82l.12.47.22.36h-.13l0,.14.09-.14.49.82h-.41l.13.48.29-.48.49.82h-.7l.11.4-1.81-.21-.94-2.7,3-2,0,0ZM254,6.3l.15-.25,0,.06L254,6.3ZM254.76,2h-.09l.06-.1,0,.1Zm-.5,4.09h-.09l.49-.81h0l.05.07a2.66,2.66,0,0,1-.46.75Zm.41-.82.17-.28c0,.09-.06.19-.09.28Zm-1.49-.82.49-.81h0l.48.81Zm1,0h0Zm.78,0h-.78l.49-.81.33.54a2.51,2.51,0,0,1,0,.27Zm-1.28-.83.49-.8.49.8Zm1,0h0Zm0,0h0Zm.35,0h-.35l.32-.51a4.36,4.36,0,0,1,0,.51Zm-.86-.8h0Zm0,0h0Zm.77,0h-.77l.49-.8.17.27c0,.17.08.35.11.53ZM242.42,73.71l.29.15-.17-.26a.65.65,0,0,0,.16-.37l.57.94,1.16.63-1.13-1.86h0l0-.08.31-.12.54.88h0l.72,1.18L234.67,75a1,1,0,0,0-.06-.16l.7-.5.07,0,6.07-.85a.66.66,0,0,0,1,.29Zm2.65,1.45.1,0a.55.55,0,0,0,.1.22l-4.37,4.24a.82.82,0,0,0-.47-.14.84.84,0,0,0-.55.21l-5.29-4.18a.69.69,0,0,0,0-.13l10.43-.27Zm.35-.62-1-1.6h0l-.27-.44.31-.12.17.29h0l.1.17.07.11h0l.9,1.49a.68.68,0,0,0-.31.11Zm.9-.46-.69-1.14h0l-.49-.8.31-.12.56.92h0l.53.89-.2.25Zm.65-.79-.92-1.52.31-.12.78,1.29h0l.05.09-.22.26Zm.66-.81L247,71.41l.3-.12.56.93-.22.26Zm.68-.82-.37-.62.29-.11.29.48-.21.25Zm.65-.79-.11-.18.18-.07.09,0-.16.2Zm-7.34-.18.25.41h-.14l-.11-.41Zm.15.58.1-.17.49.82h-.42l-.17-.65Zm.3,1.16.3-.51.46.76-.17.06h-.13a.64.64,0,0,0-.44-.21l0-.1Zm.86.21.44-.72.27.45-.71.27Zm1.3-.51.13-.21.08.13-.21.08Zm.55-.21h-.41l.49-.81.38.63-.46.18Zm.77-.29.32-.53.19.33-.51.2Zm1.3-.51v0h0Zm.05,0h0l.5-.82.32.52-.78.3Zm1.25-.49.21-.33.12.21-.33.12Zm.63-.33h-.43l.12-.2h-.25l.13.21h-1l.14-.24h.14l-.27-.1h0a1.81,1.81,0,0,0-.66-.18h0a2,2,0,0,0-.65.17h.13l.2.33h-3l.31-.49H244l-.22,0h0l-.67,0,.34.56h-1l.36-.58-.24,0h.07l.34-.12h0a4.5,4.5,0,0,1,.48-.16h0a1.75,1.75,0,0,1,.32,0h.05a1.65,1.65,0,0,1,.31,0h0a4.5,4.5,0,0,1,.48.16h0a2.08,2.08,0,0,0,.66.17,1.13,1.13,0,0,0,.32,0l.34-.12h0a5,5,0,0,1,.51-.16h0a1.75,1.75,0,0,1,.32,0h0a1.65,1.65,0,0,1,.32,0h0a4.32,4.32,0,0,1,.51.16h0a2.08,2.08,0,0,0,.66.17,1.13,1.13,0,0,0,.32,0l.29-.1.09.11a.57.57,0,0,0-.13.36l-.23.07h.23a.41.41,0,0,0,0,.16ZM247.2,70l.16.26h-1l.18-.3h.11l0-.06,0,.07.47,0Zm-5.2-.35.36.61h-.84l0-.16a.65.65,0,0,0,.35-.48l.09,0Zm2.06.12.58,0-.27.45h0l-.3-.49Zm1,.07.5,0-.24.39h0l-.25-.42Zm-2.74,2.06.51-.82.49.82h-1Zm1,0,.5-.82.5.82h-1Zm1,0h0Zm-2.49-.82.5-.82.5.82Zm1,0,.5-.82.49.82Zm1,0h0Zm-.5-.82h0Zm1,0,.49.81h-1l.49-.81Zm.49.81h0Zm.51-.81.48.81h-1l.5-.81Zm1.49.81h-1l.5-.82.49.82Zm-5.06-1.78a1.55,1.55,0,0,0,.43.07,2.24,2.24,0,0,0,.81-.2h0a2,2,0,0,1,.65-.18h0a1.92,1.92,0,0,1,.65.18h0a1.76,1.76,0,0,0,1.63,0h0a1.81,1.81,0,0,1,.66-.18h0a1.81,1.81,0,0,1,.66.18h0a2.24,2.24,0,0,0,.81.2,1.56,1.56,0,0,0,.44-.07h0l-.21-.26v0a.28.28,0,0,1,0-.09l-.19,0a1.81,1.81,0,0,1-.66-.18h0l-.12,0h0a1.85,1.85,0,0,0-.7-.17h0a1.85,1.85,0,0,0-.7.17h0l-.11,0h0a2,2,0,0,1-.66.17,1.81,1.81,0,0,1-.66-.18h0l-.1,0h0a2.05,2.05,0,0,0-.7-.17h0a2.05,2.05,0,0,0-.7.17h0l-.1,0h0a2,2,0,0,1-.66.17,1.12,1.12,0,0,1-.31,0l-.21.24a.56.56,0,0,1,.09.17Zm6.92,0,.17.21h-.08a.34.34,0,0,1,.12.06.64.64,0,0,1,1.11.45s0,.08,0,.12h0v0l.33.15v-.69l-.24.13h0a.32.32,0,0,1,.3-.34.32.32,0,0,1,.2.06h0l.14-.08v1.12l.6.27V69.09l-.16.09a.31.31,0,1,1,.36-.33.59.59,0,0,1,0,.14h0l.24-.14h0a.32.32,0,0,1,.3-.33.38.38,0,0,1,.19,0l-.43.25,0,2.24h0l.5.23V68.51l.47-.27a.31.31,0,0,1-.25-.3.31.31,0,0,1,.3-.33.32.32,0,0,1,.33.3.5.5,0,0,1,0,.12l-.28.16v3.34h0l.44.21h0v-3.8l.07,0h0a.3.3,0,0,1,.3-.32.26.26,0,0,1,.19.05h0l.08-.05V72l.37.17V67.36l.12-.07h0a.32.32,0,0,1-.25-.29.33.33,0,0,1,.3-.33.32.32,0,0,1,.34.3.52.52,0,0,1,0,.11h0l.22-.13v5.57l.29.13V66.78l-.27.16a.3.3,0,0,1,.29-.32.32.32,0,0,1,.19,0h0l.11-.07.45-.26a.31.31,0,0,1-.24-.28.32.32,0,1,1,.63,0,.16.16,0,0,1,0,.1h0l.23-.13a.32.32,0,0,1,.3-.31.24.24,0,0,1,.17,0h0v7.8h0l.14.06V65.63l.4-.23h0a.33.33,0,0,1-.22-.29.32.32,0,1,1,.63,0,.28.28,0,0,1,0,.09l.14-.08h0V74l.06,0v-9h0l0,0a.32.32,0,0,1,.3-.3.27.27,0,0,1,.16,0l.56-.32a.32.32,0,0,1-.21-.25H259a.32.32,0,0,1-.3.3.31.31,0,0,1-.33-.27l-.23,0a.31.31,0,0,1-.29.3.31.31,0,0,1-.33-.27h-.23a.3.3,0,0,1-.3.3.32.32,0,0,1-.33-.27l-.22,0a.31.31,0,0,1-.3.3.32.32,0,0,1-.33-.27h-.22a.32.32,0,0,1-.3.31.32.32,0,0,1-.33-.28l-.22,0a.32.32,0,0,1-.3.3.31.31,0,0,1-.33-.27h-.22a.33.33,0,0,1-.3.31.31.31,0,0,1-.33-.27H253a.3.3,0,0,1-.3.3.32.32,0,0,1-.33-.27h-.22a.31.31,0,0,1-.3.31.32.32,0,0,1-.33-.27h-.22a.32.32,0,0,1-.63,0h-.22a.32.32,0,0,1-.3.31.31.31,0,0,1-.33-.27h-.22a.33.33,0,0,1-.3.31.31.31,0,0,1-.33-.28h-.23a.32.32,0,0,1-.3.32.33.33,0,0,1-.33-.28h-.22a.31.31,0,0,1-.3.31.32.32,0,0,1-.33-.28h-.22a.32.32,0,0,1-.63,0h-.22a.3.3,0,0,1-.3.31.2.2,0,0,1-.11,0,.68.68,0,0,1-.33.36l.08.08h0a1.13,1.13,0,0,1-.32,0h-.05a1.57,1.57,0,0,1-.3,0l-.1,0-.29.34a2,2,0,0,0,.73.17h0a1.87,1.87,0,0,0,.62-.14l-.22-.26a.32.32,0,0,1,.63,0,.32.32,0,0,1-.29.34h-.05l.18.21-.21.08a3.4,3.4,0,0,1-.34.12,1.13,1.13,0,0,1-.32,0h-.05a1,1,0,0,1-.3,0l-.34-.12-.3-.11-.32.36a2.47,2.47,0,0,1,.46.15h0a4.91,4.91,0,0,0,.5.17h0a2,2,0,0,0,.35,0h0a1.75,1.75,0,0,0,.33,0h0a3.57,3.57,0,0,0,.46-.16h0a3.43,3.43,0,0,1,.38-.13l.27.31a2.3,2.3,0,0,0-.78.2h0a2,2,0,0,1-.66.17h-.05a1.9,1.9,0,0,1-.64-.17h0a2.19,2.19,0,0,0-.79-.2h-.11l-.49.57a1.4,1.4,0,0,1,.55-.14h0a1.9,1.9,0,0,1,.64.17h0a2.35,2.35,0,0,0,.82.2,2.25,2.25,0,0,0,.82-.2h0a1.84,1.84,0,0,1,.66-.17h0a1.12,1.12,0,0,1,.31,0l-.25-.3a.2.2,0,0,1,.11,0,.32.32,0,0,1,.33.3.4.4,0,0,1,0,.15l.39.45a.29.29,0,0,1,.2-.09.32.32,0,0,1,.34.3.34.34,0,0,1-.19.3l-.39-.46h0l0,0h0a2.19,2.19,0,0,0-.8-.2h0a2.24,2.24,0,0,0-.81.2h0l-.29.11h0a1.14,1.14,0,0,1-.4.08,1.21,1.21,0,0,1-.37-.07h0l-.29-.11h0a2.7,2.7,0,0,0-.79-.2h-.06a2.7,2.7,0,0,0-.79.2h0l-.28.11-.44.5h.06a2.3,2.3,0,0,0,.82-.2h0a2,2,0,0,1,.64-.18h0a1.93,1.93,0,0,1,.64.18h0a1.76,1.76,0,0,0,1.63,0h0a1.87,1.87,0,0,1,.66-.18h0a1.81,1.81,0,0,1,.66.18h0a2.55,2.55,0,0,0,.73.2l.27.32a.33.33,0,0,1,.29-.24.32.32,0,0,1,.33.3.31.31,0,0,1-.27.33ZM250,40a.81.81,0,0,1,.76.53l4.78,2.62-.05-.54-5.57-3,0-.72,5.55,3,0-.53-5.53-3,0-.74,5.5,3,0-.35-5.48-3,0-.91,5.45,3,0-.35-5.43-3,0-.92,5.4,3,0-.23-5.39-3v-.17h-.15l-3.49,0,3.62,5.38A.72.72,0,0,1,250,40Zm.6,1.33a.76.76,0,0,1-.57.27.34.34,0,0,1,.16.29.31.31,0,0,1-.32.3l0-.59-.19-.05h0l0,0h0l-3,5.78A.84.84,0,0,1,247,48a.82.82,0,0,1-.19.53l2.45,3.12a.71.71,0,0,1,.32-.07h.07a.7.7,0,0,1,.35.12l.13-.18v.28a.77.77,0,0,1,.23.55.74.74,0,0,1-.17.48l0,.09.12-.18.17.18h-.29l.52.85.52.84.33-.54,0,0v-4.6l-.34.47a.33.33,0,0,1-.2-.31.31.31,0,0,1,.33-.3.3.3,0,0,1,.23.11l.35-.49a.32.32,0,0,1,0-.14.33.33,0,0,1,.33-.31h0l-.15.2,0,5.91,0,0h-.87l.52.85.52.85.52-.85,0-.07-.25-.27.21.34h-1l-.52.85-.52-.85h1l.45-.74.28.29v0h0V48.15l.52-.71a.3.3,0,0,1-.21-.31.31.31,0,0,1,.32-.3.31.31,0,0,1,.25.13l-.22.31v8.49l-.24-.26h-.11l.52.85.15-.25,0,0V47h0v-.16l.28-.37a.29.29,0,0,1,0-.16A.31.31,0,0,1,254,46h0l.09-.13V46h0V56.77l.19.2V45.62l.49-.67a.32.32,0,0,1,.1-.62.34.34,0,0,1,.25.14l0,0V57.88l.09.09h.05V44.27l.19-.28a.34.34,0,0,1-.05-.17l-.23-.13a.23.23,0,0,1,0,.12.31.31,0,0,1-.32.3.32.32,0,0,1-.31-.33.32.32,0,0,1,.25-.29l-.58-.32a.31.31,0,0,1-.19.06.32.32,0,0,1-.3-.32l-.24-.13a.36.36,0,0,1,0,.11.32.32,0,1,1-.39-.32l-.57-.31a.26.26,0,0,1-.19.05.31.31,0,0,1-.31-.32l-.23-.13a.49.49,0,0,1,0,.12.31.31,0,0,1-.32.3.31.31,0,0,1-.31-.32.32.32,0,0,1,.24-.3l-.57-.31a.38.38,0,0,1-.19,0,.23.23,0,0,1-.14,0Zm-1.4-.51v0a.81.81,0,0,1,.24-.58L246,35.12l.35,12.13h.05l3.07-5.83a.81.81,0,0,1-.26-.52h0Zm4.3-21.62.06.08-.47.77h.93l.06.09-.46.76-.53-.85-.52-.85h.93Zm1,1.7.06.09-.47.76-.52-.85h.93Zm.52.85.06.1-.46.75-.53-.85Zm.51.85.06.1-.45.75-.53-.85h.92Zm.52.85.07.11-.41.7h-.11l-.46-.81Zm-1.39.81h-.11l-.46-.81h1.05l-.48.81Zm-1,0h-.11l-.46-.81h1l-.47.81Zm-1,0h-.11l-.46-.81h1l-.47.81Zm-1.09-3.35.52.84.52.85.52-.85h-1l.51-.85h-1Zm.52-.86.52.85.52-.85h-1Zm2.08,3.4.52-.85h-1l.52.85Zm-1,0,.52-.85H252.6l.53.85Zm-1,0,.51-.85h-1l.53.85Zm1.57-.85.51-.85h-1l.53.85Zm-.53-.85.52-.85H252.6l.53.85Zm-7.79,8.76a.7.7,0,0,1,.37.11h0l.08.06,2-1.56H243l-2.11,1.71s0,.08,0,.12h3.81a.65.65,0,0,1,.62-.44Zm.45,1.13a.6.6,0,0,1-.45.19.67.67,0,0,1-.47-.2h-.06l.53.87.49-.8,0-.06Zm-.95,0a.52.52,0,0,1-.11-.19h-3.82a.87.87,0,0,1-.16.3l2.23,2.5h.25l.51-.84.53-.87.54.87.49.81h.08l.49-.8h-2.13l.51.82h.06l.5-.82.52-.87h-1.05l.53-.87h0l0,0Zm1.62,2.56.38-.62-.09-.17h-.88l.49.79Zm-.59-.79.46-.76-.06-.11h-.94l.54.87Zm-1.06-1.74h0Zm6.77,3L255,36.55v.17l-3.75-2.06h.3Zm-.93,16.06a.34.34,0,0,1-.2.06.31.31,0,0,1-.3-.33.31.31,0,0,1,.32-.3.32.32,0,0,1,.31.33.24.24,0,0,1,0,.08l.34-.45v3.45l.23.25h-.58l-.52.84-.52-.84h1l.22-.36-.34-.37V50.75l0,0Zm-.19.28-.32.44a.3.3,0,0,1,0-.13.31.31,0,0,1,.32-.31Zm-.87.6,0-.63a.33.33,0,0,1,.29.33.31.31,0,0,1-.31.3Zm0-.85,0-.63a.33.33,0,0,1,.29.33.32.32,0,0,1-.31.3Zm0-.85,0-.63a.32.32,0,0,1,.29.32.33.33,0,0,1-.31.31Zm0-.85,0-.63a.32.32,0,0,1,.29.32.33.33,0,0,1-.31.31Zm0-.86,0-.63a.33.33,0,0,1,.29.33.32.32,0,0,1-.31.3Zm0-.85,0-.63a.33.33,0,0,1,.29.33.32.32,0,0,1-.32.3Zm0-.85,0-.63a.32.32,0,0,1,.3.32.33.33,0,0,1-.32.31Zm0-.86,0-.63a.33.33,0,0,1,.3.33.32.32,0,0,1-.32.3Zm0-.85,0-.63a.33.33,0,0,1,.3.33.32.32,0,0,1-.32.3Zm0-.85,0-.63a.32.32,0,0,1,0,.63Zm0-.85,0-.63a.31.31,0,0,1,.3.32.33.33,0,0,1-.32.31Zm3.92.67a.31.31,0,0,1,.33-.3.31.31,0,0,1,.3.33.32.32,0,0,1-.63,0Zm0,.86a.32.32,0,1,1,.3.32.31.31,0,0,1-.3-.32Zm0,.85a.32.32,0,1,1,.3.33.32.32,0,0,1-.3-.33ZM253,43.72a.31.31,0,0,1,.32-.3.32.32,0,1,1-.32.3Zm0,.86a.31.31,0,0,1,.32-.31.32.32,0,0,1,.31.33.31.31,0,0,1-.33.3.31.31,0,0,1-.3-.32Zm0,.85a.31.31,0,0,1,.32-.31.33.33,0,0,1,.31.33.32.32,0,1,1-.63,0Zm0,.85a.31.31,0,0,1,.32-.3.31.31,0,0,1,.31.32.32.32,0,0,1-.33.31.31.31,0,0,1-.3-.33Zm-.74-3.44a.32.32,0,0,1,.33-.3.31.31,0,0,1,.31.32.32.32,0,1,1-.64,0Zm0,.85a.32.32,0,0,1,.33-.3.32.32,0,0,1,.31.33.32.32,0,0,1-.64,0Zm0,.86a.32.32,0,1,1,.31.32.31.31,0,0,1-.31-.32Zm0,.85a.32.32,0,1,1,.31.33.33.33,0,0,1-.31-.33Zm0,.85a.32.32,0,0,1,.64,0,.33.33,0,0,1-.33.31.32.32,0,0,1-.31-.33Zm0,.85a.32.32,0,1,1,.31.33.32.32,0,0,1-.31-.33Zm0,.86a.32.32,0,0,1,.64,0,.32.32,0,0,1-.33.3.31.31,0,0,1-.31-.32Zm-.67-5.15a.31.31,0,0,1,.33-.3.31.31,0,0,1,.3.32.31.31,0,0,1-.32.31.33.33,0,0,1-.31-.33Zm0,.85a.31.31,0,0,1,.33-.3.32.32,0,0,1,0,.63.32.32,0,0,1-.31-.33Zm0,.86a.32.32,0,1,1,.63,0,.31.31,0,0,1-.32.3.31.31,0,0,1-.31-.32Zm0,.85a.32.32,0,1,1,.63,0,.31.31,0,0,1-.32.31.33.33,0,0,1-.31-.33Zm0,.85a.31.31,0,0,1,.33-.3.31.31,0,0,1,.3.32.31.31,0,0,1-.32.31.32.32,0,0,1-.31-.33Zm0,.85a.32.32,0,0,1,.63,0,.31.31,0,0,1-.32.3.32.32,0,0,1-.31-.33Zm0,.86a.32.32,0,0,1,.33-.31.31.31,0,0,1,.3.33.32.32,0,0,1-.63,0Zm0,.85a.32.32,0,1,1,.63,0,.31.31,0,0,1-.32.31.32.32,0,0,1-.31-.33Zm-.61-6.85a.32.32,0,1,1,.63,0,.31.31,0,0,1-.33.3.31.31,0,0,1-.3-.32Zm0,.85a.32.32,0,0,1,.63,0,.32.32,0,1,1-.63,0Zm0,.85a.32.32,0,0,1,.63,0,.32.32,0,1,1-.63,0Zm0,.86a.31.31,0,0,1,.33-.31.32.32,0,1,1,0,.63.31.31,0,0,1-.3-.32Zm0,.85a.32.32,0,0,1,.33-.31.32.32,0,0,1,.3.33.31.31,0,0,1-.33.3.31.31,0,0,1-.3-.32Zm0,.85a.32.32,0,0,1,.63,0,.32.32,0,0,1-.33.31.31.31,0,0,1-.3-.33Zm0,.85a.31.31,0,0,1,.33-.3.32.32,0,1,1-.33.3Zm0,.86a.32.32,0,1,1,.3.32.31.31,0,0,1-.3-.32Zm0,.85a.32.32,0,0,1,.33-.31.32.32,0,1,1-.33.31Zm0,.85a.32.32,0,0,1,.63,0,.32.32,0,0,1-.33.31.31.31,0,0,1-.3-.33Zm3.56,6.75h-.4l.53.85.51.83h0l.36-.59-.23-.24h-1.7l.49.79h.07l.48-.79.26-.44-.39-.41Zm.59,1.68H254l-.48,1.11.45-.33.32-.78ZM253,58h-.24l-.84,2.28.35-.24.73-2Zm-.62,0,.5-.81h-1l.5.81Zm-.46,0h-.39l-1.24,3.4.5-.35L251.87,58Zm-.58,0,.5-.81h-1l.5.81Zm-.6,0h-.45l.51-.84h-1l.52.84h0l-1.62,4.52.57-.39,1.5-4.13Zm-1.09,0h-.4l.51-.84h-1l.52.84H249l-2,5.64.64-.45,2-5.19Zm-1.11,0h-.33l.51-.84h-.92l.33-.85,0-.08,0,.08.51-.85h-.27l.11-.27.16.27.52-.85h-.46l.18-.46.29.46.51-.84h-.65l.25-.65.4.65.52-.85h-.14a.75.75,0,0,1-.51.19.65.65,0,0,1-.2,0h0a.6.6,0,0,1-.19-.08l-6.07,4.73H247a.56.56,0,0,1,.46-.23l.18,0,.1-.27.46.73H248v.09a.57.57,0,0,1-.41.55l-2.06,5.69a.66.66,0,0,1,.19.18l.48-.33L248.49,58Zm-1.42.55a.53.53,0,0,1-.21-.31H241.7a.67.67,0,0,1-.23.34l3.47,5.69a.59.59,0,0,1,.23,0h.07l2-5.6-.16-.08Zm6.27-2.24h-1l.53.85.51-.85Zm-1,0h-1l.52.85.51-.85Zm-1,0h-1l.52.85.52-.85Zm-1,0h-1l.52.85.52-.85Zm-1,0h-1l.52.85.52-.85Zm1.56-.85h-1l.52.85.52-.85Zm-1,0h-1l.53.85.51-.85Zm1.56-.85h-1l.52.85.52-.85Zm-1,0h-1l.52.85.52-.85ZM246.1,66.3l.2.24a.33.33,0,0,0-.2-.24Zm10,0,.22-.13v6.91l-.22-.1h0V66.33Zm.55-1.17a.32.32,0,0,1,.3-.34.33.33,0,0,1,.33.3.32.32,0,1,1-.63,0Zm-.85,0a.31.31,0,0,1,.29-.33.32.32,0,1,1,0,.63.31.31,0,0,1-.33-.3Zm-.86,0a.33.33,0,0,1,.3-.33.32.32,0,0,1,.34.3.33.33,0,0,1-.3.33.32.32,0,0,1-.34-.3Zm0,.85a.32.32,0,1,1,.33.3.31.31,0,0,1-.33-.3Zm-.9-.8a.32.32,0,1,1,.63,0,.3.3,0,0,1-.3.33.31.31,0,0,1-.33-.29Zm.05.85a.3.3,0,0,1,.3-.33.31.31,0,0,1,.33.29.32.32,0,0,1-.3.34.32.32,0,0,1-.33-.3Zm-.9-.81a.32.32,0,1,1,.33.3.31.31,0,0,1-.33-.3Zm.05.85a.31.31,0,0,1,.29-.33.32.32,0,1,1,0,.63.31.31,0,0,1-.33-.3Zm0,.86a.32.32,0,0,1,.3-.34.31.31,0,0,1,.33.3.3.3,0,0,1-.29.33.32.32,0,0,1-.34-.29Zm-.94-1.66a.31.31,0,0,1,.3-.33.31.31,0,0,1,.33.29.32.32,0,1,1-.63,0Zm0,.85a.33.33,0,0,1,.3-.33.32.32,0,0,1,.34.3.33.33,0,0,1-.3.33.32.32,0,0,1-.34-.3Zm.05.85a.32.32,0,1,1,.33.3.31.31,0,0,1-.33-.3Zm-.94-1.66a.31.31,0,0,1,.29-.33.32.32,0,1,1,0,.63.31.31,0,0,1-.33-.3Zm0,.86a.32.32,0,0,1,.3-.34.32.32,0,0,1,0,.64.33.33,0,0,1-.34-.3Zm.05.85a.31.31,0,0,1,.3-.33.31.31,0,0,1,.33.29.32.32,0,0,1-.3.34.32.32,0,0,1-.33-.3Zm0,.85a.31.31,0,0,1,.29-.33.32.32,0,0,1,.34.3.32.32,0,0,1-.3.33.31.31,0,0,1-.33-.3Zm-1-2.51a.33.33,0,0,1,.3-.33.32.32,0,0,1,.34.3.33.33,0,0,1-.3.33.32.32,0,0,1-.34-.3Zm.05.85a.32.32,0,1,1,.33.3.31.31,0,0,1-.33-.3Zm.05.85a.31.31,0,0,1,.3-.33.32.32,0,0,1,0,.63.31.31,0,0,1-.33-.3Zm0,.86a.32.32,0,0,1,.3-.34.31.31,0,0,1,.33.3.3.3,0,0,1-.29.33.32.32,0,0,1-.34-.29Zm-1-2.51a.32.32,0,1,1,.63,0,.32.32,0,0,1-.29.34.33.33,0,0,1-.34-.3Zm.05.85a.31.31,0,0,1,.3-.33.31.31,0,0,1,.33.29.32.32,0,0,1-.3.34.32.32,0,0,1-.33-.3Zm0,.85a.33.33,0,0,1,.3-.33.32.32,0,0,1,.34.3.32.32,0,0,1-.3.33.32.32,0,0,1-.34-.3Zm.05.85a.32.32,0,0,1,.3-.33.32.32,0,1,1-.3.33Zm0,.85a.31.31,0,0,1,.3-.33.32.32,0,0,1,.33.3.32.32,0,0,1-.63,0Zm-1-3.36a.32.32,0,1,1,.33.3.31.31,0,0,1-.33-.3Zm.05.85a.31.31,0,0,1,.3-.33.32.32,0,0,1,.33.3.31.31,0,0,1-.3.33.31.31,0,0,1-.33-.3Zm0,.86a.32.32,0,1,1,.63,0,.32.32,0,0,1-.29.34.33.33,0,0,1-.34-.3Zm0,.85a.31.31,0,0,1,.3-.33.31.31,0,0,1,.33.29.32.32,0,0,1-.3.34.32.32,0,0,1-.33-.3Zm.05.85a.31.31,0,0,1,.29-.33.32.32,0,0,1,.34.3.32.32,0,0,1-.3.33.3.3,0,0,1-.33-.3Zm-1-3.36a.32.32,0,1,1,.33.3.32.32,0,0,1-.33-.3Zm0,.85a.33.33,0,0,1,.3-.33.32.32,0,0,1,.34.3.32.32,0,0,1-.3.33.32.32,0,0,1-.34-.3Zm.05.85a.32.32,0,0,1,.3-.33.32.32,0,1,1-.3.33Zm0,.86a.32.32,0,0,1,.3-.34.32.32,0,0,1,.33.3.32.32,0,0,1-.63,0Zm-1-2.51a.32.32,0,0,1,.29-.34.32.32,0,0,1,.34.3.31.31,0,0,1-.3.33.31.31,0,0,1-.33-.29Zm0,.85a.32.32,0,1,1,.63,0,.32.32,0,0,1-.29.34.32.32,0,0,1-.34-.3Zm0,.85a.32.32,0,1,1,.33.3.32.32,0,0,1-.33-.3Zm-.95-1.66a.33.33,0,0,1,.3-.33.32.32,0,0,1,.34.3.32.32,0,0,1-.3.33.32.32,0,0,1-.34-.3Zm.05.85a.31.31,0,0,1,.3-.33.32.32,0,0,1,.33.3.32.32,0,0,1-.63,0Zm-1.88-1.21a.64.64,0,0,1-.13-.4v-.11L240.2,63.2a.75.75,0,0,1-.37.33l1.34,5.36h0a.65.65,0,0,1,.31.08l3.14-3.62Zm0-.76a.64.64,0,0,1,.1-.13l-3.47-5.69a.67.67,0,0,1-.28.06l-1,3.28a.83.83,0,0,1,.35.67.78.78,0,0,1,0,.16l4.31,1.65Zm1.5,11a.66.66,0,0,1-.32.09.64.64,0,0,1-.28-.07l-.08.08,4.31,4.68.78,0-4.41-4.8ZM249,52.87a.75.75,0,0,1-.18-.48.73.73,0,0,1,.23-.54l-2.44-3.1a.82.82,0,0,1-.42.11h0l-3,8.58L249,52.87Zm-7.26,4.91h.78l3.2-9.07a.81.81,0,0,1-.35-.67.82.82,0,0,1,.58-.78l-.38-12.56-2.81,0L240.32,32l-.19,0a.82.82,0,1,1,0-1.64.81.81,0,0,1,.44.13l2.06-1.68-.5-1.74h0a.82.82,0,1,1,0-1.64.86.86,0,0,1,.63.28l3.2-1.37-.49-5.51a.82.82,0,0,1-.76-.82.84.84,0,0,1,.1-.39L240,12.77a.72.72,0,0,1-.33.07.82.82,0,1,1,.47-1.49L242,10.12l0,0h.06l3.71-.58,5.52-3.15-1-3.07,3.28-2.09a.83.83,0,0,1-.1-.38.82.82,0,1,1,1.64,0,1.09,1.09,0,0,1,0,.18,3.89,3.89,0,0,1,2.31,6.26,21.1,21.1,0,0,1,5.33,2.38c1.55.22,4.5.5,5.52,1.09,1.33.78.39,1.71-.83,2.57-3.42,2.48-4.58,5.71-4.82,11.22h.66a2.2,2.2,0,0,1,1.14,4.05c-.36.24-.17.33.18.34h1a2.8,2.8,0,1,1,0,5.6h-3.3c0,7.69.74,16.08,3.66,23.09,2.23-.08,2.41.58,2,3.32,1.58,5.51,9.53,6.36,5.29,13l.09,0h0l.08,0h0l.06,0h0l.06,0h0l.05,0h0l.06,0h0l.06,0h0l.06,0h0l.05,0h0l.05,0h0l.05,0h0l0,0,0,0,0,0h0l0,0v0l.08.09h0l0,0h0l0,0v0a.1.1,0,0,1,0,0h0l0,.06h0l0,0h0l0,0h0v0l0,0h0l0,0h0v.05h0l0,0v0h.15v0h0v.06h0v.08h0v.61h0v.22h0v.15h0v.08h0v.07h0v.15h0v.49h0v.08h0v.08h0v.08h0v.09h0v.08h0V79h0v.09h0v.09h0v.1c0,2.34-30.23,1.45-33.55,1.41a.81.81,0,0,1-.76.51.83.83,0,0,1-.77-.55l-4.93-.12a.82.82,0,1,1-1.15-1l-.13-3.63a.82.82,0,0,1,.42-1.53.84.84,0,0,1,.44.13l.61-.44-.9-4.19a.82.82,0,0,1,.16-1.62,1,1,0,0,1,.3,0l4.36-5a.84.84,0,0,1-.16-.49.82.82,0,0,1,.82-.82h0l1-3.25a.81.81,0,0,1-.4-.7.82.82,0,0,1,1.61-.23Zm11-48.68a1,1,0,0,1,.25,0c.73-.3.84-1.76.64-2.46h0l-2,0L246.6,9.59l5.18.29a1,1,0,0,1,.95-.78Zm.45,1.83a.94.94,0,0,1-.45.11,1,1,0,0,1-.91-.65l-4.69.94-.09,1.2a.64.64,0,0,1,.45.46l4.69-1.14a4.09,4.09,0,0,0,4.3,1.13c2.15-.58,1.34-.71,0-.64a4,4,0,0,1-3.28-1.41ZM257.59,59c2.55.48,9.22.57,9.15-.32,0-.17-.37-.11-.94,0a67.11,67.11,0,0,1-8.21.35Zm.4-33.25a22.11,22.11,0,0,0,5.15.23c.84-.12.76-.33,0-.38-1.43-.07-4.45.08-5.11.15ZM269.2,67.37a20.32,20.32,0,0,1-3.5-4.26c-.3-.47-.42-.57-1.13-.52l-1.39.12c-.61,0-.69.14-.47.68a23.77,23.77,0,0,0,2.51,4.39c.59.84.76.87,1.85.73l1.55-.18c1.31-.15,1.4-.16.58-1Zm-6.28-10.25a55.87,55.87,0,0,1-3-15.27c-.13-1.82-.26-3.45-.35-5.62,0-.66-1-.11-1,1,.07,2,.15,3.52.24,5.29a91.62,91.62,0,0,0,1.91,14.56c.12.6.12.61.7.63a10.07,10.07,0,0,0,1.24,0c.45-.05.43-.12.26-.55ZM260.34,23a23.9,23.9,0,0,1,2.4-7.31c.33-.72-.85-.34-1.11.19a22.9,22.9,0,0,0-2.4,7.09c-.06.32-.05.33.33.35h.35c.34,0,.38,0,.43-.32Zm-.07-12.57-.55,1.78c1.43,1.53,3.19,1.58,5.12.88,1-.4.73-.48-.09-.42-2,.16-3.86-.41-4.48-2.24Zm-1.86,20a30.77,30.77,0,0,0,6.89.3c1.11-.17,1-.44-.06-.5-1.9-.1-6,.18-6.83.2Zm6.47,45.41c2.83.32,8.55,0,8.3-.75,0-.14-.31-.08-.78,0a53.65,53.65,0,0,1-7.52.74Zm-2.39-5.43c3.74.42,9.94.2,9.78-.78,0-.19-.47-.25-1.09-.14a53.59,53.59,0,0,1-8.69.92Zm-23.28-6.83-4.36,5a.78.78,0,0,1,.15.4l5.57.4a.63.63,0,0,1,.33-.4l-1.34-5.36h-.06a.93.93,0,0,1-.29-.05Zm-4.72,6.25.9,4.2,6-.85a.65.65,0,0,1,.42-.58l-.61-2.38h0a.64.64,0,0,1-.64-.56l-5.57-.4a.83.83,0,0,1-.49.57ZM250.6,75h-.47l3.54,3.86.29-.22L250.6,75Zm-1.64,0-.56,0,4.22,4.59.34-.25-4-4.36Zm-1.64,0h-.66l4.89,5.32h0l.39-.28-4.65-5.05Zm-13.4.88L234,79.4a.83.83,0,0,1,.72.63l4.88.12a.7.7,0,0,1,.08-.2l-5.3-4.18a.83.83,0,0,1-.5.21Zm7.32,4.21h.7l-.53-.58-.29.28a.69.69,0,0,1,.12.29Zm1.24,0,1.18,0-1.37-1.48-.61.59.8.87Zm1.81,0,1.09,0-2.2-2.39-.56.54,1.67,1.82Zm1.82,0,1,0-3-3.3-.51.5,2.55,2.77Zm1.81,0,.89,0L245,76.17l-.46.45,3.43,3.73ZM246.16,9.84l0,0-3.06.53,3.93.69,4.66-.93-5.5-.31Zm-3.89.69h-.07l-1.77,1.17a.61.61,0,0,1,0,.18L246.24,13a.65.65,0,0,1,.53-.44l.09-1.18-4.59-.8Zm-1.92,2,4.75,4.84a.87.87,0,0,1,.39-.1h.09l1-3.5a.65.65,0,0,1-.35-.52l-5.81-.8-.05.08ZM245.91,19l.47,5.27H249L245.91,19Zm.3,5.73L243,26.13h4.32l1.88-1.38ZM242.56,27l.5,1.73h4.51L247,26.76l-.11-.15-4,0a.77.77,0,0,1-.27.3ZM246,31h.89l2.36-1.83h-.9L246,31v0Zm1.6,0h.77l2.35-1.83h-.76L247.58,31Zm1.67,0h.62l2.35-1.83h-.62L249.25,31ZM251,31h.5l2.34-1.83h-.49L251,31Zm1.77,0h.37l2.34-1.83h-.37L252.73,31Zm1.81,0h.27l2.33-1.83h-.26L254.54,31Zm.09-6.23-1.79,1.38h-.44l1.8-1.38Zm-2.77,0L250,26.13h-.67l1.85-1.38Zm-1.35,0-1.85,1.38h-.78l1.88-1.38Zm5.53,0h-.33l-1.78,1.38h.34L256,24.75Zm-2.8,0h-.54l-1.82,1.38h.55l1.81-1.38ZM251.87,75l2.86,3.11.22-.17-2.71-3Zm1.74,0,2.17,2.36.17-.12-2.06-2.24Zm1.74,0,1.48,1.61.11-.08-1.41-1.54Zm1.75,0,.79.86.05,0-.76-.82Z"/>
      <path class="cls-2" d="M188,59.26h.4a.55.55,0,0,1,.39.11.52.52,0,0,1,.12.39v.48a.43.43,0,0,1-.51.5H188a.41.41,0,0,1-.5-.5v-.48a.52.52,0,0,1,.11-.39.57.57,0,0,1,.39-.11Zm-4.11-4.06h-1v5.56h-1.5V55.2h-2V54h5.54c-.16.51-.24,1-1,1.21Zm-9.13,3-1.37-.48a1.86,1.86,0,0,1-1.4-2,1.72,1.72,0,0,1,.54-1.5,3.55,3.55,0,0,1,1.92-.38,8.05,8.05,0,0,1,2.23.27v0a1.24,1.24,0,0,1-1,1h-1.22a2,2,0,0,0-.79.11c-.13.06-.19.24-.19.51a.66.66,0,0,0,.15.48,1.47,1.47,0,0,0,.56.29l1.28.44a2.06,2.06,0,0,1,1.11.75,2.14,2.14,0,0,1,.33,1.24,1.85,1.85,0,0,1-.55,1.55,3.48,3.48,0,0,1-2,.41,11.09,11.09,0,0,1-2.33-.26h0a1.24,1.24,0,0,1,1.16-1l1.17,0a1.59,1.59,0,0,0,.8-.13c.14-.08.2-.26.2-.53a.67.67,0,0,0-.13-.48,1.27,1.27,0,0,0-.5-.26Zm-5.48,2.45h0c-.61.06-1.65.09-3.13.09a1.57,1.57,0,0,1-1.08-.36,1.33,1.33,0,0,1-.41-1V55.29a1.31,1.31,0,0,1,.41-1,1.52,1.52,0,0,1,1.08-.37c1.47,0,2.52,0,3.13.1a1.28,1.28,0,0,1-1,1.11h-1.63a.49.49,0,0,0-.35.11.59.59,0,0,0-.11.39v1h2.69v1.08h-2.69V59a.57.57,0,0,0,.11.39.45.45,0,0,0,.35.12h1.43a1.51,1.51,0,0,1,1.22,1.06c.1.26,0,0,0,0Zm23.94-5.41-.06-1.13a11,11,0,0,1,2.28-.24,3.44,3.44,0,0,1,1.7.34,1.31,1.31,0,0,1,.56,1.23,2.45,2.45,0,0,1-.22,1.08,5.16,5.16,0,0,1-.88,1.16l-1.73,1.8a6.38,6.38,0,0,1,1-.07h2v1.34h-4.8v-.83a.88.88,0,0,1,.22-.61L195,57.52c.81-.84,1.21-1.49,1.2-1.93a.37.37,0,0,0-.21-.37,2.32,2.32,0,0,0-.71-.08q-1,0-2,.09Zm10.1-1.38a2.38,2.38,0,0,1,2,.79,4.71,4.71,0,0,1,.58,2.72,4.72,4.72,0,0,1-.58,2.73,3,3,0,0,1-4,0,4.81,4.81,0,0,1-.58-2.73,4.79,4.79,0,0,1,.58-2.72,2.37,2.37,0,0,1,2-.79Zm0,1.19a.9.9,0,0,0-.89.48,4.9,4.9,0,0,0-.23,1.84,5,5,0,0,0,.23,1.85.9.9,0,0,0,.89.48.91.91,0,0,0,.91-.48,4.71,4.71,0,0,0,.24-1.85,4.65,4.65,0,0,0-.24-1.84.91.91,0,0,0-.91-.48Zm8.31,5.7h-1.49V56a3.77,3.77,0,0,1,.06-.73l-1.58.41-.18-1,1.7-.68h1.49v6.76ZM215,55.23,215,54.1a11,11,0,0,1,2.28-.24,3.46,3.46,0,0,1,1.7.34,1.31,1.31,0,0,1,.56,1.23,2.45,2.45,0,0,1-.22,1.08,5.16,5.16,0,0,1-.88,1.16l-1.73,1.8a6.38,6.38,0,0,1,1-.07h2v1.34h-4.8v-.83a.88.88,0,0,1,.22-.61l1.66-1.78c.81-.84,1.21-1.49,1.2-1.93a.37.37,0,0,0-.21-.37,2.32,2.32,0,0,0-.71-.08q-1,0-2,.09Z"/>
      <path class="cls-1" d="M86.7,42.86l-3.49-1.23a5.51,5.51,0,0,1-2.76-1.91,5.45,5.45,0,0,1-.83-3.17c0-1.91.46-3.19,1.39-3.83s2.57-1,4.92-1a21.1,21.1,0,0,1,5.7.68v0A3.15,3.15,0,0,1,89.06,35h0c-.94,0-2,0-3.11,0a5,5,0,0,0-2,.26c-.33.18-.5.62-.5,1.32a1.69,1.69,0,0,0,.37,1.23,4,4,0,0,0,1.44.73l3.29,1.13a5.49,5.49,0,0,1,2.84,1.92,5.56,5.56,0,0,1,.83,3.18q0,2.91-1.41,4c-.94.69-2.61,1-5,1a28.37,28.37,0,0,1-6-.65h0c.57-2,1.64-2.57,3-2.69l3,.06a4.23,4.23,0,0,0,2-.33,1.47,1.47,0,0,0,.52-1.35A1.81,1.81,0,0,0,88,43.52a3.3,3.3,0,0,0-1.29-.66ZM18.54,49.41V32.08q3.57-.22,6.74-.23c2.76,0,4.69.64,5.77,1.91s1.62,3.6,1.62,7-.54,5.71-1.62,7-3,1.91-5.77,1.91c-2.11,0-4.36-.07-6.74-.23Zm3.82-14.54V46.6h1.4l1.52,0a2.79,2.79,0,0,0,2.65-1.24,10.2,10.2,0,0,0,.72-4.64,10.35,10.35,0,0,0-.72-4.67,2.81,2.81,0,0,0-2.65-1.24l-2.92,0Zm24.25,8-3.5-1.23a5.45,5.45,0,0,1-2.76-1.91,5.53,5.53,0,0,1-.83-3.17c0-1.91.46-3.19,1.39-3.83s2.57-1,4.92-1a21.1,21.1,0,0,1,5.7.68v0A3.15,3.15,0,0,1,49,35h0c-.95,0-2,0-3.12,0a5.13,5.13,0,0,0-2,.26c-.33.17-.5.62-.5,1.32a1.65,1.65,0,0,0,.38,1.23,3.93,3.93,0,0,0,1.43.73l3.29,1.13a5.43,5.43,0,0,1,2.84,1.92,5.56,5.56,0,0,1,.83,3.18c0,1.94-.47,3.27-1.41,4s-2.61,1-5,1a28.46,28.46,0,0,1-6-.65h0c.57-2,1.64-2.57,3-2.69l3,.06a4.2,4.2,0,0,0,2-.33,1.47,1.47,0,0,0,.52-1.35,1.81,1.81,0,0,0-.35-1.25,3.55,3.55,0,0,0-1.28-.66Zm21.15.83v5.72H63.92V43.69L58.19,32.08h4l2.89,6.35a14.73,14.73,0,0,1,.66,2.19H66a16.72,16.72,0,0,1,.62-2.19l2.89-6.35h4L67.76,43.69Zm42.59-8.5h-2.54V49.41H104V35.19H98.79V32.08H113v0c-.4,1.33-.61,2.52-2.61,3.09Zm20.83,14v0q-2.35.25-8,.25a3.9,3.9,0,0,1-2.76-.94A3.37,3.37,0,0,1,119.32,46V35.49a3.37,3.37,0,0,1,1.06-2.55,3.94,3.94,0,0,1,2.76-.94q5.67,0,8,.25a3.25,3.25,0,0,1-2.64,2.84h-4.18a1.2,1.2,0,0,0-.91.3,1.45,1.45,0,0,0-.27,1V39h6.91v2.77h-6.91v3.34a1.48,1.48,0,0,0,.27,1,1.2,1.2,0,0,0,.91.3H128c2.17.26,2.6,1.4,3.14,2.7l0,.08Zm21-17.13h3.7a1.3,1.3,0,0,1,1.43,1.43l.68,15.9h-3.62l-.58-14.34h-.43L150.71,45.8A1.45,1.45,0,0,1,149.15,47h-2.51a1.45,1.45,0,0,1-1.56-1.23l-2.64-10.73H142l-.51,14.34H137.9l.62-15.9A1.3,1.3,0,0,1,140,32.08h3.69a1.42,1.42,0,0,1,1.51,1.23L147.27,42c.13.55.28,1.37.45,2.44h.33c0-.08.08-.43.19-1s.18-1.08.26-1.41l2.09-8.64a1.45,1.45,0,0,1,1.55-1.23Zm12.5,17.33V32.08c1.56-.15,3.75-.23,6.59-.23q3.65,0,5,1.18t1.35,4.47c0,2.2-.42,3.69-1.27,4.49s-2.37,1.19-4.56,1.19a25.19,25.19,0,0,1-3.27-.2v6.43Zm3.82-9h2.69a2.8,2.8,0,0,0,2-.58,3.16,3.16,0,0,0,.54-2.16,3.16,3.16,0,0,0-.54-2.16,2.76,2.76,0,0,0-2-.55l-2.69,0v5.43Zm29.52,9h-4l-1.31-5.3A2,2,0,0,0,192,43a1.92,1.92,0,0,0-1.19-.31l-2.69,0v6.78h-3.77V32.08q2.34-.22,6.61-.23,3.5,0,5,1.11c1,.73,1.46,2.07,1.46,4a5.11,5.11,0,0,1-.77,3,3.47,3.47,0,0,1-2.55,1.3v.13A3.25,3.25,0,0,1,196.48,44l1.5,5.4Zm-9.9-9.57h2.77a3.1,3.1,0,0,0,2.06-.52,2.63,2.63,0,0,0,.55-2,2.62,2.62,0,0,0-.54-1.93,3,3,0,0,0-2.07-.5l-2.77,0v4.88Zm18.25-6.17c1.08-1.27,3-1.92,5.8-1.92s4.71.64,5.8,1.92,1.63,3.64,1.63,7.08-.54,5.79-1.63,7.07-3,1.92-5.8,1.92-4.72-.64-5.8-1.92-1.62-3.64-1.62-7.07.55-5.8,1.62-7.08Zm8.47,2.4a3.52,3.52,0,0,0-5.35,0,10.45,10.45,0,0,0-.72,4.68,10.43,10.43,0,0,0,.72,4.67,3.52,3.52,0,0,0,5.35,0,10.29,10.29,0,0,0,.72-4.67,10.45,10.45,0,0,0-.72-4.68ZM.5,35,.33,32.2a33,33,0,0,1,5.45-.46,8.1,8.1,0,0,1,4.37.88,3.54,3.54,0,0,1,1.28,3.14,6.6,6.6,0,0,1-.57,3A2.69,2.69,0,0,1,8.8,40.14v.1a3.29,3.29,0,0,1,2.37,1.32,5.62,5.62,0,0,1,.72,3,4.94,4.94,0,0,1-1.31,4c-.91.8-2.45,1.21-4.62,1.21a46.2,46.2,0,0,1-6-.46l.15-2.86c1.88.12,3.47.17,4.78.17a4.41,4.41,0,0,0,2.51-.51,2.4,2.4,0,0,0,.68-2,2.59,2.59,0,0,0-.56-1.85,2.94,2.94,0,0,0-2.11-.54H2.21V39.08H5.45c1,0,1.66-.19,2-.56a2.81,2.81,0,0,0,.42-1.75c0-.82-.18-1.34-.53-1.57a4.46,4.46,0,0,0-2.16-.34c-1.44,0-3,0-4.63.1Z"/>
      <path class="cls-1" d="M265.88.2h3.57v.92h-1.27v3.4h-1V1.12h-1.26V.2Zm4.23,0h1.3l1,3,1-3h1.29V4.52h-.89V1.68l-1,2.84h-.89L271,1.68V4.52h-.89Z"/>
    </g>
  </g>
</svg>
