<svg xmlns="http://www.w3.org/2000/svg" viewBox="0 0 154 36.69" width="154" height="37">
  <title>logo-develop</title>
  <g id="Слой_2" data-name="Слой 2">
    <g id="Слой_1-2" data-name="Слой 1">
      <path d="M151.05,36.69H3A3,3,0,0,1,0,33.74V3A3,3,0,0,1,3,0h148.1A3,3,0,0,1,154,3h0V33.74a3,3,0,0,1-2.95,2.95ZM3,.68A2.27,2.27,0,0,0,.68,3V33.74A2.28,2.28,0,0,0,3,36h148.1a2.28,2.28,0,0,0,2.27-2.27V3A2.27,2.27,0,0,0,151.05.68ZM24.15,11A6.63,6.63,0,0,0,21.7,9.79a14.78,14.78,0,0,0-3.92-.43H9.45v1l2.42.36V26.87l-2.24.38v1h9.84v-1l-3.15-.38v-6h2.55a10,10,0,0,0,3.39-.5,5.53,5.53,0,0,0,2.15-1.3,4.48,4.48,0,0,0,1.09-1.9,8.43,8.43,0,0,0,.27-2.24,6.75,6.75,0,0,0-.36-2.19A4,4,0,0,0,24.15,11Zm-7.83,9V10.46c3.26,0,4.92.59,4.92,4.5S19.26,19.92,16.32,19.92ZM61.15,21a3.73,3.73,0,0,0-1-1.35,5.11,5.11,0,0,0-1.67-1,9.35,9.35,0,0,0-2.4-.52,6.14,6.14,0,0,0,1.48-.55,4.41,4.41,0,0,0,1.24-.95,4.34,4.34,0,0,0,1.18-3,4.42,4.42,0,0,0-.34-1.79,3.18,3.18,0,0,0-1.21-1.36,6.78,6.78,0,0,0-2.26-.84,17.32,17.32,0,0,0-3.52-.3H43.45v1l2.44.36V27.08l-3.39.13-2.82-3.52A20.8,20.8,0,0,0,42,17.51h1.83V16.44H38.38v1.07l1.85.29a14.35,14.35,0,0,1-1.4,4.8c-2-2.61-3.49-4.54-4.52-6,1.93-1,4.07-2.21,4.07-4.71,0-1.94-1.61-3.55-4.33-3.55-3.23,0-5.26,2.17-5.26,4.48,0,1.42.36,2.54,2,5-3.35,2-4.19,4.34-4.19,6,0,2.83,2.09,4.8,5.47,4.8a7.73,7.73,0,0,0,5.25-2c.42.57.9,1.15,1.36,1.76h8.44c.94,0,2,0,3.07,0s2.23,0,3.39,0A13.56,13.56,0,0,0,57.21,28a7,7,0,0,0,2.44-1.16A4.31,4.31,0,0,0,61,25.05a5.66,5.66,0,0,0,.44-2.26A4.88,4.88,0,0,0,61.15,21Zm-27-11.27a2.14,2.14,0,0,1,2.15,2.13V12c0,2.09-.88,2.81-2.4,4-1.69-2.49-2-3.09-2-3.93A2.21,2.21,0,0,1,34,9.75Zm-.48,17.06c-2,0-3.46-1.12-3.46-3.7A6.32,6.32,0,0,1,31.69,19c1.13,1.59,2.74,3.7,4.93,6.54a4.45,4.45,0,0,1-3,1.24ZM50.35,10.38c2.71,0,5,.28,5,3.31,0,2.32-.8,3.82-3,3.82H50.35Zm0,16.95V18.55c3.17,0,6.45.31,6.45,4.22,0,3.47-3.09,4.68-6.45,4.54ZM63,12.44a2.72,2.72,0,0,1,.77-2,2.64,2.64,0,0,1,3.73-.05l.06.05a2.87,2.87,0,0,1,0,3.93,2.64,2.64,0,0,1-3.72.06l-.06-.06A2.68,2.68,0,0,1,63,12.44Zm.46,0a2.24,2.24,0,0,0,.68,1.64,2.17,2.17,0,0,0,3.07.06l.06-.06a2.39,2.39,0,0,0,0-3.27,2.18,2.18,0,0,0-3.08-.06l-.06.06a2.24,2.24,0,0,0-.64,1.63Zm1.67.27h.6a.61.61,0,0,1,.41.13.56.56,0,0,1,.13.39v.51a.59.59,0,0,0,0,.23h.58v-.06a1.17,1.17,0,0,1,0-.2v-.47a1.1,1.1,0,0,0-.08-.48.72.72,0,0,0-.3-.32,1,1,0,0,0,.3-.27.75.75,0,0,0,.1-.36.9.9,0,0,0-.37-.73,1.43,1.43,0,0,0-.87-.23H64.53V14h.57V12.72Zm0-.5h.48a1.13,1.13,0,0,0,.48-.11.36.36,0,0,0,.19-.32.41.41,0,0,0-.15-.37.82.82,0,0,0-.51-.11H65.1Zm15.18.12a1.78,1.78,0,0,1,.56,1.41H79.77a1.22,1.22,0,0,0-.25-.83,1,1,0,0,0-.81-.28.9.9,0,0,0-.78.4,1.73,1.73,0,0,0-.29,1v1.09a1.7,1.7,0,0,0,.31,1,1,1,0,0,0,.82.4.94.94,0,0,0,.76-.28,1.18,1.18,0,0,0,.24-.81h1.06a1.79,1.79,0,0,1-.53,1.4,2.16,2.16,0,0,1-1.54.51,2.08,2.08,0,0,1-1.59-.63,2.26,2.26,0,0,1-.61-1.62v-1a2.29,2.29,0,0,1,.6-1.63,2,2,0,0,1,1.55-.63,2.2,2.2,0,0,1,1.57.52Zm6,5-.37-1.17H84l-.37,1.17h-1.1l1.87-5.42h1.12l1.86,5.42Zm-.64-2-.68-2.14h0l-.67,2.14Zm6.85-1.61h0v3.63h1.12V11.89h-1.1l-2.2,3.63h0V11.91H89.2v5.42h1.08Zm-1.08-2.35a1.42,1.42,0,0,0,1-.3,1,1,0,0,0,.33-.77h-.8a.47.47,0,0,1-.12.32.55.55,0,0,1-.71,0,.47.47,0,0,1-.12-.32h-.79a.92.92,0,0,0,.33.77,1.43,1.43,0,0,0,.93.33Zm8.32.54H95.53v.87h1.54v4.6h1.09v-4.6h1.52Zm7.14,5.52a2.19,2.19,0,0,0,1.53-.51,1.8,1.8,0,0,0,.54-1.4h-1.09a1.23,1.23,0,0,1-.24.81,1.1,1.1,0,0,1-1.58-.12,1.64,1.64,0,0,1-.31-1V14.07a1.62,1.62,0,0,1,.29-1,.91.91,0,0,1,.78-.4,1,1,0,0,1,.8.29,1.18,1.18,0,0,1,.26.83h1.06a1.74,1.74,0,0,0-.55-1.41,2.22,2.22,0,0,0-1.58-.52,2,2,0,0,0-1.55.64,2.25,2.25,0,0,0-.6,1.62v1.08a2.27,2.27,0,0,0,.61,1.63,2.11,2.11,0,0,0,1.63.62Zm4.66-.68a2.29,2.29,0,0,1-.63-1.65v-.93a2.33,2.33,0,0,1,.63-1.66,2.12,2.12,0,0,1,1.63-.67,2.22,2.22,0,0,1,1.65.67,2.37,2.37,0,0,1,.64,1.66v1a2.28,2.28,0,0,1-.64,1.66,2.34,2.34,0,0,1-3.28,0Zm.46-1.65a1.74,1.74,0,0,0,.32,1.06,1.14,1.14,0,0,0,1.73,0,1.67,1.67,0,0,0,.31-1.06v-.93a1.6,1.6,0,0,0-.32-1.05,1,1,0,0,0-.87-.4,1,1,0,0,0-.86.4,1.8,1.8,0,0,0-.31,1.05Zm6.11,1.9a2.58,2.58,0,0,0,1.48.4,2.79,2.79,0,0,0,1.62-.42,1.38,1.38,0,0,0,.63-1.18,1.29,1.29,0,0,0-.26-.79,1.52,1.52,0,0,0-.74-.48,1.65,1.65,0,0,0,.68-.49,1.1,1.1,0,0,0,.24-.68,1.34,1.34,0,0,0-.57-1.15,2.75,2.75,0,0,0-1.58-.41,2.38,2.38,0,0,0-1.44.42,1.25,1.25,0,0,0-.57,1.1h1.06a.6.6,0,0,1,.27-.5,1.11,1.11,0,0,1,.68-.2,1.34,1.34,0,0,1,.8.21.64.64,0,0,1,.27.52.69.69,0,0,1-.25.57,1.2,1.2,0,0,1-.76.2h-.76V15h.74a1.32,1.32,0,0,1,.82.19.73.73,0,0,1,.27.63.66.66,0,0,1-.31.56,1.45,1.45,0,0,1-.84.22,1.19,1.19,0,0,1-.73-.22.7.7,0,0,1-.29-.54h-1.06a1.26,1.26,0,0,0,.6,1.2Zm10.41-.51h.67l-.1,2.17h-1V17.28h-3.34v1.35h-1l-.09-2.17H124a2,2,0,0,0,.51-.8,5,5,0,0,0,.26-1.58l.15-2.23h3.54Zm-1.09-3.77H126l-.09,1.36a6,6,0,0,1-.2,1.4,3.36,3.36,0,0,1-.42,1h2.13ZM134,16.13H132.1l-.37,1.17h-1.1l1.87-5.43h1.09l1.86,5.43h-1.1Zm-.28-.86-.67-2.13h0l-.68,2.13Zm6.92-3.39v2.36h-2.22V11.91h-1.09v5.42h1.09V15.09h2.22v2.26h1.07V11.93ZM80.54,23a1.32,1.32,0,0,1,.24.79A1.43,1.43,0,0,1,80.27,25a2.39,2.39,0,0,1-1.47.4H76.71V20h1.84a2.71,2.71,0,0,1,1.47.37,1.27,1.27,0,0,1,.53,1.12,1.17,1.17,0,0,1-.19.68,1.25,1.25,0,0,1-.59.45A1.12,1.12,0,0,1,80.54,23Zm-2.71-.78h.78a1.16,1.16,0,0,0,.68-.18.63.63,0,0,0,.24-.52.69.69,0,0,0-.24-.56,1.16,1.16,0,0,0-.68-.18h-.74Zm1.89,1.57a.9.9,0,0,0-.2-.61.79.79,0,0,0-.61-.21H77.83v1.56h1a1,1,0,0,0,.68-.19.69.69,0,0,0,.19-.55Zm10-3.39a1.74,1.74,0,0,1,.06,2.45l-.06.06a2.15,2.15,0,0,1-1.48.48H87.21v2H86.12V20h2.17a2.14,2.14,0,0,1,1.46.47ZM89.2,21.7A.94.94,0,0,0,89,21a.91.91,0,0,0-.68-.26H87.21v1.82h1.08a.9.9,0,0,0,.68-.25A.87.87,0,0,0,89.2,21.7ZM93.54,23h2.25v-.84H93.54V20.8h2.63V20H92.45v5.43h3.73v-.83H93.54Zm8,.68h0L99.31,20H98.22v5.43h1.09V21.7h0l2.2,3.72h1.08V20h-1.08Zm7.06.8.78.92h-1.21l-.32-.31a2.46,2.46,0,0,1-.68.31,2.16,2.16,0,0,1-.72.1,1.83,1.83,0,0,1-1.29-.42,1.43,1.43,0,0,1-.48-1.12,1.21,1.21,0,0,1,.24-.76,3.42,3.42,0,0,1,.74-.68,3.4,3.4,0,0,1-.38-.63,1.43,1.43,0,0,1-.12-.58,1.34,1.34,0,0,1,.41-1,1.5,1.5,0,0,1,1.07-.38,1.29,1.29,0,0,1,1,.36,1.22,1.22,0,0,1,.37.9,1.36,1.36,0,0,1-.18.68,1.8,1.8,0,0,1-.51.52l-.34.25,1,1.21a2,2,0,0,0,.28-1h.82a3.4,3.4,0,0,1-.13.95,2.21,2.21,0,0,1-.34.73Zm-2.42-3.18a.73.73,0,0,0,.08.33,1.81,1.81,0,0,0,.24.37l.32-.21a.66.66,0,0,0,.28-.27.72.72,0,0,0,.08-.32.48.48,0,0,0-.5-.47.44.44,0,0,0-.37.16.61.61,0,0,0-.13.39Zm1.15,3.11-1.11-1.29-.07,0a1.1,1.1,0,0,0-.26.35,1,1,0,0,0-.07.34.76.76,0,0,0,.21.55.66.66,0,0,0,.53.22,1.78,1.78,0,0,0,.78-.21ZM115.19,23a1.43,1.43,0,0,1,.25.8,1.41,1.41,0,0,1-.52,1.18,2.32,2.32,0,0,1-1.46.41h-2.1V20h1.84a2.64,2.64,0,0,1,1.5.37,1.27,1.27,0,0,1,.53,1.12,1.17,1.17,0,0,1-.19.68,1.25,1.25,0,0,1-.59.45,1.15,1.15,0,0,1,.74.45Zm-2.71-.77h.77a1.15,1.15,0,0,0,.67-.18.63.63,0,0,0,.24-.52.67.67,0,0,0-.24-.56,1.15,1.15,0,0,0-.67-.18h-.75Zm1.89,1.57a.81.81,0,0,0-.2-.61.79.79,0,0,0-.61-.21h-1.08v1.56h1a1,1,0,0,0,.68-.19.65.65,0,0,0,.19-.53Zm7.41,1.14a.69.69,0,0,0,.21.36v.09h-1.12a.6.6,0,0,1-.2-.41,3.05,3.05,0,0,1,0-.52v-.39a.82.82,0,0,0-.22-.63.8.8,0,0,0-.62-.22h-1v2.17h-1.09V20h2a2.3,2.3,0,0,1,1.46.42,1.46,1.46,0,0,1,.52,1.19,1.19,1.19,0,0,1-.22.73,1.49,1.49,0,0,1-.68.48,1.23,1.23,0,0,1,.68.48,1.57,1.57,0,0,1,.21.82v.4a2.47,2.47,0,0,0,.11.47Zm-1.18-3.35a.78.78,0,0,0-.23-.59.89.89,0,0,0-.68-.23h-1v1.62h.94a1.07,1.07,0,0,0,.68-.2.74.74,0,0,0,.23-.58Zm6-1.65,1.86,5.42h-1.1L127,24.18h-1.91l-.37,1.17h-1.11l1.87-5.42Zm.12,3.39L126,21.18h0l-.68,2.14Zm3.67,2h1.1V19.93h-1.1Zm6.85-1.72h0l-2.19-3.72H134v5.42h1.1V21.7h0l2.19,3.72h1.09V20h-1.09Z"/>
    </g>
  </g>
</svg>
