<svg id="Layer_1" data-name="Layer 1" xmlns="http://www.w3.org/2000/svg" width="275" height="81.23" viewBox="0 0 275 81.23"><defs><style>.cls-1{fill-rule:evenodd;}</style></defs><title>logo-top</title><path class="cls-1" d="M249.39,24.1l-3.18-5.42a.82.82,0,0,0-.18-1.37l1-3.51h.16l.08.37L253,18.92l-.07.12-5.63-4.65.29,1.36,0,.08,4.87,4-.11.19h0l-4.7-3.88.27,1.24,4,3.32h0l-.16.25L248,17.8l.52,1.45,2.83,2.34-.13.22h1l-.52.85-.52-.84,0,0L248.4,19.5l.21,1,2.28,1.89-.16.26h1l-.52.85h1l-.48.8h-.11l-.46-.8-.51-.83-.06.1.08-.13h0l-.08.13-1.9-1.57.19.88,1.42,1.17h0l-.15.25h1l-.48.8h-.11l-.47-.75-.08.13-1-.81.17.77.1.44Zm5-19.68.48.81h-1l.5-.81Zm-.26-2.87,0,0,0,0a.81.81,0,0,0,.36.08l.19,0,.2.34h-1l.48.79h-.91l0,.08.45.74H253l.12.46.22.36h-.12l0,.14.09-.14.49.82h-.41l.12.48.29-.48.49.82h-.7l.1.41L252,6.24,251,3.54l3.06-2,0,0Zm.11,4.75.15-.25,0,.06-.19.19ZM255,2h-.09l.06-.1,0,.1Zm-.49,4.1h-.09l.49-.81h0l0,.07a2.84,2.84,0,0,1-.45.75Zm.41-.82L255,5q0,.14-.09.28Zm-1.5-.82.49-.81h0l.48.81Zm1,0h0Zm.79,0h-.78l.49-.81.32.54c0,.09,0,.18,0,.27Zm-1.29-.82.49-.81.48.81Zm1,0h0Zm0,0h0Zm.35,0h-.34l.31-.51c0,.17,0,.34,0,.51Zm-.86-.81h0Zm0,0h0Zm.77,0h-.77l.49-.81.16.27c0,.17.08.35.11.53Zm-12.54,71,.29.16-.16-.27a.65.65,0,0,0,.15-.37l.57.95,1.16.63L243.49,73h0l0-.08.31-.12.53.88h0l.72,1.19L234.86,75a.81.81,0,0,0-.05-.16l.7-.5.06,0,6.08-.85a.65.65,0,0,0,1,.29Zm2.65,1.45.1.05a.63.63,0,0,0,.1.22l-4.37,4.25a.82.82,0,0,0-1,.06l-5.3-4.19.06-.12,10.44-.28Zm.35-.62-1-1.6h0l-.27-.44.31-.12.18.29h0l.1.17L245,73h0l.9,1.48a.64.64,0,0,0-.31.11Zm.9-.46L245.83,73h0l-.49-.81.31-.12.56.93h0l.54.89-.21.25Zm.65-.79-.92-1.52.31-.12.78,1.29h0l0,.08-.22.26Zm.67-.81-.65-1.07.31-.12.56.92-.22.27Zm.68-.82-.37-.62.29-.11.29.48-.21.25Zm.65-.79-.11-.18.18-.07.09.05-.16.2Zm-7.34-.18.25.42h-.14l-.11-.42Zm.15.58.1-.17.49.82h-.43l-.17-.66Zm.3,1.16.31-.5.46.76-.17.06h-.13a.65.65,0,0,0-.44-.22l0-.1Zm.87.21.44-.72.27.44-.71.27Zm1.31-.51.13-.21.08.13-.21.08ZM245,72h-.41l.5-.81.38.63L245,72Zm.77-.3.32-.52.2.32-.52.2Zm1.31-.51v0h0Zm0,0h0l.5-.82.31.52-.78.3Zm1.26-.49.2-.33.12.21-.33.13Zm.63-.33h-.43l.12-.2-.25,0,.13.21h-1l.15-.24h.14l-.28-.1h0a1.9,1.9,0,0,0-.66-.17h0a1.86,1.86,0,0,0-.65.17h.13l.2.33h-3l.3-.49.27,0-.22,0h0l-.66,0,.34.56h-1l.35-.58-.24,0,.07,0,.34-.12h0a3.63,3.63,0,0,1,.48-.16h0a1.48,1.48,0,0,1,.31,0h.05a1.48,1.48,0,0,1,.31,0h0a3.63,3.63,0,0,1,.48.16h0a1.89,1.89,0,0,0,.66.17,1.16,1.16,0,0,0,.32-.05l.34-.12h0a3.47,3.47,0,0,1,.51-.17h0a1.49,1.49,0,0,1,.32,0h0a1.47,1.47,0,0,1,.32,0h0a3.47,3.47,0,0,1,.51.17h0a1.89,1.89,0,0,0,.66.17,1.16,1.16,0,0,0,.32-.05l.29-.1.09.11a.64.64,0,0,0-.13.37l-.23.07.23,0a.65.65,0,0,0,0,.16Zm-1.58-.26.16.26h-1l.18-.3h.1l0-.07,0,.07.47,0Zm-5.2-.35.36.61h-.85l0-.16a.65.65,0,0,0,.35-.48l.09,0Zm2.06.12.58,0-.28.45h0l-.29-.49Zm1,.07.5,0-.24.39h0l-.25-.42ZM242.56,72l.5-.82.49.82h-1Zm1,0,.5-.82.49.82h-1Zm1,0h0Zm-2.49-.82.5-.82.49.82Zm1,0,.5-.82.49.82Zm1,0h0Zm-.5-.82h0Zm1,0,.49.81h-1l.5-.81Zm.49.81h0Zm.51-.81.49.81h-1l.5-.81Zm1.5.81h-1l.5-.82.49.82ZM242,69.38a1.55,1.55,0,0,0,.43.07,2.23,2.23,0,0,0,.82-.2h0a2,2,0,0,1,.65-.17h0a2,2,0,0,1,.65.17h0a1.75,1.75,0,0,0,1.63,0h0a1.9,1.9,0,0,1,.66-.17h0a1.9,1.9,0,0,1,.66.17h0a2.23,2.23,0,0,0,.82.2,1.56,1.56,0,0,0,.44-.07h0l-.21-.26v0a.32.32,0,0,1,0-.09l-.19,0a1.91,1.91,0,0,1-.66-.17h0l-.12,0h0a2,2,0,0,0-.71-.17h0a2,2,0,0,0-.71.17h0l-.12,0h0a1.35,1.35,0,0,1-1.32,0h0l-.1,0h0a2,2,0,0,0-.7-.17h0a2,2,0,0,0-.7.17h0l-.09,0h0a1.89,1.89,0,0,1-.66.17,1.16,1.16,0,0,1-.31,0l-.21.24a.65.65,0,0,1,.09.17Zm6.92,0,.17.2,0,0h0a.32.32,0,0,1,.12.06.65.65,0,0,1,1.11.45.63.63,0,0,1,0,.12h0v0l.33.15v-.7l-.23.14h0a.32.32,0,0,1,.5-.27h0l.14-.08V70.6l.6.27V69.15l-.16.09a.32.32,0,1,1,.34-.2h0l.24-.14h0a.32.32,0,0,1,.49-.28l-.43.25,0,2.24h0l.5.23V68.57l.48-.28a.32.32,0,1,1,.36-.21l-.28.16v3.34h0l.45.2h0V68l.07,0h0a.32.32,0,0,1,.49-.28h0l.08,0v4.46l.37.17V67.41l.12-.07h0a.32.32,0,1,1,.37-.21h0l.22-.13v5.57l.29.13V66.84l-.28.16a.32.32,0,0,1,.48-.28h0l.12-.07.44-.25a.32.32,0,1,1,.39-.22h0L257,66a.32.32,0,0,1,.47-.27h0v7.8h0l.14.06V65.68l.4-.23h0a.32.32,0,1,1,.41-.32.32.32,0,0,1,0,.09l.14-.08h0v8.92l.06,0v-9h0l0,0a.32.32,0,0,1,.46-.27l.56-.32a.32.32,0,0,1-.21-.25h-.22a.32.32,0,0,1-.63,0h-.22a.32.32,0,0,1-.63,0h-.22a.32.32,0,0,1-.63,0h-.22a.32.32,0,0,1-.63,0h-.22a.32.32,0,0,1-.63,0h-.22a.32.32,0,0,1-.63,0h-.22a.32.32,0,0,1-.63,0h-.22a.32.32,0,0,1-.63,0h-.22a.32.32,0,0,1-.63,0h-.22a.32.32,0,0,1-.63,0h-.22a.32.32,0,0,1-.3.31.32.32,0,0,1-.33-.28h-.22a.32.32,0,0,1-.63,0H249a.32.32,0,0,1-.63,0h-.22a.32.32,0,0,1-.63,0h-.22a.32.32,0,0,1-.63,0h-.22a.32.32,0,0,1-.3.31H246a.67.67,0,0,1-.33.36l.08.09h0a1.16,1.16,0,0,1-.32.05h-.05a1.18,1.18,0,0,1-.3-.05l-.09,0-.29.34a2.08,2.08,0,0,0,.73.17h0A1.9,1.9,0,0,0,246,66l-.21-.26a.32.32,0,1,1,.33.34h0l.18.21-.21.08-.34.12a1.16,1.16,0,0,1-.32.05h-.05a1.19,1.19,0,0,1-.3-.05l-.34-.12-.3-.11-.31.36a2.89,2.89,0,0,1,.46.15h0a3.56,3.56,0,0,0,.49.17h0a1.5,1.5,0,0,0,.34,0h0a1.51,1.51,0,0,0,.32,0h0a3.76,3.76,0,0,0,.46-.16h0a3.57,3.57,0,0,1,.38-.13l.26.31a2.35,2.35,0,0,0-.77.2h0a1.91,1.91,0,0,1-.66.17h-.05a2,2,0,0,1-.64-.17h0a2.3,2.3,0,0,0-.79-.2h-.11l-.49.57a1.69,1.69,0,0,1,.55-.14h0a2,2,0,0,1,.64.17h0a1.75,1.75,0,0,0,1.64,0h0a1.89,1.89,0,0,1,.66-.17h0a1.15,1.15,0,0,1,.31,0l-.25-.3.1,0a.32.32,0,0,1,.31.44l.39.45a.32.32,0,1,1,.35.52l-.39-.47h0a2.28,2.28,0,0,0-.8-.2h0a2.28,2.28,0,0,0-.8.2h0l-.29.11h0a1.28,1.28,0,0,1-.4.07,1.25,1.25,0,0,1-.37-.07h0l-.29-.11h0a2.3,2.3,0,0,0-.79-.2h-.05a2.3,2.3,0,0,0-.79.2h0l-.29.1-.43.5h.05a2.24,2.24,0,0,0,.82-.2h0a2,2,0,0,1,.64-.17h0a2,2,0,0,1,.64.17h0a1.75,1.75,0,0,0,1.64,0h0a1.89,1.89,0,0,1,.66-.17h0a1.89,1.89,0,0,1,.66.17h0a2.45,2.45,0,0,0,.74.2l.27.32a.32.32,0,1,1,.34.4Zm1.32-29.32a.8.8,0,0,1,.76.53l4.79,2.62,0-.54-5.58-3.06,0-.72,5.55,3,0-.53-5.53-3,0-.74,5.5,3,0-.36-5.49-3,0-.91,5.45,3,0-.35L250,36l0-.92,5.4,3,0-.23-5.4-3v-.17h-.15l-3.49,0,3.62,5.38a.8.8,0,0,1,.33-.07Zm.6,1.34a.8.8,0,0,1-.57.27.32.32,0,0,1-.16.59l0-.6-.19,0h0v0h0l-3,5.79a.82.82,0,0,1,.13,1.18l2.45,3.12a.77.77,0,0,1,.32-.07h.07a.77.77,0,0,1,.35.12l.13-.17v.27a.77.77,0,0,1,.06,1l.06.09.11-.18.18.18h-.3l.52.85.52.85.33-.54,0,0v-.4l0-4.2-.34.47a.32.32,0,1,1,.35-.5l.36-.49a.31.31,0,0,1,0-.14.32.32,0,0,1,.33-.3h0l-.15.2,0,5.91,0,0h-.88l.52.85.52.85.52-.85,0-.07-.25-.27.21.34h-1l-.52.85-.52-.85h1l.45-.74.28.29v0h0V48.19l.51-.7a.32.32,0,1,1,.36-.48l-.22.3v6.94q0,.74,0,1.56l-.24-.26H253l.52.85.15-.25,0,0V47h0v-.16l.27-.37a.31.31,0,0,1,0-.16.32.32,0,0,1,.33-.31h0l.09-.13V46h0V56.82l.19.2V45.66l.49-.67a.32.32,0,1,1,.35-.48l0,0V57.92l.09.09h.05V44.31l.19-.28a.31.31,0,0,1,0-.18l-.24-.13a.32.32,0,1,1-.37-.2l-.58-.31a.32.32,0,0,1-.49-.27l-.24-.13a.32.32,0,1,1-.37-.2l-.57-.31a.32.32,0,0,1-.49-.27l-.24-.13a.32.32,0,1,1-.37-.2l-.57-.31a.32.32,0,0,1-.33,0Zm-1.41-.52v0a.8.8,0,0,1,.25-.58l-3.46-5.13.35,12.14h0l3.08-5.84a.8.8,0,0,1-.26-.52h0Zm4.31-21.64.05.09-.47.77h.93l.06.09-.46.76-.53-.85-.53-.84h.94Zm1,1.7.06.09-.46.76-.53-.85h.93Zm.52.85.06.1-.46.75-.53-.85Zm.52.85.06.1-.46.75-.53-.85h.92Zm.52.85.07.11-.41.7h-.11l-.46-.8Zm-1.39.8h-.11l-.46-.8h1l-.48.8Zm-1,0h-.11l-.46-.8h1l-.48.8Zm-1,0h-.11l-.46-.8h1l-.48.8ZM251.77,21l.52.84.53.85.52-.85h-1l.52-.85h-1Zm.52-.86.53.85.52-.85h-1Zm2.09,3.4.52-.85h-1l.53.85Zm-1,0,.52-.85h-1l.53.85Zm-1,0,.52-.85h-1l.53.85Zm1.57-.85.52-.85h-1l.53.85Zm-.53-.85.52-.85h-1l.53.85Zm-7.8,8.77a.66.66,0,0,1,.37.11h0l.08.06,2-1.57h-4.85l-2.11,1.71,0,.12h3.81a.66.66,0,0,1,.62-.44ZM246,31.7a.66.66,0,0,1-.93,0H245l.54.87.49-.8,0-.05Zm-1,0a.66.66,0,0,1-.11-.19h-3.82a.82.82,0,0,1-.16.3l2.23,2.51h.25l.51-.84.53-.87.54.87.5.81h.08l.49-.8h-2.13l.51.82h.06l.5-.82.53-.87h-1.06l.53-.87h0l0,0Zm1.62,2.56.37-.62-.09-.17h-.88l.49.79Zm-.59-.79.46-.76-.06-.11h-.94l.54.87ZM245,31.69h0Zm6.78,3,3.43,1.89v.17l-3.75-2.06h.3Zm-.94,16.08a.31.31,0,0,1-.2.06.32.32,0,1,1,.33-.3.33.33,0,0,1,0,.09l.33-.45v3.46l.23.24H251l-.52.85-.52-.85h1l.22-.36-.35-.37V50.79l0,0Zm-.19.28-.32.44a.32.32,0,0,1,.3-.44Zm-.87.6,0-.63a.32.32,0,0,1,0,.63Zm0-.85,0-.63a.32.32,0,0,1,0,.63Zm0-.85,0-.63a.32.32,0,0,1,0,.63Zm0-.85,0-.63a.32.32,0,0,1,0,.63Zm0-.85,0-.63a.32.32,0,0,1,0,.63Zm0-.85,0-.63a.32.32,0,0,1,0,.63Zm0-.85,0-.63a.32.32,0,0,1,0,.63Zm0-.85,0-.63a.32.32,0,0,1,0,.63Zm0-.85,0-.63a.32.32,0,0,1,0,.63Zm0-.85,0-.63a.32.32,0,0,1,0,.63Zm0-.85,0-.63a.32.32,0,0,1,0,.63Zm3.92.68a.32.32,0,1,1,.31.33.32.32,0,0,1-.31-.33Zm0,.85a.32.32,0,1,1,.3.33.32.32,0,0,1-.3-.33Zm0,.85a.32.32,0,1,1,.3.33.32.32,0,0,1-.3-.33Zm-.79-1.74a.32.32,0,1,1,.3.33.32.32,0,0,1-.3-.33Zm0,.85a.32.32,0,1,1,.31.33.32.32,0,0,1-.31-.33Zm0,.85a.32.32,0,1,1,.31.33.32.32,0,0,1-.31-.33Zm0,.85a.32.32,0,1,1,.31.33.32.32,0,0,1-.31-.33Zm-.73-3.44a.32.32,0,1,1,.3.33.32.32,0,0,1-.3-.33Zm0,.85a.32.32,0,1,1,.3.33.32.32,0,0,1-.3-.33Zm0,.85a.32.32,0,1,1,.3.33.32.32,0,0,1-.3-.33Zm0,.85a.32.32,0,1,1,.31.33.32.32,0,0,1-.31-.33Zm0,.85a.32.32,0,1,1,.31.33.32.32,0,0,1-.31-.33Zm0,.85a.32.32,0,1,1,.3.33.32.32,0,0,1-.3-.33Zm0,.85a.32.32,0,1,1,.3.33.32.32,0,0,1-.3-.33Zm-.67-5.15a.32.32,0,1,1,.3.33.32.32,0,0,1-.3-.33Zm0,.85a.32.32,0,1,1,.3.33.32.32,0,0,1-.3-.33Zm0,.85a.32.32,0,1,1,.3.33.32.32,0,0,1-.3-.33Zm0,.85a.32.32,0,1,1,.31.33.32.32,0,0,1-.31-.33Zm0,.85a.32.32,0,1,1,.31.33.32.32,0,0,1-.31-.33Zm0,.85a.32.32,0,1,1,.3.33.32.32,0,0,1-.3-.33Zm0,.85a.32.32,0,1,1,.31.33.32.32,0,0,1-.31-.33Zm0,.85a.32.32,0,1,1,.31.33.32.32,0,0,1-.31-.33ZM250.65,42a.32.32,0,1,1,.3.33.32.32,0,0,1-.3-.33Zm0,.85a.32.32,0,1,1,.31.33.32.32,0,0,1-.31-.33Zm0,.85a.32.32,0,1,1,.31.33.32.32,0,0,1-.31-.33Zm0,.85a.32.32,0,1,1,.31.33.32.32,0,0,1-.31-.33Zm0,.85a.32.32,0,1,1,.31.33.32.32,0,0,1-.31-.33Zm0,.85a.32.32,0,1,1,.3.33.32.32,0,0,1-.3-.33Zm0,.85a.32.32,0,1,1,.3.33.32.32,0,0,1-.3-.33Zm0,.85a.32.32,0,1,1,.3.33.32.32,0,0,1-.3-.33Zm0,.85a.32.32,0,1,1,.31.33.32.32,0,0,1-.31-.33Zm0,.85a.32.32,0,1,1,.31.33.32.32,0,0,1-.31-.33Zm3.57,6.75h-.4l.52.85.51.83h0l.36-.59-.23-.24H253l.49.79h.07l.48-.79.27-.44-.39-.41Zm.59,1.68h-.29l-.48,1.11.45-.33.33-.78Zm-1.38,0h-.24l-.84,2.28.35-.24.74-2Zm-.62,0,.49-.81h-1l.5.81Zm-.47,0h-.39l-1.24,3.41.5-.35,1.13-3.06Zm-.58,0,.5-.82h-1l.5.81Zm-.61,0h-.45l.51-.84h-1l.52.84h0l-1.62,4.52.57-.4,1.5-4.13Zm-1.08,0h-.41l.51-.85h-1l.52.85h-.17l-2,5.64.65-.45,2-5.2Zm-1.12,0h-.33l.51-.85h-.92l.33-.85,0-.08.05.08.52-.85h-.27l.1-.27.17.27.52-.85h-.46l.18-.46.29.46.52-.85h-.65l.25-.65.4.65.52-.85h-.13a.76.76,0,0,1-.51.2l-.21,0h0a1,1,0,0,1-.19-.08l-6.07,4.73h3.84a.58.58,0,0,1,.47-.23l.18,0,.1-.27.45.73h-.16a.59.59,0,0,1,0,.09.58.58,0,0,1-.42.56l-2.06,5.69a.67.67,0,0,1,.19.18l.48-.33,2.29-6.19Zm-1.42.55a.58.58,0,0,1-.21-.31H241.9a.82.82,0,0,1-.23.34l3.47,5.69a.66.66,0,0,1,.23,0h.07l2-5.6a.58.58,0,0,1-.16-.09Zm6.28-2.25h-1l.52.85.52-.85Zm-1,0h-1l.52.85.52-.85Zm-1,0h-1l.52.85.52-.85Zm-1,0h-1l.52.85.52-.85Zm-1,0h-1l.52.85.52-.85Zm1.56-.85h-1l.52.85.52-.85Zm-1,0h-1l.52.85.52-.85Zm1.56-.85h-1l.52.85.52-.85Zm-1,0h-1l.52.85.52-.85ZM246.3,66.35l.2.24a.32.32,0,0,0-.2-.24Zm10.06,0,.22-.12v6.91l-.22-.1h0V66.38Zm.55-1.17a.32.32,0,1,1,.33.3.32.32,0,0,1-.33-.3Zm-.85,0a.32.32,0,1,1,.33.3.32.32,0,0,1-.33-.3Zm-.85,0a.32.32,0,1,1,.33.3.32.32,0,0,1-.33-.3Zm0,.85a.32.32,0,1,1,.33.3.32.32,0,0,1-.33-.3Zm-.9-.81a.32.32,0,1,1,.33.3.32.32,0,0,1-.33-.3Zm0,.85a.32.32,0,1,1,.33.3.32.32,0,0,1-.33-.3Zm-.9-.81a.32.32,0,1,1,.33.3.32.32,0,0,1-.33-.3Zm0,.85a.32.32,0,1,1,.33.3.32.32,0,0,1-.33-.3Zm0,.85a.32.32,0,1,1,.33.3.32.32,0,0,1-.33-.3Zm-.95-1.66a.32.32,0,1,1,.33.3.32.32,0,0,1-.33-.3Zm0,.85a.32.32,0,1,1,.33.3.32.32,0,0,1-.33-.3Zm0,.85a.32.32,0,1,1,.33.3.32.32,0,0,1-.33-.3Zm-.94-1.66a.32.32,0,1,1,.33.3.32.32,0,0,1-.33-.3Zm0,.85a.32.32,0,1,1,.33.3.32.32,0,0,1-.33-.3Zm0,.85a.32.32,0,1,1,.33.3.32.32,0,0,1-.33-.3Zm0,.85a.32.32,0,1,1,.33.3.32.32,0,0,1-.33-.3Zm-1-2.51a.32.32,0,1,1,.33.3.32.32,0,0,1-.33-.3Zm0,.85a.32.32,0,1,1,.33.3.32.32,0,0,1-.33-.3Zm0,.85a.32.32,0,1,1,.33.3.32.32,0,0,1-.33-.3Zm0,.85a.32.32,0,1,1,.33.3.32.32,0,0,1-.33-.3Zm-1-2.51a.32.32,0,1,1,.33.3.32.32,0,0,1-.33-.3Zm0,.85a.32.32,0,1,1,.33.3.32.32,0,0,1-.33-.3Zm0,.85a.32.32,0,1,1,.33.3.32.32,0,0,1-.33-.3Zm0,.85a.32.32,0,1,1,.33.3.32.32,0,0,1-.33-.3Zm0,.85a.32.32,0,1,1,.33.3.32.32,0,0,1-.33-.3Zm-1-3.36a.32.32,0,1,1,.33.3.32.32,0,0,1-.33-.3Zm0,.85a.32.32,0,1,1,.33.3.32.32,0,0,1-.33-.3Zm0,.85a.32.32,0,1,1,.33.3.32.32,0,0,1-.33-.3Zm0,.85a.32.32,0,1,1,.33.3.32.32,0,0,1-.33-.3Zm0,.85a.32.32,0,1,1,.33.3.32.32,0,0,1-.33-.3Zm-1-3.36a.32.32,0,1,1,.33.3.32.32,0,0,1-.33-.3Zm0,.85a.32.32,0,1,1,.33.3.32.32,0,0,1-.33-.3Zm0,.85a.32.32,0,1,1,.33.3.32.32,0,0,1-.33-.3Zm0,.85a.32.32,0,1,1,.33.3.32.32,0,0,1-.33-.3Zm-1-2.51a.32.32,0,1,1,.33.3.32.32,0,0,1-.33-.3Zm0,.85a.32.32,0,1,1,.33.3.32.32,0,0,1-.33-.3Zm0,.85a.32.32,0,1,1,.33.3.32.32,0,0,1-.33-.3Zm-.95-1.66a.32.32,0,1,1,.33.3.32.32,0,0,1-.33-.3Zm0,.85a.32.32,0,1,1,.33.3.32.32,0,0,1-.33-.3Zm-1.88-1.22a.67.67,0,0,1-.13-.4.68.68,0,0,1,0-.1l-4.31-1.65a.82.82,0,0,1-.38.34l1.34,5.36h0a.65.65,0,0,1,.31.08l3.14-3.63Zm0-.76a.67.67,0,0,1,.1-.12l-3.47-5.69a.81.81,0,0,1-.28.06l-1,3.28a.82.82,0,0,1,.35.67.81.81,0,0,1,0,.16l4.31,1.65Zm1.5,11a.64.64,0,0,1-.6,0l-.08.07,4.31,4.69.79,0-4.42-4.8Zm2.87-22.76a.77.77,0,0,1,.05-1l-2.43-3.1a.82.82,0,0,1-.42.12h0l-3,8.59,5.87-4.58Zm-7.26,4.91h.78l3.21-9.07a.82.82,0,0,1,.23-1.46l-.38-12.57-2.81,0L240.51,32l-.19,0a.82.82,0,1,1,.45-1.51l2.05-1.69-.5-1.74h0a.82.82,0,1,1,.62-1.36l3.21-1.37-.49-5.52a.82.82,0,0,1-.66-1.21l-4.78-4.88a.82.82,0,1,1,.15-1.43l1.85-1.23,0,0h.06L246,9.52l5.53-3.16-1.05-3.07,3.27-2.1a.82.82,0,1,1,1.53-.2,3.89,3.89,0,0,1,2.32,6.26,21.45,21.45,0,0,1,5.34,2.39c1.55.21,4.51.5,5.53,1.09,1.32.77.38,1.7-.83,2.57C264.2,15.8,263,19,262.8,24.54h.66a2.2,2.2,0,0,1,1.14,4.05c-.36.25-.17.33.18.35h1a2.8,2.8,0,0,1,0,5.6h-3.3c0,7.7.74,16.09,3.66,23.1,2.23-.08,2.41.58,2,3.32,1.58,5.52,9.53,6.36,5.29,13.05l.08,0h0l.07,0h0l.07,0h0l.06,0h0l.06,0h0l.06,0h0l.05,0h0l.06,0h0l.05,0h0l.05,0h0l.05,0h0l0,0h0l0,0h0l0,0h0l.09.1h0l0,.05h0l0,0v0l0,.05h0l0,.05h0l0,.06h0l0,0h0v0l0,0h0l0,0h0l0,.05h0l0,.05H275v0h0v.06h0v.08h0v.17q0,.19,0,.4v0h0v.23h0v.15h0v.07h0v.07h0V78h0v.76h0v.08h0v.08h0V79h0v.09h0v.09h0v.1c0,2.34-30.26,1.45-33.58,1.41a.82.82,0,0,1-1.53,0l-4.93-.12a.82.82,0,1,1-1.16-1l-.12-3.63a.82.82,0,1,1,.86-1.4l.61-.44-.9-4.19a.82.82,0,1,1,.45-1.57l4.37-5a.82.82,0,0,1,.66-1.31h0l1-3.25a.82.82,0,1,1,1.21-.93Zm11-48.72a1,1,0,0,1,.25,0c.73-.29.84-1.76.64-2.46h0l-2,0L246.8,9.6l5.19.29a1,1,0,0,1,1-.78Zm.45,1.84A1,1,0,0,1,252,10.4l-4.69.94-.09,1.2a.65.65,0,0,1,.45.47l4.69-1.14a4.1,4.1,0,0,0,4.3,1.13c2.15-.58,1.35-.71,0-.65a4,4,0,0,1-3.27-1.41ZM257.79,59c2.56.48,9.23.56,9.16-.33,0-.17-.37-.11-.94,0a69.06,69.06,0,0,1-8.23.36Zm.4-33.28a22.64,22.64,0,0,0,5.16.22c.83-.12.75-.33,0-.38a50.23,50.23,0,0,0-5.12.15Zm11.22,41.67a20.44,20.44,0,0,1-3.51-4.26c-.3-.47-.42-.57-1.13-.52l-1.39.11c-.61,0-.69.14-.47.69a23.47,23.47,0,0,0,2.51,4.39c.59.84.76.87,1.85.73l1.55-.18c1.31-.15,1.4-.16.58-1Zm-6.28-10.25a55.93,55.93,0,0,1-3-15.28c-.13-1.82-.26-3.45-.35-5.63,0-.66-1-.11-1,1,.07,2,.16,3.52.24,5.29a91.91,91.91,0,0,0,1.91,14.58c.13.59.12.6.71.63a8.83,8.83,0,0,0,1.23,0c.46,0,.43-.11.27-.54ZM260.55,23a24.06,24.06,0,0,1,2.4-7.31c.33-.72-.85-.34-1.11.19a22.85,22.85,0,0,0-2.41,7.1c-.06.32,0,.33.34.35h.35c.33,0,.37,0,.43-.32Zm-.07-12.58-.55,1.79c1.43,1.52,3.19,1.58,5.13.88,1-.4.74-.48-.09-.42-2,.16-3.86-.42-4.49-2.25Zm-1.86,20a30.36,30.36,0,0,0,6.89.3c1.11-.16,1-.44-.05-.5-1.9-.1-6,.18-6.84.2Zm6.48,45.45c2.83.32,8.55,0,8.3-.75,0-.14-.31-.08-.78,0a53.6,53.6,0,0,1-7.53.75Zm-2.4-5.44c3.75.42,10,.2,9.79-.78,0-.18-.47-.25-1.09-.14a54.11,54.11,0,0,1-8.7.92ZM239.4,63.6l-4.37,5a.82.82,0,0,1,.15.41l5.57.4a.65.65,0,0,1,.34-.4l-1.34-5.36h-.06a.82.82,0,0,1-.29-.05Zm-4.72,6.26.9,4.2,6-.85a.65.65,0,0,1,.42-.58l-.61-2.39h0a.65.65,0,0,1-.64-.56l-5.57-.4a.82.82,0,0,1-.49.57Zm16.12,5.21h-.46l3.55,3.86.28-.21-3.36-3.66Zm-1.64,0h-.56l4.23,4.6.34-.25-4-4.36Zm-1.64,0-.66,0,4.89,5.32h0l.38-.28-4.65-5.06ZM234.11,76l.12,3.43a.82.82,0,0,1,.72.63l4.88.12a.83.83,0,0,1,.08-.2l-5.3-4.19a.82.82,0,0,1-.5.21Zm7.32,4.21.71,0-.54-.58-.29.28a.81.81,0,0,1,.12.29Zm1.24,0,1.19,0-1.37-1.49-.61.59.79.86Zm1.82,0,1.09,0L243.38,78l-.56.54,1.67,1.82Zm1.82,0,1,0-3-3.29-.51.49,2.55,2.78Zm1.82,0,.89,0-3.86-4.2-.46.44,3.43,3.73ZM246.36,9.85l0,0-3.06.53,3.94.69,4.66-.93-5.5-.31Zm-3.89.69h-.07l-1.77,1.17a.81.81,0,0,1,0,.18L246.44,13a.65.65,0,0,1,.53-.45l.09-1.18-4.59-.8Zm-1.92,2,4.75,4.85a.81.81,0,0,1,.39-.1h.09l1-3.51a.65.65,0,0,1-.34-.52l-5.82-.8,0,.08ZM246.11,19l.47,5.27h2.62L246.11,19Zm.31,5.74-3.23,1.38h4.32l1.89-1.38ZM242.76,27l.5,1.73h4.51l-.59-1.92-.11-.16-4,0a.83.83,0,0,1-.26.3Zm3.42,4h.9l2.36-1.83h-.91L246.17,31Zm1.61,0h.76l2.36-1.83h-.76L247.78,31Zm1.67,0h.62l2.35-1.83h-.62L249.45,31Zm1.71,0h.5L254,29.17h-.49L251.16,31Zm1.77,0h.38l2.34-1.83h-.37L252.93,31Zm1.82,0H255l2.34-1.83h-.26L254.75,31Zm.09-6.23L253,26.15h-.45l1.8-1.38Zm-2.77,0-1.82,1.38h-.67l1.85-1.38Zm-1.35,0-1.85,1.38h-.79L250,24.77Zm5.54,0h-.33l-1.79,1.38h.34l1.77-1.38Zm-2.81,0h-.54l-1.82,1.38h.56l1.8-1.38ZM252.07,75l2.86,3.11.22-.17-2.72-3Zm1.74,0L256,77.37l.17-.12L254.09,75Zm1.74,0L257,76.58l.11-.08L255.74,75Zm1.74,0,.79.86.05,0-.76-.82Z"/><path d="M188.19,59.31h.39a.57.57,0,0,1,.4.11.54.54,0,0,1,.11.39v.47a.42.42,0,0,1-.51.51h-.39a.42.42,0,0,1-.51-.51v-.47a.53.53,0,0,1,.11-.39.57.57,0,0,1,.4-.11Zm-4.12-4.07h-1v5.56h-1.5V55.24h-2V54h5.54c-.17.52-.24,1-1,1.21Zm-9.14,3-1.37-.48a2.12,2.12,0,0,1-1.08-.75,2.15,2.15,0,0,1-.32-1.24,1.72,1.72,0,0,1,.55-1.5,3.55,3.55,0,0,1,1.92-.38,8.24,8.24,0,0,1,2.23.27v0a1.23,1.23,0,0,1-1,1h-1.22a2,2,0,0,0-.79.1c-.13.07-.2.24-.2.52a.66.66,0,0,0,.15.48,1.54,1.54,0,0,0,.56.29l1.29.44a2.12,2.12,0,0,1,1.11.75,2.17,2.17,0,0,1,.32,1.24,1.83,1.83,0,0,1-.55,1.55,3.46,3.46,0,0,1-2,.41,11,11,0,0,1-2.33-.26h0a1.24,1.24,0,0,1,1.16-1.05l1.17,0a1.69,1.69,0,0,0,.8-.13.59.59,0,0,0,.2-.53.69.69,0,0,0-.14-.49,1.36,1.36,0,0,0-.5-.26Zm-5.48,2.45h0q-.92.1-3.13.1a1.54,1.54,0,0,1-1.08-.37,1.29,1.29,0,0,1-.41-1V55.34a1.29,1.29,0,0,1,.41-1,1.53,1.53,0,0,1,1.08-.37q2.21,0,3.13.1a1.27,1.27,0,0,1-1,1.11h-1.63a.46.46,0,0,0-.35.12.56.56,0,0,0-.11.38v1H169v1.08h-2.69v1.3a.58.58,0,0,0,.11.39.46.46,0,0,0,.35.12h1.43a1.51,1.51,0,0,1,1.22,1.06c.11.26,0,0,0,0Zm24-5.41-.06-1.13a11.2,11.2,0,0,1,2.28-.24,3.42,3.42,0,0,1,1.7.33,1.31,1.31,0,0,1,.56,1.24,2.49,2.49,0,0,1-.22,1.07,5,5,0,0,1-.88,1.16l-1.74,1.81a5.78,5.78,0,0,1,1-.07h2v1.34h-4.8V60a.84.84,0,0,1,.22-.61l1.66-1.79q1.22-1.27,1.21-1.93a.37.37,0,0,0-.22-.37,2.09,2.09,0,0,0-.71-.08q-1,0-2,.09Zm10.11-1.37a2.36,2.36,0,0,1,2,.78,4.77,4.77,0,0,1,.58,2.73,4.77,4.77,0,0,1-.58,2.73,3,3,0,0,1-4.05,0,4.77,4.77,0,0,1-.58-2.73,4.77,4.77,0,0,1,.58-2.73,2.35,2.35,0,0,1,2-.78Zm0,1.19a.89.89,0,0,0-.89.48,4.89,4.89,0,0,0-.23,1.85,4.89,4.89,0,0,0,.23,1.85.89.89,0,0,0,.89.48.92.92,0,0,0,.91-.48,4.79,4.79,0,0,0,.24-1.85,4.8,4.8,0,0,0-.24-1.85.92.92,0,0,0-.91-.48Zm8.31,5.71h-1.49V56a3.94,3.94,0,0,1,.06-.74l-1.58.41-.18-1,1.7-.68h1.49v6.77Zm3.39-5.52-.06-1.13a11.2,11.2,0,0,1,2.28-.24,3.42,3.42,0,0,1,1.7.33,1.31,1.31,0,0,1,.56,1.24,2.49,2.49,0,0,1-.22,1.07,5,5,0,0,1-.88,1.16l-1.74,1.81a5.78,5.78,0,0,1,1-.07h2v1.34h-4.8V60a.84.84,0,0,1,.22-.61L217,57.57q1.22-1.27,1.21-1.93a.37.37,0,0,0-.22-.37,2.09,2.09,0,0,0-.71-.08q-1,0-2,.09Z"/><path class="cls-1" d="M86.77,42.89l-3.5-1.23a5.51,5.51,0,0,1-2.77-1.91,5.49,5.49,0,0,1-.83-3.17q0-2.87,1.4-3.84t4.92-1a21.06,21.06,0,0,1,5.71.68v0A3.15,3.15,0,0,1,89.13,35h0L86,35a5,5,0,0,0-2,.26q-.5.26-.5,1.32a1.69,1.69,0,0,0,.38,1.23,3.82,3.82,0,0,0,1.43.73l3.29,1.13a5.49,5.49,0,0,1,2.84,1.92,5.55,5.55,0,0,1,.83,3.18q0,2.92-1.41,4t-5,1a28.08,28.08,0,0,1-6-.65h0c.57-2,1.64-2.56,3-2.69l3,.06a4.29,4.29,0,0,0,2-.33,1.5,1.5,0,0,0,.52-1.36,1.77,1.77,0,0,0-.35-1.24,3.2,3.2,0,0,0-1.28-.67ZM18.56,49.45V32.1q3.57-.23,6.74-.23,4.15,0,5.77,1.91t1.62,7q0,5.08-1.62,7T25.3,49.68q-3.17,0-6.74-.23Zm3.82-14.56V46.64H25.3A2.8,2.8,0,0,0,28,45.43a10.28,10.28,0,0,0,.72-4.65A10.36,10.36,0,0,0,28,36.11a2.79,2.79,0,0,0-2.65-1.25l-2.92,0Zm24.26,8-3.5-1.23a5.43,5.43,0,0,1-2.77-1.91,5.5,5.5,0,0,1-.83-3.17q0-2.87,1.4-3.84t4.92-1a21.06,21.06,0,0,1,5.71.68v0A3.15,3.15,0,0,1,49,35h0l-3.12,0a5,5,0,0,0-2,.26c-.33.17-.5.62-.5,1.32a1.69,1.69,0,0,0,.38,1.23,3.93,3.93,0,0,0,1.43.73l3.29,1.13a5.43,5.43,0,0,1,2.84,1.92,5.56,5.56,0,0,1,.83,3.18q0,2.92-1.41,4t-5,1a28.08,28.08,0,0,1-6-.65h0c.57-2,1.64-2.56,3-2.69l3,.06a4.29,4.29,0,0,0,2-.33,1.5,1.5,0,0,0,.52-1.36,1.77,1.77,0,0,0-.35-1.24,3.46,3.46,0,0,0-1.28-.67Zm21.17.83v5.73H64V43.72L58.23,32.1h4l2.89,6.36a15,15,0,0,1,.65,2.19H66a15.12,15.12,0,0,1,.63-2.19l2.89-6.36H73.5L67.82,43.72Zm42.62-8.5H107.9V49.45h-3.85V35.22H98.87V32.1h14.19v0c-.4,1.33-.61,2.52-2.61,3.09Zm20.85,14v0q-2.36.25-8,.25a3.94,3.94,0,0,1-2.77-.94A3.37,3.37,0,0,1,119.42,46V35.52A3.37,3.37,0,0,1,120.47,33a3.94,3.94,0,0,1,2.77-.94q5.67,0,8,.25a3.27,3.27,0,0,1-2.65,2.84h-4.18a1.18,1.18,0,0,0-.91.3,1.43,1.43,0,0,0-.28,1V39h6.92v2.77h-6.92v3.34a1.47,1.47,0,0,0,.28,1,1.18,1.18,0,0,0,.91.3h3.66c2.16.26,2.6,1.4,3.14,2.71l0,.08Zm21-17.15H156a1.3,1.3,0,0,1,1.43,1.43l.68,15.92h-3.62l-.58-14.36h-.43l-2.62,10.74a1.45,1.45,0,0,1-1.56,1.23h-2.51a1.45,1.45,0,0,1-1.56-1.23L142.56,35.1h-.43l-.5,14.36H138l.63-15.92a1.3,1.3,0,0,1,1.43-1.43h3.7a1.43,1.43,0,0,1,1.51,1.23L147.39,42c.13.55.28,1.37.45,2.44h.33c0-.08.08-.43.19-1s.18-1.08.26-1.41l2.09-8.65a1.46,1.46,0,0,1,1.56-1.23Zm12.51,17.35V32.1q2.34-.23,6.59-.23,3.65,0,5,1.18t1.35,4.48q0,3.29-1.27,4.49t-4.56,1.19a26.3,26.3,0,0,1-3.27-.2v6.44Zm3.82-9h2.69a2.82,2.82,0,0,0,2-.58,3.16,3.16,0,0,0,.54-2.16,3.16,3.16,0,0,0-.54-2.16,2.79,2.79,0,0,0-2-.55l-2.69,0v5.43Zm29.55,9h-4l-1.31-5.31a1.67,1.67,0,0,0-1.86-1.46l-2.69,0v6.79h-3.77V32.1q2.34-.23,6.61-.23,3.5,0,5,1.11t1.46,4a5.1,5.1,0,0,1-.77,3,3.48,3.48,0,0,1-2.55,1.31v.13A3.25,3.25,0,0,1,196.63,44l1.51,5.41Zm-9.91-9.59H191a3.08,3.08,0,0,0,2.06-.52,2.64,2.64,0,0,0,.55-1.95,2.63,2.63,0,0,0-.54-1.94A3.07,3.07,0,0,0,191,35l-2.77,0v4.88ZM206.5,33.7c1.08-1.28,3-1.92,5.8-1.92s4.72.64,5.81,1.92,1.63,3.64,1.63,7.08-.55,5.8-1.63,7.08-3,1.92-5.81,1.92-4.72-.64-5.8-1.92-1.62-3.64-1.62-7.08.55-5.8,1.62-7.08ZM215,36.1a3.53,3.53,0,0,0-5.36,0,10.38,10.38,0,0,0-.72,4.68,10.38,10.38,0,0,0,.72,4.68,3.53,3.53,0,0,0,5.36,0,10.39,10.39,0,0,0,.72-4.68A10.42,10.42,0,0,0,215,36.1ZM.5,35,.33,32.22a34.08,34.08,0,0,1,5.46-.45,8.07,8.07,0,0,1,4.38.88,3.54,3.54,0,0,1,1.28,3.14,6.54,6.54,0,0,1-.58,3A2.67,2.67,0,0,1,8.8,40.17v.1a3.33,3.33,0,0,1,2.38,1.32,5.63,5.63,0,0,1,.72,3,4.92,4.92,0,0,1-1.31,3.95Q9.23,49.78,6,49.78a45.78,45.78,0,0,1-6-.45l.15-2.87q2.82.18,4.78.18a4.39,4.39,0,0,0,2.51-.52,2.4,2.4,0,0,0,.68-2,2.58,2.58,0,0,0-.55-1.85,2.9,2.9,0,0,0-2.11-.54H2.21V39.11H5.46q1.51,0,1.95-.57a2.74,2.74,0,0,0,.41-1.75q0-1.23-.53-1.57a4.53,4.53,0,0,0-2.16-.34Q3,34.89.5,35Z"/></svg>