<svg xmlns="http://www.w3.org/2000/svg" viewBox="0 0 116.22 97.6" width="41" height="34">
  <defs>
    <style>
      .cls-1 {
        fill: #394553;
      }
    </style>
  </defs>
  <title>modal-cart</title>
  <g id="Слой_2" data-name="Слой 2">
    <g id="Calque_2" data-name="Calque 2">
      <path class="cls-1" d="M104.76,59.82l11.35-35a2.27,2.27,0,0,0-2-3L28,16,25.07,1.82A2.29,2.29,0,0,0,22.83,0H2.28a2.28,2.28,0,0,0,0,4.56H21l11.38,54.9s.27,1.06.32,1.35c1.47,8,4.47,13.54,9.06,16.66A10.81,10.81,0,1,0,56,80.53H86.65A10.8,10.8,0,1,0,95.46,76c-.29,0-.57,0-.85,0a1.55,1.55,0,0,0-.21,0H52.82c-5.73,0-12.57-1.73-15.36-14.58h65.13A2.29,2.29,0,0,0,104.76,59.82ZM47.2,93a6.25,6.25,0,1,1,6.26-6.25A6.26,6.26,0,0,1,47.2,93Zm54.51-6.25a6.26,6.26,0,1,1-6.25-6.25A6.26,6.26,0,0,1,101.71,86.78ZM107.37,37H91.57l1.72-12,17.58,1.18ZM36.46,56.82l-3.17-15.3H46.21l2.17,15.31Zm14.36-15.3H66.15V56.83H53ZM50.17,37,48,22l18.11,1.22V37Zm20.54,4.57h15.6l-2.2,15.31H70.71Zm0-4.57V23.47l18,1.21L87,37ZM43.39,21.64,45.56,37H32.35L29,20.67ZM88.72,56.83l2.2-15.31h15l-5,15.32Z"/>
    </g>
  </g>
</svg>
