<svg xmlns="http://www.w3.org/2000/svg" viewBox="0 0 33.46 34.71" width="33" height="35">
  <defs>
    <style>
      .cls-1 {
        fill: #334d5e;
      }
    </style>
  </defs>
  <title>modal-order</title>
  <g id="Слой_2" data-name="Слой 2">
    <g id="Layer_1" data-name="Layer 1">
      <path class="cls-1" d="M33.24,3.32,30.13.21a.74.74,0,0,0-1,0l-4,4.05H.73A.73.73,0,0,0,0,5V34a.73.73,0,0,0,.73.73H26.16a.73.73,0,0,0,.73-.73V11.19a.76.76,0,0,0-.11-.37L30.61,7s.08,0,.11-.08a1,1,0,0,0,.08-.11l2.44-2.45A.72.72,0,0,0,33.24,3.32Zm-17,16-3,1,1-3,13-13,2.08,2.08Zm9.24,13.92h-24V5.71H23.6l-5.44,5.45a.66.66,0,0,0-.41-.15H5.09a.73.73,0,0,0,0,1.46H16.85L13.4,15.92H5.09a.73.73,0,1,0,0,1.46h7.47l-1.1,3.44H5.09a.73.73,0,1,0,0,1.46h6.64a.69.69,0,0,0,.41-.15h.12l4.55-1.45a.92.92,0,0,0,.3-.18l8.33-8.33Zm4.75-27.9L28.11,3.27l1.51-1.51L31.7,3.84Z"/>
    </g>
  </g>
</svg>
