<svg xmlns="http://www.w3.org/2000/svg" viewBox="0 0 32 32">
  <defs>
    <style>
      .cls-1 {
        fill: #334d5e;
      }
    </style>
  </defs>
  <title>modal-cons</title>
  <g id="Слой_2" data-name="Слой 2">
    <g id="Layer_1" data-name="Layer 1">
      <g>
        <path class="cls-1" d="M31.33,0H.67A.67.67,0,0,0,0,.67V23.75a.68.68,0,0,0,.67.68h4.9v6.9a.68.68,0,0,0,.38.61.72.72,0,0,0,.29.06.64.64,0,0,0,.43-.16l8.87-7.41H31.33a.68.68,0,0,0,.67-.68V.67A.67.67,0,0,0,31.33,0Zm-.67,23.08H15.3a.67.67,0,0,0-.43.16l-8,6.65V23.75a.67.67,0,0,0-.67-.67H1.34V1.34H30.66Z"/>
        <path class="cls-1" d="M10.6,9.06a1.3,1.3,0,1,0-1.3-1.3A1.3,1.3,0,0,0,10.6,9.06Z"/>
        <path class="cls-1" d="M10.6,16.82a1.3,1.3,0,1,0-1.3-1.3A1.3,1.3,0,0,0,10.6,16.82Z"/>
        <path class="cls-1" d="M14.49,12.31h2.79a.67.67,0,1,0,0-1.34H14.49a.67.67,0,0,0,0,1.34Z"/>
        <path class="cls-1" d="M20,17.7a.67.67,0,0,0,.25.91.66.66,0,0,0,.91-.25,12.83,12.83,0,0,0,0-13.44A.67.67,0,1,0,20,5.58,11.44,11.44,0,0,1,20,17.7Z"/>
      </g>
    </g>
  </g>
</svg>
