<svg xmlns="http://www.w3.org/2000/svg" viewBox="0 0 23 26.23" width="23" height="26">
  <defs>
    <style>
      .cls-1 {
        fill: #394552;
      }
    </style>
  </defs>
  <title>share</title>
  <g id="Слой_2" data-name="Слой 2">
    <g id="Layer_1" data-name="Layer 1">
      <path class="cls-1" d="M18.52,17.28a4.46,4.46,0,0,0-3.16,1.31L8.61,14.68a4.5,4.5,0,0,0,0-3.33L14.9,7.09a4.47,4.47,0,1,0-.85-2.61,4.49,4.49,0,0,0,.17,1.22L7.87,10A4.47,4.47,0,0,0,0,13a4.47,4.47,0,0,0,7.78,3l6.7,3.88a4.54,4.54,0,0,0-.43,1.92,4.48,4.48,0,1,0,4.47-4.48Zm0-15.75a2.95,2.95,0,1,1-2.95,3A2.95,2.95,0,0,1,18.52,1.53ZM4.48,15.9a3,3,0,1,1,2.95-3A2.95,2.95,0,0,1,4.48,15.9Zm14,8.81a3,3,0,1,1,2.95-2.95A3,3,0,0,1,18.52,24.71Z"/>
    </g>
  </g>
</svg>
