<svg xmlns="http://www.w3.org/2000/svg" viewBox="0 0 35 31.84" width="35" height="32">
  <defs>
    <style>
      .cls-1 {
        fill: #394552;
      }
    </style>
  </defs>
  <title>thanks</title>
  <g id="Слой_2" data-name="Слой 2">
    <g id="Layer_1" data-name="Layer 1">
      <path class="cls-1" d="M31.64,3.85A14.4,14.4,0,0,0,28.2,1.09C26.31,0,21.33-1.11,18,2.14l-1.21,1.2-1-1C11.88-1.46,6.44,0,3.1,3.34,0,6.52-1.6,11.75,2.36,15.71l1.91,1.91-.43.43a2.69,2.69,0,0,0,0,3.8l.22.23a2.69,2.69,0,0,0,1.9.78H6l.32,0c0,.07,0,.15,0,.22A2.62,2.62,0,0,0,7.06,25l.22.23a2.68,2.68,0,0,0,2.4.74V26a2.65,2.65,0,0,0,.78,1.89l.23.23a2.66,2.66,0,0,0,2.31.75v.08a2.69,2.69,0,0,0,.78,1.9l.23.22a2.68,2.68,0,0,0,3.8,0l2-2a2.66,2.66,0,0,0,.62-1,2.59,2.59,0,0,0,1.81.74A3.05,3.05,0,0,0,24.33,28a2.66,2.66,0,0,0,.83-1.79,3.88,3.88,0,0,0,.48,0,3.2,3.2,0,0,0,2.17-.9,2.71,2.71,0,0,0,.84-2l.15,0a2.58,2.58,0,0,0,1.77-.75,2.92,2.92,0,0,0,.31-4l1.86-1.85C36.63,12.83,35,7.45,31.64,3.85ZM6.87,21.09a1.3,1.3,0,0,1-1.82,0l-.23-.23a1.29,1.29,0,0,1,0-1.82l3-3a1.3,1.3,0,0,1,1.82,0l.23.23a1.29,1.29,0,0,1,.37.91,1.27,1.27,0,0,1-.37.91Zm3.22,3.11a1.31,1.31,0,0,1-1.82,0L8,24a1.29,1.29,0,0,1-.37-.91A1.27,1.27,0,0,1,8,22.15l4.71-4.71a1.3,1.3,0,0,1,.91-.38,1.24,1.24,0,0,1,.91.38l.23.22a1.3,1.3,0,0,1,0,1.83Zm3.41,2.91a1.27,1.27,0,0,1-1.82,0l-.23-.22a1.3,1.3,0,0,1-.38-.91,1.28,1.28,0,0,1,.38-.91l3.23-3.23a1.28,1.28,0,0,1,1.82,0l.23.22a1.3,1.3,0,0,1,0,1.83Zm5.3,1-2,2a1.33,1.33,0,0,1-1.82,0l-.23-.23a1.29,1.29,0,0,1-.37-.91,1.27,1.27,0,0,1,.37-.91l2-2a1.28,1.28,0,0,1,.91-.37,1.22,1.22,0,0,1,.46.09s0,.09.08.12l.9.91A1.28,1.28,0,0,1,18.8,28.08ZM29.93,17.55,22.48,9.74a.71.71,0,0,0-1,0,.7.7,0,0,0,0,1l8.3,8.7a1.51,1.51,0,0,1-.16,2.12c-.32.31-1,.7-1.83-.17l-.6-.62L23.6,17a.7.7,0,0,0-1,0,.71.71,0,0,0,0,1l.28.29h0l3.89,4a1.27,1.27,0,0,1,.06,2,1.47,1.47,0,0,1-2.07.14L20.5,20a.7.7,0,0,0-1,0,.69.69,0,0,0,0,1l3.6,3.7a.73.73,0,0,0,.16.3,1.25,1.25,0,0,1,.1,1.94,1.45,1.45,0,0,1-2,.09l-1-1.05a2.86,2.86,0,0,0-.5-.71l-.23-.23a2.66,2.66,0,0,0-1.41-.74,2.69,2.69,0,0,0-.44-3.23l-.23-.23a2.63,2.63,0,0,0-1.39-.74,2.69,2.69,0,0,0-.3-3.43l-.23-.23a2.76,2.76,0,0,0-3.8,0l-.22.22a2.61,2.61,0,0,0-.73-1.35l-.22-.22a2.66,2.66,0,0,0-1.9-.79h0a2.66,2.66,0,0,0-1.9.79L5.26,16.63,3.35,14.72C.06,11.43,1.43,7,4.09,4.32S11.4,0,14.85,3.38l1,1L11.55,8.55A1.65,1.65,0,0,0,11.47,11a4.57,4.57,0,0,0,5.94-.28L19,9.18c.77-.7,1.6-.49,3-.06,1.69.51,3.79,1.15,6.12-.69a.7.7,0,0,0,.11-1,.71.71,0,0,0-1-.12c-1.75,1.39-3.26.94-4.85.45-1.39-.42-3-.89-4.38.39l-1.62,1.6a3.24,3.24,0,0,1-4,.29c-.12-.13-.22-.23.08-.52L19,3.13c3-2.93,7.57-1.36,8.54-.82a13.1,13.1,0,0,1,3.1,2.49c2.68,2.89,4.59,7.48,1.13,10.93Z"/>
    </g>
  </g>
</svg>
